%TF.GenerationSoftware,KiCad,Pcbnew,9.0.7*%
%TF.CreationDate,2026-07-05T15:15:00-05:00*%
%TF.ProjectId,laser_controller,6c617365-725f-4636-9f6e-74726f6c6c65,rev?*%
%TF.SameCoordinates,Original*%
%TF.FileFunction,Legend,Bot*%
%TF.FilePolarity,Positive*%
%FSLAX46Y46*%
G04 Gerber Fmt 4.6, Leading zero omitted, Abs format (unit mm)*
G04 Created by KiCad (PCBNEW 9.0.7) date 2026-07-05 15:15:00*
%MOMM*%
%LPD*%
G01*
G04 APERTURE LIST*
%ADD10C,1.400000*%
%ADD11C,0.150000*%
%ADD12C,0.120000*%
G04 APERTURE END LIST*
D10*
X151500000Y-108478628D02*
X148642857Y-116478628D01*
X148642857Y-116478628D02*
X145785714Y-108478628D01*
X141214286Y-116478628D02*
X141214286Y-108478628D01*
X141214286Y-104478628D02*
X141785714Y-105050057D01*
X141785714Y-105050057D02*
X141214286Y-105621485D01*
X141214286Y-105621485D02*
X140642857Y-105050057D01*
X140642857Y-105050057D02*
X141214286Y-104478628D01*
X141214286Y-104478628D02*
X141214286Y-105621485D01*
X136642857Y-108478628D02*
X133785714Y-116478628D01*
X133785714Y-116478628D02*
X130928571Y-108478628D01*
X124642857Y-116478628D02*
X125785714Y-115907200D01*
X125785714Y-115907200D02*
X126357143Y-115335771D01*
X126357143Y-115335771D02*
X126928571Y-114192914D01*
X126928571Y-114192914D02*
X126928571Y-110764342D01*
X126928571Y-110764342D02*
X126357143Y-109621485D01*
X126357143Y-109621485D02*
X125785714Y-109050057D01*
X125785714Y-109050057D02*
X124642857Y-108478628D01*
X124642857Y-108478628D02*
X122928571Y-108478628D01*
X122928571Y-108478628D02*
X121785714Y-109050057D01*
X121785714Y-109050057D02*
X121214286Y-109621485D01*
X121214286Y-109621485D02*
X120642857Y-110764342D01*
X120642857Y-110764342D02*
X120642857Y-114192914D01*
X120642857Y-114192914D02*
X121214286Y-115335771D01*
X121214286Y-115335771D02*
X121785714Y-115907200D01*
X121785714Y-115907200D02*
X122928571Y-116478628D01*
X122928571Y-116478628D02*
X124642857Y-116478628D01*
X115500000Y-108478628D02*
X115500000Y-116478628D01*
X115500000Y-109621485D02*
X114928571Y-109050057D01*
X114928571Y-109050057D02*
X113785714Y-108478628D01*
X113785714Y-108478628D02*
X112071428Y-108478628D01*
X112071428Y-108478628D02*
X110928571Y-109050057D01*
X110928571Y-109050057D02*
X110357143Y-110192914D01*
X110357143Y-110192914D02*
X110357143Y-116478628D01*
X104642857Y-116478628D02*
X104642857Y-108478628D01*
X104642857Y-104478628D02*
X105214285Y-105050057D01*
X105214285Y-105050057D02*
X104642857Y-105621485D01*
X104642857Y-105621485D02*
X104071428Y-105050057D01*
X104071428Y-105050057D02*
X104642857Y-104478628D01*
X104642857Y-104478628D02*
X104642857Y-105621485D01*
X93785714Y-115907200D02*
X94928571Y-116478628D01*
X94928571Y-116478628D02*
X97214285Y-116478628D01*
X97214285Y-116478628D02*
X98357142Y-115907200D01*
X98357142Y-115907200D02*
X98928571Y-115335771D01*
X98928571Y-115335771D02*
X99499999Y-114192914D01*
X99499999Y-114192914D02*
X99499999Y-110764342D01*
X99499999Y-110764342D02*
X98928571Y-109621485D01*
X98928571Y-109621485D02*
X98357142Y-109050057D01*
X98357142Y-109050057D02*
X97214285Y-108478628D01*
X97214285Y-108478628D02*
X94928571Y-108478628D01*
X94928571Y-108478628D02*
X93785714Y-109050057D01*
X89214285Y-115907200D02*
X88071428Y-116478628D01*
X88071428Y-116478628D02*
X85785714Y-116478628D01*
X85785714Y-116478628D02*
X84642857Y-115907200D01*
X84642857Y-115907200D02*
X84071428Y-114764342D01*
X84071428Y-114764342D02*
X84071428Y-114192914D01*
X84071428Y-114192914D02*
X84642857Y-113050057D01*
X84642857Y-113050057D02*
X85785714Y-112478628D01*
X85785714Y-112478628D02*
X87500000Y-112478628D01*
X87500000Y-112478628D02*
X88642857Y-111907200D01*
X88642857Y-111907200D02*
X89214285Y-110764342D01*
X89214285Y-110764342D02*
X89214285Y-110192914D01*
X89214285Y-110192914D02*
X88642857Y-109050057D01*
X88642857Y-109050057D02*
X87500000Y-108478628D01*
X87500000Y-108478628D02*
X85785714Y-108478628D01*
X85785714Y-108478628D02*
X84642857Y-109050057D01*
D11*
X134761319Y-108242761D02*
X134285128Y-107909428D01*
X134761319Y-107671333D02*
X133761319Y-107671333D01*
X133761319Y-107671333D02*
X133761319Y-108052285D01*
X133761319Y-108052285D02*
X133808938Y-108147523D01*
X133808938Y-108147523D02*
X133856557Y-108195142D01*
X133856557Y-108195142D02*
X133951795Y-108242761D01*
X133951795Y-108242761D02*
X134094652Y-108242761D01*
X134094652Y-108242761D02*
X134189890Y-108195142D01*
X134189890Y-108195142D02*
X134237509Y-108147523D01*
X134237509Y-108147523D02*
X134285128Y-108052285D01*
X134285128Y-108052285D02*
X134285128Y-107671333D01*
X133761319Y-108528476D02*
X134761319Y-108861809D01*
X134761319Y-108861809D02*
X133761319Y-109195142D01*
X134189890Y-109671333D02*
X134142271Y-109576095D01*
X134142271Y-109576095D02*
X134094652Y-109528476D01*
X134094652Y-109528476D02*
X133999414Y-109480857D01*
X133999414Y-109480857D02*
X133951795Y-109480857D01*
X133951795Y-109480857D02*
X133856557Y-109528476D01*
X133856557Y-109528476D02*
X133808938Y-109576095D01*
X133808938Y-109576095D02*
X133761319Y-109671333D01*
X133761319Y-109671333D02*
X133761319Y-109861809D01*
X133761319Y-109861809D02*
X133808938Y-109957047D01*
X133808938Y-109957047D02*
X133856557Y-110004666D01*
X133856557Y-110004666D02*
X133951795Y-110052285D01*
X133951795Y-110052285D02*
X133999414Y-110052285D01*
X133999414Y-110052285D02*
X134094652Y-110004666D01*
X134094652Y-110004666D02*
X134142271Y-109957047D01*
X134142271Y-109957047D02*
X134189890Y-109861809D01*
X134189890Y-109861809D02*
X134189890Y-109671333D01*
X134189890Y-109671333D02*
X134237509Y-109576095D01*
X134237509Y-109576095D02*
X134285128Y-109528476D01*
X134285128Y-109528476D02*
X134380366Y-109480857D01*
X134380366Y-109480857D02*
X134570842Y-109480857D01*
X134570842Y-109480857D02*
X134666080Y-109528476D01*
X134666080Y-109528476D02*
X134713700Y-109576095D01*
X134713700Y-109576095D02*
X134761319Y-109671333D01*
X134761319Y-109671333D02*
X134761319Y-109861809D01*
X134761319Y-109861809D02*
X134713700Y-109957047D01*
X134713700Y-109957047D02*
X134666080Y-110004666D01*
X134666080Y-110004666D02*
X134570842Y-110052285D01*
X134570842Y-110052285D02*
X134380366Y-110052285D01*
X134380366Y-110052285D02*
X134285128Y-110004666D01*
X134285128Y-110004666D02*
X134237509Y-109957047D01*
X134237509Y-109957047D02*
X134189890Y-109861809D01*
X134597079Y-114232142D02*
X134644699Y-114184523D01*
X134644699Y-114184523D02*
X134692318Y-114041666D01*
X134692318Y-114041666D02*
X134692318Y-113946428D01*
X134692318Y-113946428D02*
X134644699Y-113803571D01*
X134644699Y-113803571D02*
X134549460Y-113708333D01*
X134549460Y-113708333D02*
X134454222Y-113660714D01*
X134454222Y-113660714D02*
X134263746Y-113613095D01*
X134263746Y-113613095D02*
X134120889Y-113613095D01*
X134120889Y-113613095D02*
X133930413Y-113660714D01*
X133930413Y-113660714D02*
X133835175Y-113708333D01*
X133835175Y-113708333D02*
X133739937Y-113803571D01*
X133739937Y-113803571D02*
X133692318Y-113946428D01*
X133692318Y-113946428D02*
X133692318Y-114041666D01*
X133692318Y-114041666D02*
X133739937Y-114184523D01*
X133739937Y-114184523D02*
X133787556Y-114232142D01*
X134692318Y-115184523D02*
X134692318Y-114613095D01*
X134692318Y-114898809D02*
X133692318Y-114898809D01*
X133692318Y-114898809D02*
X133835175Y-114803571D01*
X133835175Y-114803571D02*
X133930413Y-114708333D01*
X133930413Y-114708333D02*
X133978032Y-114613095D01*
X133692318Y-115517857D02*
X133692318Y-116136904D01*
X133692318Y-116136904D02*
X134073270Y-115803571D01*
X134073270Y-115803571D02*
X134073270Y-115946428D01*
X134073270Y-115946428D02*
X134120889Y-116041666D01*
X134120889Y-116041666D02*
X134168508Y-116089285D01*
X134168508Y-116089285D02*
X134263746Y-116136904D01*
X134263746Y-116136904D02*
X134501841Y-116136904D01*
X134501841Y-116136904D02*
X134597079Y-116089285D01*
X134597079Y-116089285D02*
X134644699Y-116041666D01*
X134644699Y-116041666D02*
X134692318Y-115946428D01*
X134692318Y-115946428D02*
X134692318Y-115660714D01*
X134692318Y-115660714D02*
X134644699Y-115565476D01*
X134644699Y-115565476D02*
X134597079Y-115517857D01*
X132954819Y-105683095D02*
X133764342Y-105683095D01*
X133764342Y-105683095D02*
X133859580Y-105730714D01*
X133859580Y-105730714D02*
X133907200Y-105778333D01*
X133907200Y-105778333D02*
X133954819Y-105873571D01*
X133954819Y-105873571D02*
X133954819Y-106064047D01*
X133954819Y-106064047D02*
X133907200Y-106159285D01*
X133907200Y-106159285D02*
X133859580Y-106206904D01*
X133859580Y-106206904D02*
X133764342Y-106254523D01*
X133764342Y-106254523D02*
X132954819Y-106254523D01*
X133050057Y-106683095D02*
X133002438Y-106730714D01*
X133002438Y-106730714D02*
X132954819Y-106825952D01*
X132954819Y-106825952D02*
X132954819Y-107064047D01*
X132954819Y-107064047D02*
X133002438Y-107159285D01*
X133002438Y-107159285D02*
X133050057Y-107206904D01*
X133050057Y-107206904D02*
X133145295Y-107254523D01*
X133145295Y-107254523D02*
X133240533Y-107254523D01*
X133240533Y-107254523D02*
X133383390Y-107206904D01*
X133383390Y-107206904D02*
X133954819Y-106635476D01*
X133954819Y-106635476D02*
X133954819Y-107254523D01*
X174416666Y-116229819D02*
X174892856Y-116229819D01*
X174892856Y-116229819D02*
X174892856Y-115229819D01*
X174083332Y-116229819D02*
X174083332Y-115229819D01*
X174083332Y-115229819D02*
X173845237Y-115229819D01*
X173845237Y-115229819D02*
X173702380Y-115277438D01*
X173702380Y-115277438D02*
X173607142Y-115372676D01*
X173607142Y-115372676D02*
X173559523Y-115467914D01*
X173559523Y-115467914D02*
X173511904Y-115658390D01*
X173511904Y-115658390D02*
X173511904Y-115801247D01*
X173511904Y-115801247D02*
X173559523Y-115991723D01*
X173559523Y-115991723D02*
X173607142Y-116086961D01*
X173607142Y-116086961D02*
X173702380Y-116182200D01*
X173702380Y-116182200D02*
X173845237Y-116229819D01*
X173845237Y-116229819D02*
X174083332Y-116229819D01*
X172559523Y-116229819D02*
X173130951Y-116229819D01*
X172845237Y-116229819D02*
X172845237Y-115229819D01*
X172845237Y-115229819D02*
X172940475Y-115372676D01*
X172940475Y-115372676D02*
X173035713Y-115467914D01*
X173035713Y-115467914D02*
X173130951Y-115515533D01*
X131811904Y-121984819D02*
X131811904Y-122794342D01*
X131811904Y-122794342D02*
X131764285Y-122889580D01*
X131764285Y-122889580D02*
X131716666Y-122937200D01*
X131716666Y-122937200D02*
X131621428Y-122984819D01*
X131621428Y-122984819D02*
X131430952Y-122984819D01*
X131430952Y-122984819D02*
X131335714Y-122937200D01*
X131335714Y-122937200D02*
X131288095Y-122889580D01*
X131288095Y-122889580D02*
X131240476Y-122794342D01*
X131240476Y-122794342D02*
X131240476Y-121984819D01*
X130335714Y-122318152D02*
X130335714Y-122984819D01*
X130573809Y-121937200D02*
X130811904Y-122651485D01*
X130811904Y-122651485D02*
X130192857Y-122651485D01*
X134557665Y-99621580D02*
X134605284Y-99669200D01*
X134605284Y-99669200D02*
X134748141Y-99716819D01*
X134748141Y-99716819D02*
X134843379Y-99716819D01*
X134843379Y-99716819D02*
X134986236Y-99669200D01*
X134986236Y-99669200D02*
X135081474Y-99573961D01*
X135081474Y-99573961D02*
X135129093Y-99478723D01*
X135129093Y-99478723D02*
X135176712Y-99288247D01*
X135176712Y-99288247D02*
X135176712Y-99145390D01*
X135176712Y-99145390D02*
X135129093Y-98954914D01*
X135129093Y-98954914D02*
X135081474Y-98859676D01*
X135081474Y-98859676D02*
X134986236Y-98764438D01*
X134986236Y-98764438D02*
X134843379Y-98716819D01*
X134843379Y-98716819D02*
X134748141Y-98716819D01*
X134748141Y-98716819D02*
X134605284Y-98764438D01*
X134605284Y-98764438D02*
X134557665Y-98812057D01*
X133652903Y-98716819D02*
X134129093Y-98716819D01*
X134129093Y-98716819D02*
X134176712Y-99193009D01*
X134176712Y-99193009D02*
X134129093Y-99145390D01*
X134129093Y-99145390D02*
X134033855Y-99097771D01*
X134033855Y-99097771D02*
X133795760Y-99097771D01*
X133795760Y-99097771D02*
X133700522Y-99145390D01*
X133700522Y-99145390D02*
X133652903Y-99193009D01*
X133652903Y-99193009D02*
X133605284Y-99288247D01*
X133605284Y-99288247D02*
X133605284Y-99526342D01*
X133605284Y-99526342D02*
X133652903Y-99621580D01*
X133652903Y-99621580D02*
X133700522Y-99669200D01*
X133700522Y-99669200D02*
X133795760Y-99716819D01*
X133795760Y-99716819D02*
X134033855Y-99716819D01*
X134033855Y-99716819D02*
X134129093Y-99669200D01*
X134129093Y-99669200D02*
X134176712Y-99621580D01*
X141804819Y-120063095D02*
X142614342Y-120063095D01*
X142614342Y-120063095D02*
X142709580Y-120110714D01*
X142709580Y-120110714D02*
X142757200Y-120158333D01*
X142757200Y-120158333D02*
X142804819Y-120253571D01*
X142804819Y-120253571D02*
X142804819Y-120444047D01*
X142804819Y-120444047D02*
X142757200Y-120539285D01*
X142757200Y-120539285D02*
X142709580Y-120586904D01*
X142709580Y-120586904D02*
X142614342Y-120634523D01*
X142614342Y-120634523D02*
X141804819Y-120634523D01*
X141804819Y-121015476D02*
X141804819Y-121634523D01*
X141804819Y-121634523D02*
X142185771Y-121301190D01*
X142185771Y-121301190D02*
X142185771Y-121444047D01*
X142185771Y-121444047D02*
X142233390Y-121539285D01*
X142233390Y-121539285D02*
X142281009Y-121586904D01*
X142281009Y-121586904D02*
X142376247Y-121634523D01*
X142376247Y-121634523D02*
X142614342Y-121634523D01*
X142614342Y-121634523D02*
X142709580Y-121586904D01*
X142709580Y-121586904D02*
X142757200Y-121539285D01*
X142757200Y-121539285D02*
X142804819Y-121444047D01*
X142804819Y-121444047D02*
X142804819Y-121158333D01*
X142804819Y-121158333D02*
X142757200Y-121063095D01*
X142757200Y-121063095D02*
X142709580Y-121015476D01*
X122966666Y-105159580D02*
X123014285Y-105207200D01*
X123014285Y-105207200D02*
X123157142Y-105254819D01*
X123157142Y-105254819D02*
X123252380Y-105254819D01*
X123252380Y-105254819D02*
X123395237Y-105207200D01*
X123395237Y-105207200D02*
X123490475Y-105111961D01*
X123490475Y-105111961D02*
X123538094Y-105016723D01*
X123538094Y-105016723D02*
X123585713Y-104826247D01*
X123585713Y-104826247D02*
X123585713Y-104683390D01*
X123585713Y-104683390D02*
X123538094Y-104492914D01*
X123538094Y-104492914D02*
X123490475Y-104397676D01*
X123490475Y-104397676D02*
X123395237Y-104302438D01*
X123395237Y-104302438D02*
X123252380Y-104254819D01*
X123252380Y-104254819D02*
X123157142Y-104254819D01*
X123157142Y-104254819D02*
X123014285Y-104302438D01*
X123014285Y-104302438D02*
X122966666Y-104350057D01*
X122109523Y-104254819D02*
X122299999Y-104254819D01*
X122299999Y-104254819D02*
X122395237Y-104302438D01*
X122395237Y-104302438D02*
X122442856Y-104350057D01*
X122442856Y-104350057D02*
X122538094Y-104492914D01*
X122538094Y-104492914D02*
X122585713Y-104683390D01*
X122585713Y-104683390D02*
X122585713Y-105064342D01*
X122585713Y-105064342D02*
X122538094Y-105159580D01*
X122538094Y-105159580D02*
X122490475Y-105207200D01*
X122490475Y-105207200D02*
X122395237Y-105254819D01*
X122395237Y-105254819D02*
X122204761Y-105254819D01*
X122204761Y-105254819D02*
X122109523Y-105207200D01*
X122109523Y-105207200D02*
X122061904Y-105159580D01*
X122061904Y-105159580D02*
X122014285Y-105064342D01*
X122014285Y-105064342D02*
X122014285Y-104826247D01*
X122014285Y-104826247D02*
X122061904Y-104731009D01*
X122061904Y-104731009D02*
X122109523Y-104683390D01*
X122109523Y-104683390D02*
X122204761Y-104635771D01*
X122204761Y-104635771D02*
X122395237Y-104635771D01*
X122395237Y-104635771D02*
X122490475Y-104683390D01*
X122490475Y-104683390D02*
X122538094Y-104731009D01*
X122538094Y-104731009D02*
X122585713Y-104826247D01*
X145794080Y-114611833D02*
X145841700Y-114564214D01*
X145841700Y-114564214D02*
X145889319Y-114421357D01*
X145889319Y-114421357D02*
X145889319Y-114326119D01*
X145889319Y-114326119D02*
X145841700Y-114183262D01*
X145841700Y-114183262D02*
X145746461Y-114088024D01*
X145746461Y-114088024D02*
X145651223Y-114040405D01*
X145651223Y-114040405D02*
X145460747Y-113992786D01*
X145460747Y-113992786D02*
X145317890Y-113992786D01*
X145317890Y-113992786D02*
X145127414Y-114040405D01*
X145127414Y-114040405D02*
X145032176Y-114088024D01*
X145032176Y-114088024D02*
X144936938Y-114183262D01*
X144936938Y-114183262D02*
X144889319Y-114326119D01*
X144889319Y-114326119D02*
X144889319Y-114421357D01*
X144889319Y-114421357D02*
X144936938Y-114564214D01*
X144936938Y-114564214D02*
X144984557Y-114611833D01*
X145889319Y-115088024D02*
X145889319Y-115278500D01*
X145889319Y-115278500D02*
X145841700Y-115373738D01*
X145841700Y-115373738D02*
X145794080Y-115421357D01*
X145794080Y-115421357D02*
X145651223Y-115516595D01*
X145651223Y-115516595D02*
X145460747Y-115564214D01*
X145460747Y-115564214D02*
X145079795Y-115564214D01*
X145079795Y-115564214D02*
X144984557Y-115516595D01*
X144984557Y-115516595D02*
X144936938Y-115468976D01*
X144936938Y-115468976D02*
X144889319Y-115373738D01*
X144889319Y-115373738D02*
X144889319Y-115183262D01*
X144889319Y-115183262D02*
X144936938Y-115088024D01*
X144936938Y-115088024D02*
X144984557Y-115040405D01*
X144984557Y-115040405D02*
X145079795Y-114992786D01*
X145079795Y-114992786D02*
X145317890Y-114992786D01*
X145317890Y-114992786D02*
X145413128Y-115040405D01*
X145413128Y-115040405D02*
X145460747Y-115088024D01*
X145460747Y-115088024D02*
X145508366Y-115183262D01*
X145508366Y-115183262D02*
X145508366Y-115373738D01*
X145508366Y-115373738D02*
X145460747Y-115468976D01*
X145460747Y-115468976D02*
X145413128Y-115516595D01*
X145413128Y-115516595D02*
X145317890Y-115564214D01*
X143805819Y-109443261D02*
X143329628Y-109109928D01*
X143805819Y-108871833D02*
X142805819Y-108871833D01*
X142805819Y-108871833D02*
X142805819Y-109252785D01*
X142805819Y-109252785D02*
X142853438Y-109348023D01*
X142853438Y-109348023D02*
X142901057Y-109395642D01*
X142901057Y-109395642D02*
X142996295Y-109443261D01*
X142996295Y-109443261D02*
X143139152Y-109443261D01*
X143139152Y-109443261D02*
X143234390Y-109395642D01*
X143234390Y-109395642D02*
X143282009Y-109348023D01*
X143282009Y-109348023D02*
X143329628Y-109252785D01*
X143329628Y-109252785D02*
X143329628Y-108871833D01*
X142805819Y-109728976D02*
X143805819Y-110062309D01*
X143805819Y-110062309D02*
X142805819Y-110395642D01*
X142805819Y-110633738D02*
X142805819Y-111300404D01*
X142805819Y-111300404D02*
X143805819Y-110871833D01*
X141086905Y-116340180D02*
X141086905Y-117340180D01*
X141086905Y-117340180D02*
X141325000Y-117340180D01*
X141325000Y-117340180D02*
X141467857Y-117292561D01*
X141467857Y-117292561D02*
X141563095Y-117197323D01*
X141563095Y-117197323D02*
X141610714Y-117102085D01*
X141610714Y-117102085D02*
X141658333Y-116911609D01*
X141658333Y-116911609D02*
X141658333Y-116768752D01*
X141658333Y-116768752D02*
X141610714Y-116578276D01*
X141610714Y-116578276D02*
X141563095Y-116483038D01*
X141563095Y-116483038D02*
X141467857Y-116387800D01*
X141467857Y-116387800D02*
X141325000Y-116340180D01*
X141325000Y-116340180D02*
X141086905Y-116340180D01*
X142515476Y-117006847D02*
X142515476Y-116340180D01*
X142277381Y-117387800D02*
X142039286Y-116673514D01*
X142039286Y-116673514D02*
X142658333Y-116673514D01*
X133136905Y-100382680D02*
X133136905Y-101382680D01*
X133136905Y-101382680D02*
X133375000Y-101382680D01*
X133375000Y-101382680D02*
X133517857Y-101335061D01*
X133517857Y-101335061D02*
X133613095Y-101239823D01*
X133613095Y-101239823D02*
X133660714Y-101144585D01*
X133660714Y-101144585D02*
X133708333Y-100954109D01*
X133708333Y-100954109D02*
X133708333Y-100811252D01*
X133708333Y-100811252D02*
X133660714Y-100620776D01*
X133660714Y-100620776D02*
X133613095Y-100525538D01*
X133613095Y-100525538D02*
X133517857Y-100430300D01*
X133517857Y-100430300D02*
X133375000Y-100382680D01*
X133375000Y-100382680D02*
X133136905Y-100382680D01*
X134089286Y-101287442D02*
X134136905Y-101335061D01*
X134136905Y-101335061D02*
X134232143Y-101382680D01*
X134232143Y-101382680D02*
X134470238Y-101382680D01*
X134470238Y-101382680D02*
X134565476Y-101335061D01*
X134565476Y-101335061D02*
X134613095Y-101287442D01*
X134613095Y-101287442D02*
X134660714Y-101192204D01*
X134660714Y-101192204D02*
X134660714Y-101096966D01*
X134660714Y-101096966D02*
X134613095Y-100954109D01*
X134613095Y-100954109D02*
X134041667Y-100382680D01*
X134041667Y-100382680D02*
X134660714Y-100382680D01*
X150628580Y-99103333D02*
X150676200Y-99055714D01*
X150676200Y-99055714D02*
X150723819Y-98912857D01*
X150723819Y-98912857D02*
X150723819Y-98817619D01*
X150723819Y-98817619D02*
X150676200Y-98674762D01*
X150676200Y-98674762D02*
X150580961Y-98579524D01*
X150580961Y-98579524D02*
X150485723Y-98531905D01*
X150485723Y-98531905D02*
X150295247Y-98484286D01*
X150295247Y-98484286D02*
X150152390Y-98484286D01*
X150152390Y-98484286D02*
X149961914Y-98531905D01*
X149961914Y-98531905D02*
X149866676Y-98579524D01*
X149866676Y-98579524D02*
X149771438Y-98674762D01*
X149771438Y-98674762D02*
X149723819Y-98817619D01*
X149723819Y-98817619D02*
X149723819Y-98912857D01*
X149723819Y-98912857D02*
X149771438Y-99055714D01*
X149771438Y-99055714D02*
X149819057Y-99103333D01*
X150723819Y-100055714D02*
X150723819Y-99484286D01*
X150723819Y-99770000D02*
X149723819Y-99770000D01*
X149723819Y-99770000D02*
X149866676Y-99674762D01*
X149866676Y-99674762D02*
X149961914Y-99579524D01*
X149961914Y-99579524D02*
X150009533Y-99484286D01*
X138259580Y-111682142D02*
X138307200Y-111634523D01*
X138307200Y-111634523D02*
X138354819Y-111491666D01*
X138354819Y-111491666D02*
X138354819Y-111396428D01*
X138354819Y-111396428D02*
X138307200Y-111253571D01*
X138307200Y-111253571D02*
X138211961Y-111158333D01*
X138211961Y-111158333D02*
X138116723Y-111110714D01*
X138116723Y-111110714D02*
X137926247Y-111063095D01*
X137926247Y-111063095D02*
X137783390Y-111063095D01*
X137783390Y-111063095D02*
X137592914Y-111110714D01*
X137592914Y-111110714D02*
X137497676Y-111158333D01*
X137497676Y-111158333D02*
X137402438Y-111253571D01*
X137402438Y-111253571D02*
X137354819Y-111396428D01*
X137354819Y-111396428D02*
X137354819Y-111491666D01*
X137354819Y-111491666D02*
X137402438Y-111634523D01*
X137402438Y-111634523D02*
X137450057Y-111682142D01*
X138354819Y-112634523D02*
X138354819Y-112063095D01*
X138354819Y-112348809D02*
X137354819Y-112348809D01*
X137354819Y-112348809D02*
X137497676Y-112253571D01*
X137497676Y-112253571D02*
X137592914Y-112158333D01*
X137592914Y-112158333D02*
X137640533Y-112063095D01*
X137354819Y-113253571D02*
X137354819Y-113348809D01*
X137354819Y-113348809D02*
X137402438Y-113444047D01*
X137402438Y-113444047D02*
X137450057Y-113491666D01*
X137450057Y-113491666D02*
X137545295Y-113539285D01*
X137545295Y-113539285D02*
X137735771Y-113586904D01*
X137735771Y-113586904D02*
X137973866Y-113586904D01*
X137973866Y-113586904D02*
X138164342Y-113539285D01*
X138164342Y-113539285D02*
X138259580Y-113491666D01*
X138259580Y-113491666D02*
X138307200Y-113444047D01*
X138307200Y-113444047D02*
X138354819Y-113348809D01*
X138354819Y-113348809D02*
X138354819Y-113253571D01*
X138354819Y-113253571D02*
X138307200Y-113158333D01*
X138307200Y-113158333D02*
X138259580Y-113110714D01*
X138259580Y-113110714D02*
X138164342Y-113063095D01*
X138164342Y-113063095D02*
X137973866Y-113015476D01*
X137973866Y-113015476D02*
X137735771Y-113015476D01*
X137735771Y-113015476D02*
X137545295Y-113063095D01*
X137545295Y-113063095D02*
X137450057Y-113110714D01*
X137450057Y-113110714D02*
X137402438Y-113158333D01*
X137402438Y-113158333D02*
X137354819Y-113253571D01*
X150583619Y-94589061D02*
X150107428Y-94255728D01*
X150583619Y-94017633D02*
X149583619Y-94017633D01*
X149583619Y-94017633D02*
X149583619Y-94398585D01*
X149583619Y-94398585D02*
X149631238Y-94493823D01*
X149631238Y-94493823D02*
X149678857Y-94541442D01*
X149678857Y-94541442D02*
X149774095Y-94589061D01*
X149774095Y-94589061D02*
X149916952Y-94589061D01*
X149916952Y-94589061D02*
X150012190Y-94541442D01*
X150012190Y-94541442D02*
X150059809Y-94493823D01*
X150059809Y-94493823D02*
X150107428Y-94398585D01*
X150107428Y-94398585D02*
X150107428Y-94017633D01*
X149583619Y-94874776D02*
X150583619Y-95208109D01*
X150583619Y-95208109D02*
X149583619Y-95541442D01*
X149583619Y-96350966D02*
X149583619Y-95874776D01*
X149583619Y-95874776D02*
X150059809Y-95827157D01*
X150059809Y-95827157D02*
X150012190Y-95874776D01*
X150012190Y-95874776D02*
X149964571Y-95970014D01*
X149964571Y-95970014D02*
X149964571Y-96208109D01*
X149964571Y-96208109D02*
X150012190Y-96303347D01*
X150012190Y-96303347D02*
X150059809Y-96350966D01*
X150059809Y-96350966D02*
X150155047Y-96398585D01*
X150155047Y-96398585D02*
X150393142Y-96398585D01*
X150393142Y-96398585D02*
X150488380Y-96350966D01*
X150488380Y-96350966D02*
X150536000Y-96303347D01*
X150536000Y-96303347D02*
X150583619Y-96208109D01*
X150583619Y-96208109D02*
X150583619Y-95970014D01*
X150583619Y-95970014D02*
X150536000Y-95874776D01*
X150536000Y-95874776D02*
X150488380Y-95827157D01*
X175191666Y-105454819D02*
X175667856Y-105454819D01*
X175667856Y-105454819D02*
X175667856Y-104454819D01*
X174858332Y-105454819D02*
X174858332Y-104454819D01*
X174858332Y-104454819D02*
X174620237Y-104454819D01*
X174620237Y-104454819D02*
X174477380Y-104502438D01*
X174477380Y-104502438D02*
X174382142Y-104597676D01*
X174382142Y-104597676D02*
X174334523Y-104692914D01*
X174334523Y-104692914D02*
X174286904Y-104883390D01*
X174286904Y-104883390D02*
X174286904Y-105026247D01*
X174286904Y-105026247D02*
X174334523Y-105216723D01*
X174334523Y-105216723D02*
X174382142Y-105311961D01*
X174382142Y-105311961D02*
X174477380Y-105407200D01*
X174477380Y-105407200D02*
X174620237Y-105454819D01*
X174620237Y-105454819D02*
X174858332Y-105454819D01*
X173429761Y-104788152D02*
X173429761Y-105454819D01*
X173667856Y-104407200D02*
X173905951Y-105121485D01*
X173905951Y-105121485D02*
X173286904Y-105121485D01*
X182416666Y-105429819D02*
X182892856Y-105429819D01*
X182892856Y-105429819D02*
X182892856Y-104429819D01*
X182083332Y-105429819D02*
X182083332Y-104429819D01*
X182083332Y-104429819D02*
X181845237Y-104429819D01*
X181845237Y-104429819D02*
X181702380Y-104477438D01*
X181702380Y-104477438D02*
X181607142Y-104572676D01*
X181607142Y-104572676D02*
X181559523Y-104667914D01*
X181559523Y-104667914D02*
X181511904Y-104858390D01*
X181511904Y-104858390D02*
X181511904Y-105001247D01*
X181511904Y-105001247D02*
X181559523Y-105191723D01*
X181559523Y-105191723D02*
X181607142Y-105286961D01*
X181607142Y-105286961D02*
X181702380Y-105382200D01*
X181702380Y-105382200D02*
X181845237Y-105429819D01*
X181845237Y-105429819D02*
X182083332Y-105429819D01*
X181130951Y-104525057D02*
X181083332Y-104477438D01*
X181083332Y-104477438D02*
X180988094Y-104429819D01*
X180988094Y-104429819D02*
X180749999Y-104429819D01*
X180749999Y-104429819D02*
X180654761Y-104477438D01*
X180654761Y-104477438D02*
X180607142Y-104525057D01*
X180607142Y-104525057D02*
X180559523Y-104620295D01*
X180559523Y-104620295D02*
X180559523Y-104715533D01*
X180559523Y-104715533D02*
X180607142Y-104858390D01*
X180607142Y-104858390D02*
X181178570Y-105429819D01*
X181178570Y-105429819D02*
X180559523Y-105429819D01*
X124634580Y-111882142D02*
X124682200Y-111834523D01*
X124682200Y-111834523D02*
X124729819Y-111691666D01*
X124729819Y-111691666D02*
X124729819Y-111596428D01*
X124729819Y-111596428D02*
X124682200Y-111453571D01*
X124682200Y-111453571D02*
X124586961Y-111358333D01*
X124586961Y-111358333D02*
X124491723Y-111310714D01*
X124491723Y-111310714D02*
X124301247Y-111263095D01*
X124301247Y-111263095D02*
X124158390Y-111263095D01*
X124158390Y-111263095D02*
X123967914Y-111310714D01*
X123967914Y-111310714D02*
X123872676Y-111358333D01*
X123872676Y-111358333D02*
X123777438Y-111453571D01*
X123777438Y-111453571D02*
X123729819Y-111596428D01*
X123729819Y-111596428D02*
X123729819Y-111691666D01*
X123729819Y-111691666D02*
X123777438Y-111834523D01*
X123777438Y-111834523D02*
X123825057Y-111882142D01*
X124729819Y-112834523D02*
X124729819Y-112263095D01*
X124729819Y-112548809D02*
X123729819Y-112548809D01*
X123729819Y-112548809D02*
X123872676Y-112453571D01*
X123872676Y-112453571D02*
X123967914Y-112358333D01*
X123967914Y-112358333D02*
X124015533Y-112263095D01*
X124063152Y-113691666D02*
X124729819Y-113691666D01*
X123682200Y-113453571D02*
X124396485Y-113215476D01*
X124396485Y-113215476D02*
X124396485Y-113834523D01*
X128845738Y-98198819D02*
X129179071Y-97722628D01*
X129417166Y-98198819D02*
X129417166Y-97198819D01*
X129417166Y-97198819D02*
X129036214Y-97198819D01*
X129036214Y-97198819D02*
X128940976Y-97246438D01*
X128940976Y-97246438D02*
X128893357Y-97294057D01*
X128893357Y-97294057D02*
X128845738Y-97389295D01*
X128845738Y-97389295D02*
X128845738Y-97532152D01*
X128845738Y-97532152D02*
X128893357Y-97627390D01*
X128893357Y-97627390D02*
X128940976Y-97675009D01*
X128940976Y-97675009D02*
X129036214Y-97722628D01*
X129036214Y-97722628D02*
X129417166Y-97722628D01*
X128560023Y-97198819D02*
X128226690Y-98198819D01*
X128226690Y-98198819D02*
X127893357Y-97198819D01*
X127131452Y-97198819D02*
X127321928Y-97198819D01*
X127321928Y-97198819D02*
X127417166Y-97246438D01*
X127417166Y-97246438D02*
X127464785Y-97294057D01*
X127464785Y-97294057D02*
X127560023Y-97436914D01*
X127560023Y-97436914D02*
X127607642Y-97627390D01*
X127607642Y-97627390D02*
X127607642Y-98008342D01*
X127607642Y-98008342D02*
X127560023Y-98103580D01*
X127560023Y-98103580D02*
X127512404Y-98151200D01*
X127512404Y-98151200D02*
X127417166Y-98198819D01*
X127417166Y-98198819D02*
X127226690Y-98198819D01*
X127226690Y-98198819D02*
X127131452Y-98151200D01*
X127131452Y-98151200D02*
X127083833Y-98103580D01*
X127083833Y-98103580D02*
X127036214Y-98008342D01*
X127036214Y-98008342D02*
X127036214Y-97770247D01*
X127036214Y-97770247D02*
X127083833Y-97675009D01*
X127083833Y-97675009D02*
X127131452Y-97627390D01*
X127131452Y-97627390D02*
X127226690Y-97579771D01*
X127226690Y-97579771D02*
X127417166Y-97579771D01*
X127417166Y-97579771D02*
X127512404Y-97627390D01*
X127512404Y-97627390D02*
X127560023Y-97675009D01*
X127560023Y-97675009D02*
X127607642Y-97770247D01*
X139280666Y-110274580D02*
X139328285Y-110322200D01*
X139328285Y-110322200D02*
X139471142Y-110369819D01*
X139471142Y-110369819D02*
X139566380Y-110369819D01*
X139566380Y-110369819D02*
X139709237Y-110322200D01*
X139709237Y-110322200D02*
X139804475Y-110226961D01*
X139804475Y-110226961D02*
X139852094Y-110131723D01*
X139852094Y-110131723D02*
X139899713Y-109941247D01*
X139899713Y-109941247D02*
X139899713Y-109798390D01*
X139899713Y-109798390D02*
X139852094Y-109607914D01*
X139852094Y-109607914D02*
X139804475Y-109512676D01*
X139804475Y-109512676D02*
X139709237Y-109417438D01*
X139709237Y-109417438D02*
X139566380Y-109369819D01*
X139566380Y-109369819D02*
X139471142Y-109369819D01*
X139471142Y-109369819D02*
X139328285Y-109417438D01*
X139328285Y-109417438D02*
X139280666Y-109465057D01*
X138899713Y-109465057D02*
X138852094Y-109417438D01*
X138852094Y-109417438D02*
X138756856Y-109369819D01*
X138756856Y-109369819D02*
X138518761Y-109369819D01*
X138518761Y-109369819D02*
X138423523Y-109417438D01*
X138423523Y-109417438D02*
X138375904Y-109465057D01*
X138375904Y-109465057D02*
X138328285Y-109560295D01*
X138328285Y-109560295D02*
X138328285Y-109655533D01*
X138328285Y-109655533D02*
X138375904Y-109798390D01*
X138375904Y-109798390D02*
X138947332Y-110369819D01*
X138947332Y-110369819D02*
X138328285Y-110369819D01*
X153411905Y-121120179D02*
X153411905Y-122120179D01*
X153411905Y-122120179D02*
X153650000Y-122120179D01*
X153650000Y-122120179D02*
X153792857Y-122072560D01*
X153792857Y-122072560D02*
X153888095Y-121977322D01*
X153888095Y-121977322D02*
X153935714Y-121882084D01*
X153935714Y-121882084D02*
X153983333Y-121691608D01*
X153983333Y-121691608D02*
X153983333Y-121548751D01*
X153983333Y-121548751D02*
X153935714Y-121358275D01*
X153935714Y-121358275D02*
X153888095Y-121263037D01*
X153888095Y-121263037D02*
X153792857Y-121167799D01*
X153792857Y-121167799D02*
X153650000Y-121120179D01*
X153650000Y-121120179D02*
X153411905Y-121120179D01*
X154316667Y-122120179D02*
X154935714Y-122120179D01*
X154935714Y-122120179D02*
X154602381Y-121739227D01*
X154602381Y-121739227D02*
X154745238Y-121739227D01*
X154745238Y-121739227D02*
X154840476Y-121691608D01*
X154840476Y-121691608D02*
X154888095Y-121643989D01*
X154888095Y-121643989D02*
X154935714Y-121548751D01*
X154935714Y-121548751D02*
X154935714Y-121310656D01*
X154935714Y-121310656D02*
X154888095Y-121215418D01*
X154888095Y-121215418D02*
X154840476Y-121167799D01*
X154840476Y-121167799D02*
X154745238Y-121120179D01*
X154745238Y-121120179D02*
X154459524Y-121120179D01*
X154459524Y-121120179D02*
X154364286Y-121167799D01*
X154364286Y-121167799D02*
X154316667Y-121215418D01*
X191916666Y-116979819D02*
X192392856Y-116979819D01*
X192392856Y-116979819D02*
X192392856Y-115979819D01*
X191583332Y-116979819D02*
X191583332Y-115979819D01*
X191583332Y-115979819D02*
X191345237Y-115979819D01*
X191345237Y-115979819D02*
X191202380Y-116027438D01*
X191202380Y-116027438D02*
X191107142Y-116122676D01*
X191107142Y-116122676D02*
X191059523Y-116217914D01*
X191059523Y-116217914D02*
X191011904Y-116408390D01*
X191011904Y-116408390D02*
X191011904Y-116551247D01*
X191011904Y-116551247D02*
X191059523Y-116741723D01*
X191059523Y-116741723D02*
X191107142Y-116836961D01*
X191107142Y-116836961D02*
X191202380Y-116932200D01*
X191202380Y-116932200D02*
X191345237Y-116979819D01*
X191345237Y-116979819D02*
X191583332Y-116979819D01*
X190678570Y-115979819D02*
X190059523Y-115979819D01*
X190059523Y-115979819D02*
X190392856Y-116360771D01*
X190392856Y-116360771D02*
X190249999Y-116360771D01*
X190249999Y-116360771D02*
X190154761Y-116408390D01*
X190154761Y-116408390D02*
X190107142Y-116456009D01*
X190107142Y-116456009D02*
X190059523Y-116551247D01*
X190059523Y-116551247D02*
X190059523Y-116789342D01*
X190059523Y-116789342D02*
X190107142Y-116884580D01*
X190107142Y-116884580D02*
X190154761Y-116932200D01*
X190154761Y-116932200D02*
X190249999Y-116979819D01*
X190249999Y-116979819D02*
X190535713Y-116979819D01*
X190535713Y-116979819D02*
X190630951Y-116932200D01*
X190630951Y-116932200D02*
X190678570Y-116884580D01*
X157261905Y-100632680D02*
X157261905Y-101632680D01*
X157261905Y-101632680D02*
X157500000Y-101632680D01*
X157500000Y-101632680D02*
X157642857Y-101585061D01*
X157642857Y-101585061D02*
X157738095Y-101489823D01*
X157738095Y-101489823D02*
X157785714Y-101394585D01*
X157785714Y-101394585D02*
X157833333Y-101204109D01*
X157833333Y-101204109D02*
X157833333Y-101061252D01*
X157833333Y-101061252D02*
X157785714Y-100870776D01*
X157785714Y-100870776D02*
X157738095Y-100775538D01*
X157738095Y-100775538D02*
X157642857Y-100680300D01*
X157642857Y-100680300D02*
X157500000Y-100632680D01*
X157500000Y-100632680D02*
X157261905Y-100632680D01*
X158785714Y-100632680D02*
X158214286Y-100632680D01*
X158500000Y-100632680D02*
X158500000Y-101632680D01*
X158500000Y-101632680D02*
X158404762Y-101489823D01*
X158404762Y-101489823D02*
X158309524Y-101394585D01*
X158309524Y-101394585D02*
X158214286Y-101346966D01*
X147561904Y-99139819D02*
X147561904Y-99949342D01*
X147561904Y-99949342D02*
X147514285Y-100044580D01*
X147514285Y-100044580D02*
X147466666Y-100092200D01*
X147466666Y-100092200D02*
X147371428Y-100139819D01*
X147371428Y-100139819D02*
X147180952Y-100139819D01*
X147180952Y-100139819D02*
X147085714Y-100092200D01*
X147085714Y-100092200D02*
X147038095Y-100044580D01*
X147038095Y-100044580D02*
X146990476Y-99949342D01*
X146990476Y-99949342D02*
X146990476Y-99139819D01*
X145990476Y-100139819D02*
X146561904Y-100139819D01*
X146276190Y-100139819D02*
X146276190Y-99139819D01*
X146276190Y-99139819D02*
X146371428Y-99282676D01*
X146371428Y-99282676D02*
X146466666Y-99377914D01*
X146466666Y-99377914D02*
X146561904Y-99425533D01*
D12*
%TO.C,RV8*%
X128280000Y-108130000D02*
X129560000Y-108130000D01*
X128280000Y-111870000D02*
X128280000Y-108130000D01*
X128280000Y-111870000D02*
X128660000Y-111870000D01*
X130440000Y-111870000D02*
X131160000Y-111870000D01*
X132040000Y-108130000D02*
X133320000Y-108130000D01*
X132940000Y-111870000D02*
X133320000Y-111870000D01*
X133320000Y-111870000D02*
X133320000Y-108130000D01*
%TO.C,C13*%
X131846266Y-113990000D02*
X131553732Y-113990000D01*
X131846266Y-115010000D02*
X131553732Y-115010000D01*
%TO.C,U2*%
X130800000Y-100500000D02*
X128850000Y-100500000D01*
X130800000Y-100500000D02*
X132750000Y-100500000D01*
X130800000Y-105620000D02*
X128850000Y-105620000D01*
X130800000Y-105620000D02*
X132750000Y-105620000D01*
X133500000Y-100595000D02*
X133260000Y-100265000D01*
X133740000Y-100265000D01*
X133500000Y-100595000D01*
G36*
X133500000Y-100595000D02*
G01*
X133260000Y-100265000D01*
X133740000Y-100265000D01*
X133500000Y-100595000D01*
G37*
%TO.C,LD1*%
X169380000Y-115637500D02*
X169380000Y-116037500D01*
X169380000Y-116037500D02*
X170280000Y-116037500D01*
X170280000Y-116037500D02*
X170280000Y-115637500D01*
X172730000Y-118437500D02*
G75*
G02*
X167030000Y-118437500I-2850000J0D01*
G01*
X167030000Y-118437500D02*
G75*
G02*
X172730000Y-118437500I2850000J0D01*
G01*
%TO.C,U4*%
X130800000Y-116525000D02*
X128850000Y-116525000D01*
X130800000Y-116525000D02*
X132750000Y-116525000D01*
X130800000Y-121645000D02*
X128850000Y-121645000D01*
X130800000Y-121645000D02*
X132750000Y-121645000D01*
X133500000Y-116620000D02*
X133260000Y-116290000D01*
X133740000Y-116290000D01*
X133500000Y-116620000D01*
G36*
X133500000Y-116620000D02*
G01*
X133260000Y-116290000D01*
X133740000Y-116290000D01*
X133500000Y-116620000D01*
G37*
%TO.C,C5*%
X131846266Y-98490000D02*
X131553732Y-98490000D01*
X131846266Y-99510000D02*
X131553732Y-99510000D01*
%TO.C,U3*%
X146800000Y-116525000D02*
X144850000Y-116525000D01*
X146800000Y-116525000D02*
X148750000Y-116525000D01*
X146800000Y-121645000D02*
X144850000Y-121645000D01*
X146800000Y-121645000D02*
X148750000Y-121645000D01*
X149500000Y-116620000D02*
X149260000Y-116290000D01*
X149740000Y-116290000D01*
X149500000Y-116620000D01*
G36*
X149500000Y-116620000D02*
G01*
X149260000Y-116290000D01*
X149740000Y-116290000D01*
X149500000Y-116620000D01*
G37*
%TO.C,C6*%
X122640000Y-106915835D02*
X122640000Y-106684165D01*
X123360000Y-106915835D02*
X123360000Y-106684165D01*
%TO.C,C9*%
X147846267Y-113990000D02*
X147553733Y-113990000D01*
X147846267Y-115010000D02*
X147553733Y-115010000D01*
%TO.C,RV7*%
X144280000Y-108130000D02*
X145560000Y-108130000D01*
X144280000Y-111870000D02*
X144280000Y-108130000D01*
X144280000Y-111870000D02*
X144660000Y-111870000D01*
X146440000Y-111870000D02*
X147160000Y-111870000D01*
X148040000Y-108130000D02*
X149320000Y-108130000D01*
X148940000Y-111870000D02*
X149320000Y-111870000D01*
X149320000Y-111870000D02*
X149320000Y-108130000D01*
%TO.C,D4*%
X136400000Y-116330000D02*
X140825000Y-116330000D01*
X140825000Y-116330000D02*
X140825000Y-120570000D01*
X140825000Y-120570000D02*
X136400000Y-120570000D01*
%TO.C,D2*%
X136400000Y-100305000D02*
X140825000Y-100305000D01*
X140825000Y-100305000D02*
X140825000Y-104545000D01*
X140825000Y-104545000D02*
X136400000Y-104545000D01*
%TO.C,C1*%
X147846267Y-98490000D02*
X147553733Y-98490000D01*
X147846267Y-99510000D02*
X147553733Y-99510000D01*
%TO.C,C10*%
X138640000Y-114015835D02*
X138640000Y-113784165D01*
X139360000Y-114015835D02*
X139360000Y-113784165D01*
%TO.C,RV5*%
X144280000Y-92630000D02*
X145560000Y-92630000D01*
X144280000Y-96370000D02*
X144280000Y-92630000D01*
X144280000Y-96370000D02*
X144660000Y-96370000D01*
X146440000Y-96370000D02*
X147160000Y-96370000D01*
X148040000Y-92630000D02*
X149320000Y-92630000D01*
X148940000Y-96370000D02*
X149320000Y-96370000D01*
X149320000Y-96370000D02*
X149320000Y-92630000D01*
%TO.C,LD4*%
X169400000Y-99587500D02*
X169400000Y-100237500D01*
X169400000Y-100237500D02*
X170400000Y-100237500D01*
X170400000Y-100237500D02*
X170400000Y-99587500D01*
X172800000Y-102437500D02*
G75*
G02*
X167000000Y-102437500I-2900000J0D01*
G01*
X167000000Y-102437500D02*
G75*
G02*
X172800000Y-102437500I2900000J0D01*
G01*
%TO.C,LD2*%
X185380000Y-99637500D02*
X185380000Y-100037500D01*
X185380000Y-100037500D02*
X186280000Y-100037500D01*
X186280000Y-100037500D02*
X186280000Y-99637500D01*
X188730000Y-102437500D02*
G75*
G02*
X183030000Y-102437500I-2850000J0D01*
G01*
X183030000Y-102437500D02*
G75*
G02*
X188730000Y-102437500I2850000J0D01*
G01*
%TO.C,C14*%
X122640000Y-114015835D02*
X122640000Y-113784165D01*
X123360000Y-114015835D02*
X123360000Y-113784165D01*
%TO.C,RV6*%
X128280000Y-92630000D02*
X129560000Y-92630000D01*
X128280000Y-96370000D02*
X128280000Y-92630000D01*
X128280000Y-96370000D02*
X128660000Y-96370000D01*
X130440000Y-96370000D02*
X131160000Y-96370000D01*
X132040000Y-92630000D02*
X133320000Y-92630000D01*
X132940000Y-96370000D02*
X133320000Y-96370000D01*
X133320000Y-96370000D02*
X133320000Y-92630000D01*
%TO.C,C2*%
X138640000Y-106915835D02*
X138640000Y-106684165D01*
X139360000Y-106915835D02*
X139360000Y-106684165D01*
%TO.C,D3*%
X152400000Y-116330000D02*
X156825000Y-116330000D01*
X156825000Y-116330000D02*
X156825000Y-120570000D01*
X156825000Y-120570000D02*
X152400000Y-120570000D01*
%TO.C,LD3*%
X185400000Y-115587500D02*
X185400000Y-116237500D01*
X185400000Y-116237500D02*
X186400000Y-116237500D01*
X186400000Y-116237500D02*
X186400000Y-115587500D01*
X188800000Y-118437500D02*
G75*
G02*
X183000000Y-118437500I-2900000J0D01*
G01*
X183000000Y-118437500D02*
G75*
G02*
X188800000Y-118437500I2900000J0D01*
G01*
%TO.C,D1*%
X152400000Y-100330000D02*
X156825000Y-100330000D01*
X156825000Y-100330000D02*
X156825000Y-104570000D01*
X156825000Y-104570000D02*
X152400000Y-104570000D01*
%TO.C,U1*%
X146800000Y-100525000D02*
X144850000Y-100525000D01*
X146800000Y-100525000D02*
X148750000Y-100525000D01*
X146800000Y-105645000D02*
X144850000Y-105645000D01*
X146800000Y-105645000D02*
X148750000Y-105645000D01*
X149500000Y-100620000D02*
X149260000Y-100290000D01*
X149740000Y-100290000D01*
X149500000Y-100620000D01*
G36*
X149500000Y-100620000D02*
G01*
X149260000Y-100290000D01*
X149740000Y-100290000D01*
X149500000Y-100620000D01*
G37*
%TD*%
M02*
