%TF.GenerationSoftware,KiCad,Pcbnew,10.0.4-10.0.4~ubuntu24.04.1*%
%TF.CreationDate,2026-07-05T21:11:19-05:00*%
%TF.ProjectId,laser_controller,6c617365-725f-4636-9f6e-74726f6c6c65,rev?*%
%TF.SameCoordinates,Original*%
%TF.FileFunction,Legend,Bot*%
%TF.FilePolarity,Positive*%
%FSLAX46Y46*%
G04 Gerber Fmt 4.6, Leading zero omitted, Abs format (unit mm)*
G04 Created by KiCad (PCBNEW 10.0.4-10.0.4~ubuntu24.04.1) date 2026-07-05 21:11:19*
%MOMM*%
%LPD*%
G01*
G04 APERTURE LIST*
%ADD10C,1.400000*%
%ADD11C,0.150000*%
%ADD12C,0.120000*%
G04 APERTURE END LIST*
D10*
X151500000Y-108478628D02*
X148642857Y-116478628D01*
X148642857Y-116478628D02*
X145785714Y-108478628D01*
X141214286Y-116478628D02*
X141214286Y-108478628D01*
X141214286Y-104478628D02*
X141785714Y-105050057D01*
X141785714Y-105050057D02*
X141214286Y-105621485D01*
X141214286Y-105621485D02*
X140642857Y-105050057D01*
X140642857Y-105050057D02*
X141214286Y-104478628D01*
X141214286Y-104478628D02*
X141214286Y-105621485D01*
X136642857Y-108478628D02*
X133785714Y-116478628D01*
X133785714Y-116478628D02*
X130928571Y-108478628D01*
X124642857Y-116478628D02*
X125785714Y-115907200D01*
X125785714Y-115907200D02*
X126357143Y-115335771D01*
X126357143Y-115335771D02*
X126928571Y-114192914D01*
X126928571Y-114192914D02*
X126928571Y-110764342D01*
X126928571Y-110764342D02*
X126357143Y-109621485D01*
X126357143Y-109621485D02*
X125785714Y-109050057D01*
X125785714Y-109050057D02*
X124642857Y-108478628D01*
X124642857Y-108478628D02*
X122928571Y-108478628D01*
X122928571Y-108478628D02*
X121785714Y-109050057D01*
X121785714Y-109050057D02*
X121214286Y-109621485D01*
X121214286Y-109621485D02*
X120642857Y-110764342D01*
X120642857Y-110764342D02*
X120642857Y-114192914D01*
X120642857Y-114192914D02*
X121214286Y-115335771D01*
X121214286Y-115335771D02*
X121785714Y-115907200D01*
X121785714Y-115907200D02*
X122928571Y-116478628D01*
X122928571Y-116478628D02*
X124642857Y-116478628D01*
X115500000Y-108478628D02*
X115500000Y-116478628D01*
X115500000Y-109621485D02*
X114928571Y-109050057D01*
X114928571Y-109050057D02*
X113785714Y-108478628D01*
X113785714Y-108478628D02*
X112071428Y-108478628D01*
X112071428Y-108478628D02*
X110928571Y-109050057D01*
X110928571Y-109050057D02*
X110357143Y-110192914D01*
X110357143Y-110192914D02*
X110357143Y-116478628D01*
X104642857Y-116478628D02*
X104642857Y-108478628D01*
X104642857Y-104478628D02*
X105214285Y-105050057D01*
X105214285Y-105050057D02*
X104642857Y-105621485D01*
X104642857Y-105621485D02*
X104071428Y-105050057D01*
X104071428Y-105050057D02*
X104642857Y-104478628D01*
X104642857Y-104478628D02*
X104642857Y-105621485D01*
X93785714Y-115907200D02*
X94928571Y-116478628D01*
X94928571Y-116478628D02*
X97214285Y-116478628D01*
X97214285Y-116478628D02*
X98357142Y-115907200D01*
X98357142Y-115907200D02*
X98928571Y-115335771D01*
X98928571Y-115335771D02*
X99499999Y-114192914D01*
X99499999Y-114192914D02*
X99499999Y-110764342D01*
X99499999Y-110764342D02*
X98928571Y-109621485D01*
X98928571Y-109621485D02*
X98357142Y-109050057D01*
X98357142Y-109050057D02*
X97214285Y-108478628D01*
X97214285Y-108478628D02*
X94928571Y-108478628D01*
X94928571Y-108478628D02*
X93785714Y-109050057D01*
X89214285Y-115907200D02*
X88071428Y-116478628D01*
X88071428Y-116478628D02*
X85785714Y-116478628D01*
X85785714Y-116478628D02*
X84642857Y-115907200D01*
X84642857Y-115907200D02*
X84071428Y-114764342D01*
X84071428Y-114764342D02*
X84071428Y-114192914D01*
X84071428Y-114192914D02*
X84642857Y-113050057D01*
X84642857Y-113050057D02*
X85785714Y-112478628D01*
X85785714Y-112478628D02*
X87500000Y-112478628D01*
X87500000Y-112478628D02*
X88642857Y-111907200D01*
X88642857Y-111907200D02*
X89214285Y-110764342D01*
X89214285Y-110764342D02*
X89214285Y-110192914D01*
X89214285Y-110192914D02*
X88642857Y-109050057D01*
X88642857Y-109050057D02*
X87500000Y-108478628D01*
X87500000Y-108478628D02*
X85785714Y-108478628D01*
X85785714Y-108478628D02*
X84642857Y-109050057D01*
D11*
X174416666Y-116229819D02*
X174892856Y-116229819D01*
X174892856Y-116229819D02*
X174892856Y-115229819D01*
X174083332Y-116229819D02*
X174083332Y-115229819D01*
X174083332Y-115229819D02*
X173845237Y-115229819D01*
X173845237Y-115229819D02*
X173702380Y-115277438D01*
X173702380Y-115277438D02*
X173607142Y-115372676D01*
X173607142Y-115372676D02*
X173559523Y-115467914D01*
X173559523Y-115467914D02*
X173511904Y-115658390D01*
X173511904Y-115658390D02*
X173511904Y-115801247D01*
X173511904Y-115801247D02*
X173559523Y-115991723D01*
X173559523Y-115991723D02*
X173607142Y-116086961D01*
X173607142Y-116086961D02*
X173702380Y-116182200D01*
X173702380Y-116182200D02*
X173845237Y-116229819D01*
X173845237Y-116229819D02*
X174083332Y-116229819D01*
X172559523Y-116229819D02*
X173130951Y-116229819D01*
X172845237Y-116229819D02*
X172845237Y-115229819D01*
X172845237Y-115229819D02*
X172940475Y-115372676D01*
X172940475Y-115372676D02*
X173035713Y-115467914D01*
X173035713Y-115467914D02*
X173130951Y-115515533D01*
X141086905Y-116340180D02*
X141086905Y-117340180D01*
X141086905Y-117340180D02*
X141325000Y-117340180D01*
X141325000Y-117340180D02*
X141467857Y-117292561D01*
X141467857Y-117292561D02*
X141563095Y-117197323D01*
X141563095Y-117197323D02*
X141610714Y-117102085D01*
X141610714Y-117102085D02*
X141658333Y-116911609D01*
X141658333Y-116911609D02*
X141658333Y-116768752D01*
X141658333Y-116768752D02*
X141610714Y-116578276D01*
X141610714Y-116578276D02*
X141563095Y-116483038D01*
X141563095Y-116483038D02*
X141467857Y-116387800D01*
X141467857Y-116387800D02*
X141325000Y-116340180D01*
X141325000Y-116340180D02*
X141086905Y-116340180D01*
X142515476Y-117006847D02*
X142515476Y-116340180D01*
X142277381Y-117387800D02*
X142039286Y-116673514D01*
X142039286Y-116673514D02*
X142658333Y-116673514D01*
X133136905Y-100382680D02*
X133136905Y-101382680D01*
X133136905Y-101382680D02*
X133375000Y-101382680D01*
X133375000Y-101382680D02*
X133517857Y-101335061D01*
X133517857Y-101335061D02*
X133613095Y-101239823D01*
X133613095Y-101239823D02*
X133660714Y-101144585D01*
X133660714Y-101144585D02*
X133708333Y-100954109D01*
X133708333Y-100954109D02*
X133708333Y-100811252D01*
X133708333Y-100811252D02*
X133660714Y-100620776D01*
X133660714Y-100620776D02*
X133613095Y-100525538D01*
X133613095Y-100525538D02*
X133517857Y-100430300D01*
X133517857Y-100430300D02*
X133375000Y-100382680D01*
X133375000Y-100382680D02*
X133136905Y-100382680D01*
X134089286Y-101287442D02*
X134136905Y-101335061D01*
X134136905Y-101335061D02*
X134232143Y-101382680D01*
X134232143Y-101382680D02*
X134470238Y-101382680D01*
X134470238Y-101382680D02*
X134565476Y-101335061D01*
X134565476Y-101335061D02*
X134613095Y-101287442D01*
X134613095Y-101287442D02*
X134660714Y-101192204D01*
X134660714Y-101192204D02*
X134660714Y-101096966D01*
X134660714Y-101096966D02*
X134613095Y-100954109D01*
X134613095Y-100954109D02*
X134041667Y-100382680D01*
X134041667Y-100382680D02*
X134660714Y-100382680D01*
X175191666Y-105454819D02*
X175667856Y-105454819D01*
X175667856Y-105454819D02*
X175667856Y-104454819D01*
X174858332Y-105454819D02*
X174858332Y-104454819D01*
X174858332Y-104454819D02*
X174620237Y-104454819D01*
X174620237Y-104454819D02*
X174477380Y-104502438D01*
X174477380Y-104502438D02*
X174382142Y-104597676D01*
X174382142Y-104597676D02*
X174334523Y-104692914D01*
X174334523Y-104692914D02*
X174286904Y-104883390D01*
X174286904Y-104883390D02*
X174286904Y-105026247D01*
X174286904Y-105026247D02*
X174334523Y-105216723D01*
X174334523Y-105216723D02*
X174382142Y-105311961D01*
X174382142Y-105311961D02*
X174477380Y-105407200D01*
X174477380Y-105407200D02*
X174620237Y-105454819D01*
X174620237Y-105454819D02*
X174858332Y-105454819D01*
X173429761Y-104788152D02*
X173429761Y-105454819D01*
X173667856Y-104407200D02*
X173905951Y-105121485D01*
X173905951Y-105121485D02*
X173286904Y-105121485D01*
X182416666Y-105429819D02*
X182892856Y-105429819D01*
X182892856Y-105429819D02*
X182892856Y-104429819D01*
X182083332Y-105429819D02*
X182083332Y-104429819D01*
X182083332Y-104429819D02*
X181845237Y-104429819D01*
X181845237Y-104429819D02*
X181702380Y-104477438D01*
X181702380Y-104477438D02*
X181607142Y-104572676D01*
X181607142Y-104572676D02*
X181559523Y-104667914D01*
X181559523Y-104667914D02*
X181511904Y-104858390D01*
X181511904Y-104858390D02*
X181511904Y-105001247D01*
X181511904Y-105001247D02*
X181559523Y-105191723D01*
X181559523Y-105191723D02*
X181607142Y-105286961D01*
X181607142Y-105286961D02*
X181702380Y-105382200D01*
X181702380Y-105382200D02*
X181845237Y-105429819D01*
X181845237Y-105429819D02*
X182083332Y-105429819D01*
X181130951Y-104525057D02*
X181083332Y-104477438D01*
X181083332Y-104477438D02*
X180988094Y-104429819D01*
X180988094Y-104429819D02*
X180749999Y-104429819D01*
X180749999Y-104429819D02*
X180654761Y-104477438D01*
X180654761Y-104477438D02*
X180607142Y-104525057D01*
X180607142Y-104525057D02*
X180559523Y-104620295D01*
X180559523Y-104620295D02*
X180559523Y-104715533D01*
X180559523Y-104715533D02*
X180607142Y-104858390D01*
X180607142Y-104858390D02*
X181178570Y-105429819D01*
X181178570Y-105429819D02*
X180559523Y-105429819D01*
X153411905Y-121120179D02*
X153411905Y-122120179D01*
X153411905Y-122120179D02*
X153650000Y-122120179D01*
X153650000Y-122120179D02*
X153792857Y-122072560D01*
X153792857Y-122072560D02*
X153888095Y-121977322D01*
X153888095Y-121977322D02*
X153935714Y-121882084D01*
X153935714Y-121882084D02*
X153983333Y-121691608D01*
X153983333Y-121691608D02*
X153983333Y-121548751D01*
X153983333Y-121548751D02*
X153935714Y-121358275D01*
X153935714Y-121358275D02*
X153888095Y-121263037D01*
X153888095Y-121263037D02*
X153792857Y-121167799D01*
X153792857Y-121167799D02*
X153650000Y-121120179D01*
X153650000Y-121120179D02*
X153411905Y-121120179D01*
X154316667Y-122120179D02*
X154935714Y-122120179D01*
X154935714Y-122120179D02*
X154602381Y-121739227D01*
X154602381Y-121739227D02*
X154745238Y-121739227D01*
X154745238Y-121739227D02*
X154840476Y-121691608D01*
X154840476Y-121691608D02*
X154888095Y-121643989D01*
X154888095Y-121643989D02*
X154935714Y-121548751D01*
X154935714Y-121548751D02*
X154935714Y-121310656D01*
X154935714Y-121310656D02*
X154888095Y-121215418D01*
X154888095Y-121215418D02*
X154840476Y-121167799D01*
X154840476Y-121167799D02*
X154745238Y-121120179D01*
X154745238Y-121120179D02*
X154459524Y-121120179D01*
X154459524Y-121120179D02*
X154364286Y-121167799D01*
X154364286Y-121167799D02*
X154316667Y-121215418D01*
X191916666Y-116979819D02*
X192392856Y-116979819D01*
X192392856Y-116979819D02*
X192392856Y-115979819D01*
X191583332Y-116979819D02*
X191583332Y-115979819D01*
X191583332Y-115979819D02*
X191345237Y-115979819D01*
X191345237Y-115979819D02*
X191202380Y-116027438D01*
X191202380Y-116027438D02*
X191107142Y-116122676D01*
X191107142Y-116122676D02*
X191059523Y-116217914D01*
X191059523Y-116217914D02*
X191011904Y-116408390D01*
X191011904Y-116408390D02*
X191011904Y-116551247D01*
X191011904Y-116551247D02*
X191059523Y-116741723D01*
X191059523Y-116741723D02*
X191107142Y-116836961D01*
X191107142Y-116836961D02*
X191202380Y-116932200D01*
X191202380Y-116932200D02*
X191345237Y-116979819D01*
X191345237Y-116979819D02*
X191583332Y-116979819D01*
X190678570Y-115979819D02*
X190059523Y-115979819D01*
X190059523Y-115979819D02*
X190392856Y-116360771D01*
X190392856Y-116360771D02*
X190249999Y-116360771D01*
X190249999Y-116360771D02*
X190154761Y-116408390D01*
X190154761Y-116408390D02*
X190107142Y-116456009D01*
X190107142Y-116456009D02*
X190059523Y-116551247D01*
X190059523Y-116551247D02*
X190059523Y-116789342D01*
X190059523Y-116789342D02*
X190107142Y-116884580D01*
X190107142Y-116884580D02*
X190154761Y-116932200D01*
X190154761Y-116932200D02*
X190249999Y-116979819D01*
X190249999Y-116979819D02*
X190535713Y-116979819D01*
X190535713Y-116979819D02*
X190630951Y-116932200D01*
X190630951Y-116932200D02*
X190678570Y-116884580D01*
X157261905Y-100632680D02*
X157261905Y-101632680D01*
X157261905Y-101632680D02*
X157500000Y-101632680D01*
X157500000Y-101632680D02*
X157642857Y-101585061D01*
X157642857Y-101585061D02*
X157738095Y-101489823D01*
X157738095Y-101489823D02*
X157785714Y-101394585D01*
X157785714Y-101394585D02*
X157833333Y-101204109D01*
X157833333Y-101204109D02*
X157833333Y-101061252D01*
X157833333Y-101061252D02*
X157785714Y-100870776D01*
X157785714Y-100870776D02*
X157738095Y-100775538D01*
X157738095Y-100775538D02*
X157642857Y-100680300D01*
X157642857Y-100680300D02*
X157500000Y-100632680D01*
X157500000Y-100632680D02*
X157261905Y-100632680D01*
X158785714Y-100632680D02*
X158214286Y-100632680D01*
X158500000Y-100632680D02*
X158500000Y-101632680D01*
X158500000Y-101632680D02*
X158404762Y-101489823D01*
X158404762Y-101489823D02*
X158309524Y-101394585D01*
X158309524Y-101394585D02*
X158214286Y-101346966D01*
%TO.C,LD1*%
D12*
X169380000Y-115637500D02*
X169380000Y-116037500D01*
X169380000Y-116037500D02*
X170280000Y-116037500D01*
X170280000Y-116037500D02*
X170280000Y-115637500D01*
X172730000Y-118437500D02*
G75*
G02*
X167030000Y-118437500I-2850000J0D01*
G01*
X167030000Y-118437500D02*
G75*
G02*
X172730000Y-118437500I2850000J0D01*
G01*
%TO.C,D4*%
X136400000Y-116330000D02*
X140825000Y-116330000D01*
X140825000Y-116330000D02*
X140825000Y-120570000D01*
X140825000Y-120570000D02*
X136400000Y-120570000D01*
%TO.C,D2*%
X136400000Y-100305000D02*
X140825000Y-100305000D01*
X140825000Y-100305000D02*
X140825000Y-104545000D01*
X140825000Y-104545000D02*
X136400000Y-104545000D01*
%TO.C,LD4*%
X169400000Y-99587500D02*
X169400000Y-100237500D01*
X169400000Y-100237500D02*
X170400000Y-100237500D01*
X170400000Y-100237500D02*
X170400000Y-99587500D01*
X172800000Y-102437500D02*
G75*
G02*
X167000000Y-102437500I-2900000J0D01*
G01*
X167000000Y-102437500D02*
G75*
G02*
X172800000Y-102437500I2900000J0D01*
G01*
%TO.C,LD2*%
X185380000Y-99637500D02*
X185380000Y-100037500D01*
X185380000Y-100037500D02*
X186280000Y-100037500D01*
X186280000Y-100037500D02*
X186280000Y-99637500D01*
X188730000Y-102437500D02*
G75*
G02*
X183030000Y-102437500I-2850000J0D01*
G01*
X183030000Y-102437500D02*
G75*
G02*
X188730000Y-102437500I2850000J0D01*
G01*
%TO.C,D3*%
X152400000Y-116330000D02*
X156825000Y-116330000D01*
X156825000Y-116330000D02*
X156825000Y-120570000D01*
X156825000Y-120570000D02*
X152400000Y-120570000D01*
%TO.C,LD3*%
X185400000Y-115587500D02*
X185400000Y-116237500D01*
X185400000Y-116237500D02*
X186400000Y-116237500D01*
X186400000Y-116237500D02*
X186400000Y-115587500D01*
X188800000Y-118437500D02*
G75*
G02*
X183000000Y-118437500I-2900000J0D01*
G01*
X183000000Y-118437500D02*
G75*
G02*
X188800000Y-118437500I2900000J0D01*
G01*
%TO.C,D1*%
X152400000Y-100330000D02*
X156825000Y-100330000D01*
X156825000Y-100330000D02*
X156825000Y-104570000D01*
X156825000Y-104570000D02*
X152400000Y-104570000D01*
%TD*%
M02*
