M48
; DRILL file KiCad 10.0.4-10.0.4~ubuntu24.04.1 date 2026-07-06T14:13:48
; FORMAT={-:-/ absolute / metric / decimal}
; #@! TF.CreationDate,2026-07-06T14:13:48-05:00
; #@! TF.GenerationSoftware,Kicad,Pcbnew,10.0.4-10.0.4~ubuntu24.04.1
; #@! TF.FileFunction,Plated,1,4,PTH
FMAT,2
METRIC
; #@! TA.AperFunction,Plated,PTH,ViaDrill
T1C0.300
; #@! TA.AperFunction,Plated,PTH,ViaDrill
T2C0.500
; #@! TA.AperFunction,Plated,PTH,ViaDrill
T3C0.600
; #@! TA.AperFunction,Plated,PTH,ComponentDrill
T4C0.600
; #@! TA.AperFunction,Plated,PTH,ComponentDrill
T5C0.700
; #@! TA.AperFunction,Plated,PTH,ComponentDrill
T6C0.890
; #@! TA.AperFunction,Plated,PTH,ComponentDrill
T7C1.000
; #@! TA.AperFunction,Plated,PTH,ComponentDrill
T8C1.570
; #@! TA.AperFunction,Plated,PTH,ComponentDrill
T9C3.200
%
G90
G05
T1
X45.75Y-94.125
X46.563Y-95.062
X46.9Y-90.375
X47.877Y-93.973
X48.796Y-96.482
X49.625Y-91.15
X50.275Y-88.5
X50.35Y-93.25
X50.403Y-89.496
X50.45Y-91.25
X50.563Y-90.331
X51.95Y-94.45
X52.791Y-103.964
X53.054Y-100.354
X55.579Y-86.227
X56.622Y-91.945
X56.8Y-83.95
X57.25Y-90.525
X61.075Y-94.225
X61.25Y-101.15
X61.675Y-95.825
X64.04Y-116.935
X64.375Y-101.15
X64.525Y-82.95
X64.675Y-81.675
X64.825Y-89.275
X65.0Y-110.15
X65.425Y-87.981
X65.5Y-113.625
X65.534Y-110.811
X65.615Y-85.925
X66.575Y-117.375
X66.625Y-90.15
X67.164Y-110.836
X67.55Y-113.4
X68.15Y-84.8
X68.35Y-112.275
X68.399Y-110.063
X68.635Y-93.682
X68.65Y-117.325
X69.504Y-104.821
X70.019Y-114.342
X70.25Y-101.4
X70.6Y-98.15
X70.746Y-111.714
X70.748Y-114.78
X70.979Y-92.78
X71.0Y-107.875
X72.175Y-104.025
X72.75Y-118.675
X73.238Y-93.636
X73.45Y-127.8
X74.475Y-119.475
X75.0Y-113.5
X75.544Y-119.231
X75.825Y-101.425
X75.912Y-86.854
X76.382Y-92.697
X76.682Y-87.131
X78.45Y-138.875
X78.95Y-83.55
X79.15Y-81.65
X79.3Y-92.35
X80.188Y-100.498
X82.55Y-93.125
X82.65Y-101.575
X82.85Y-94.05
X83.281Y-83.956
X83.332Y-99.5
X83.609Y-100.8
X85.225Y-99.8
X87.322Y-100.326
X90.3Y-102.25
X91.275Y-103.4
X91.525Y-92.4
X94.05Y-83.65
X99.525Y-94.975
X99.525Y-95.95
X99.7Y-91.95
X99.725Y-97.8
X100.488Y-91.653
X100.525Y-101.85
X100.75Y-99.15
X101.763Y-91.713
X102.225Y-99.15
X103.0Y-120.544
X103.2Y-99.175
X103.25Y-93.75
X103.425Y-102.525
X104.0Y-103.3
X104.15Y-90.55
X104.75Y-99.225
X105.55Y-92.125
X105.8Y-104.4
X106.178Y-99.325
X106.625Y-105.275
X106.91Y-110.74
X107.194Y-99.325
X107.466Y-92.352
X108.156Y-111.985
X108.225Y-97.8
X108.325Y-96.975
X108.925Y-100.675
X110.762Y-110.216
X111.9Y-106.375
X112.825Y-111.575
X113.0Y-130.17
X113.203Y-108.907
X113.425Y-99.375
X113.65Y-103.325
X114.45Y-110.35
X119.14Y-133.05
X119.8Y-123.3
X121.2Y-106.2
X122.1Y-107.367
X122.1Y-113.332
X122.35Y-100.39
X122.625Y-110.5
X123.2Y-127.0
X123.5Y-123.6
X123.6Y-131.65
X123.8Y-115.8
X126.0Y-103.695
X126.1Y-95.075
X126.6Y-124.8
X127.0Y-106.0
X127.8Y-97.575
X128.1Y-128.94
X128.25Y-130.718
X128.65Y-132.853
X129.1Y-127.162
X130.0Y-102.425
X130.0Y-118.45
X131.167Y-126.5
X131.425Y-123.475
X132.13Y-86.2
X133.275Y-106.965
X133.275Y-122.99
X133.749Y-113.475
X135.035Y-100.0
X135.035Y-115.2
X136.5Y-118.45
X136.8Y-86.328
X137.371Y-89.3
X137.5Y-96.3
X138.1Y-106.233
X138.1Y-107.367
X138.1Y-113.332
X139.0Y-116.3
X139.446Y-87.6
X139.575Y-83.575
X139.8Y-98.912
X141.5Y-100.4
X141.813Y-84.216
X142.948Y-83.3
X145.6Y-102.45
X145.6Y-118.45
X146.85Y-128.15
X147.125Y-138.325
X147.481Y-89.052
X147.6Y-103.72
X148.096Y-134.1
X149.275Y-106.99
X149.275Y-122.99
X150.469Y-138.0
X151.035Y-100.0
X151.035Y-115.2
X153.0Y-134.3
X155.525Y-133.982
X157.7Y-102.45
X157.8Y-126.0
X162.0Y-114.55
X164.0Y-97.0
X164.4Y-133.5
X164.5Y-116.1
X165.9Y-117.8
X167.5Y-113.5
X168.475Y-129.25
X173.05Y-105.85
X174.775Y-115.325
X175.8Y-113.5
X177.0Y-134.3
X185.025Y-130.025
X187.8Y-88.8
X189.8Y-88.4
X194.125Y-85.525
X195.0Y-132.425
T2
X34.45Y-108.225
X34.5Y-85.25
X34.55Y-94.875
X39.875Y-81.55
X40.025Y-94.375
X40.05Y-108.15
X41.706Y-89.334
X42.15Y-103.15
X42.85Y-82.6
X46.575Y-88.725
X47.875Y-88.75
X48.175Y-85.15
X49.775Y-101.082
X50.15Y-99.875
X51.0Y-114.5
X52.527Y-135.025
X52.65Y-98.7
X53.875Y-89.6
X54.125Y-94.85
X58.4Y-87.0
X58.475Y-128.95
X58.675Y-92.825
X60.825Y-135.2
X61.725Y-107.827
X62.5Y-111.0
X64.475Y-128.85
X64.975Y-104.45
X67.85Y-135.275
X68.831Y-90.343
X69.2Y-102.15
X70.4Y-86.95
X70.435Y-90.825
X70.475Y-128.675
X72.6Y-88.794
X72.75Y-135.1
X79.2Y-128.45
X79.2Y-135.2
X83.875Y-113.675
X83.925Y-135.025
X84.475Y-126.5
X85.15Y-87.025
X86.05Y-119.4
X86.8Y-125.425
X88.825Y-113.25
X90.2Y-114.525
X93.5Y-101.013
X93.6Y-125.075
X101.15Y-130.55
X101.375Y-136.325
X101.675Y-90.6
X102.025Y-124.75
X106.587Y-90.582
X108.0Y-95.5
X108.675Y-89.05
X111.25Y-94.975
X114.6Y-127.675
X116.125Y-95.15
X155.375Y-136.325
X157.06Y-137.0
X159.106Y-137.0
X166.325Y-84.525
X168.625Y-91.45
X170.559Y-130.059
X171.475Y-86.85
X171.671Y-85.344
X172.675Y-134.25
X174.0Y-132.675
X178.15Y-133.725
X179.8Y-128.175
X185.05Y-91.875
X185.345Y-85.33
X190.875Y-87.3
X191.1Y-85.6
X191.663Y-132.969
X192.886Y-132.71
X193.05Y-136.225
X194.375Y-136.2
X198.675Y-128.1
X200.525Y-132.85
T3
X76.822Y-121.003
X77.925Y-106.8
X111.35Y-131.45
X166.475Y-135.725
X168.825Y-131.4
X175.21Y-85.175
T4
X168.88Y-118.438
X169.88Y-117.438
X170.88Y-118.438
X184.88Y-102.438
X185.88Y-101.438
X186.88Y-102.438
T5
X168.9Y-102.438
X169.9Y-101.438
X170.9Y-102.438
X184.9Y-118.438
X185.9Y-117.438
X186.9Y-118.438
T6
X39.125Y-115.984
X39.125Y-118.016
X39.125Y-120.048
X39.125Y-122.08
X40.905Y-114.968
X40.905Y-117.0
X40.905Y-119.032
X40.905Y-121.064
X45.725Y-111.66
X45.725Y-113.95
X45.725Y-123.09
X45.725Y-125.38
T8
X40.015Y-110.39
X40.015Y-126.65
T9
X55.85Y-110.425
X161.9Y-110.425
T7
X38.3Y-132.8G85X38.3Y-135.0
G05
X40.9Y-138.7G85X43.1Y-138.7
G05
X45.1Y-132.8G85X45.1Y-135.0
G05
M30
