G04 #@! TF.GenerationSoftware,KiCad,Pcbnew,7.0.11+dfsg-1build4*
G04 #@! TF.CreationDate,2026-07-03T21:46:00-05:00*
G04 #@! TF.ProjectId,laser_controller,6c617365-725f-4636-9f6e-74726f6c6c65,rev?*
G04 #@! TF.SameCoordinates,Original*
G04 #@! TF.FileFunction,Legend,Top*
G04 #@! TF.FilePolarity,Positive*
%FSLAX46Y46*%
G04 Gerber Fmt 4.6, Leading zero omitted, Abs format (unit mm)*
G04 Created by KiCad (PCBNEW 7.0.11+dfsg-1build4) date 2026-07-03 21:46:00*
%MOMM*%
%LPD*%
G01*
G04 APERTURE LIST*
%ADD10C,0.150000*%
%ADD11C,0.120000*%
G04 APERTURE END LIST*
D10*
X67113094Y-77334104D02*
X67589284Y-77334104D01*
X67017856Y-77619819D02*
X67351189Y-76619819D01*
X67351189Y-76619819D02*
X67684522Y-77619819D01*
X68017856Y-76953152D02*
X68017856Y-77619819D01*
X68017856Y-77048390D02*
X68065475Y-77000771D01*
X68065475Y-77000771D02*
X68160713Y-76953152D01*
X68160713Y-76953152D02*
X68303570Y-76953152D01*
X68303570Y-76953152D02*
X68398808Y-77000771D01*
X68398808Y-77000771D02*
X68446427Y-77096009D01*
X68446427Y-77096009D02*
X68446427Y-77619819D01*
X68779761Y-76953152D02*
X69160713Y-76953152D01*
X68922618Y-76619819D02*
X68922618Y-77476961D01*
X68922618Y-77476961D02*
X68970237Y-77572200D01*
X68970237Y-77572200D02*
X69065475Y-77619819D01*
X69065475Y-77619819D02*
X69160713Y-77619819D01*
X69874999Y-77572200D02*
X69779761Y-77619819D01*
X69779761Y-77619819D02*
X69589285Y-77619819D01*
X69589285Y-77619819D02*
X69494047Y-77572200D01*
X69494047Y-77572200D02*
X69446428Y-77476961D01*
X69446428Y-77476961D02*
X69446428Y-77096009D01*
X69446428Y-77096009D02*
X69494047Y-77000771D01*
X69494047Y-77000771D02*
X69589285Y-76953152D01*
X69589285Y-76953152D02*
X69779761Y-76953152D01*
X69779761Y-76953152D02*
X69874999Y-77000771D01*
X69874999Y-77000771D02*
X69922618Y-77096009D01*
X69922618Y-77096009D02*
X69922618Y-77191247D01*
X69922618Y-77191247D02*
X69446428Y-77286485D01*
X70351190Y-76953152D02*
X70351190Y-77619819D01*
X70351190Y-77048390D02*
X70398809Y-77000771D01*
X70398809Y-77000771D02*
X70494047Y-76953152D01*
X70494047Y-76953152D02*
X70636904Y-76953152D01*
X70636904Y-76953152D02*
X70732142Y-77000771D01*
X70732142Y-77000771D02*
X70779761Y-77096009D01*
X70779761Y-77096009D02*
X70779761Y-77619819D01*
X71255952Y-76953152D02*
X71255952Y-77619819D01*
X71255952Y-77048390D02*
X71303571Y-77000771D01*
X71303571Y-77000771D02*
X71398809Y-76953152D01*
X71398809Y-76953152D02*
X71541666Y-76953152D01*
X71541666Y-76953152D02*
X71636904Y-77000771D01*
X71636904Y-77000771D02*
X71684523Y-77096009D01*
X71684523Y-77096009D02*
X71684523Y-77619819D01*
X72589285Y-77619819D02*
X72589285Y-77096009D01*
X72589285Y-77096009D02*
X72541666Y-77000771D01*
X72541666Y-77000771D02*
X72446428Y-76953152D01*
X72446428Y-76953152D02*
X72255952Y-76953152D01*
X72255952Y-76953152D02*
X72160714Y-77000771D01*
X72589285Y-77572200D02*
X72494047Y-77619819D01*
X72494047Y-77619819D02*
X72255952Y-77619819D01*
X72255952Y-77619819D02*
X72160714Y-77572200D01*
X72160714Y-77572200D02*
X72113095Y-77476961D01*
X72113095Y-77476961D02*
X72113095Y-77381723D01*
X72113095Y-77381723D02*
X72160714Y-77286485D01*
X72160714Y-77286485D02*
X72255952Y-77238866D01*
X72255952Y-77238866D02*
X72494047Y-77238866D01*
X72494047Y-77238866D02*
X72589285Y-77191247D01*
X73779762Y-77334104D02*
X74255952Y-77334104D01*
X73684524Y-77619819D02*
X74017857Y-76619819D01*
X74017857Y-76619819D02*
X74351190Y-77619819D01*
X74684524Y-77619819D02*
X74684524Y-76953152D01*
X74684524Y-77143628D02*
X74732143Y-77048390D01*
X74732143Y-77048390D02*
X74779762Y-77000771D01*
X74779762Y-77000771D02*
X74875000Y-76953152D01*
X74875000Y-76953152D02*
X74970238Y-76953152D01*
X75684524Y-77572200D02*
X75589286Y-77619819D01*
X75589286Y-77619819D02*
X75398810Y-77619819D01*
X75398810Y-77619819D02*
X75303572Y-77572200D01*
X75303572Y-77572200D02*
X75255953Y-77476961D01*
X75255953Y-77476961D02*
X75255953Y-77096009D01*
X75255953Y-77096009D02*
X75303572Y-77000771D01*
X75303572Y-77000771D02*
X75398810Y-76953152D01*
X75398810Y-76953152D02*
X75589286Y-76953152D01*
X75589286Y-76953152D02*
X75684524Y-77000771D01*
X75684524Y-77000771D02*
X75732143Y-77096009D01*
X75732143Y-77096009D02*
X75732143Y-77191247D01*
X75732143Y-77191247D02*
X75255953Y-77286485D01*
X76589286Y-77619819D02*
X76589286Y-77096009D01*
X76589286Y-77096009D02*
X76541667Y-77000771D01*
X76541667Y-77000771D02*
X76446429Y-76953152D01*
X76446429Y-76953152D02*
X76255953Y-76953152D01*
X76255953Y-76953152D02*
X76160715Y-77000771D01*
X76589286Y-77572200D02*
X76494048Y-77619819D01*
X76494048Y-77619819D02*
X76255953Y-77619819D01*
X76255953Y-77619819D02*
X76160715Y-77572200D01*
X76160715Y-77572200D02*
X76113096Y-77476961D01*
X76113096Y-77476961D02*
X76113096Y-77381723D01*
X76113096Y-77381723D02*
X76160715Y-77286485D01*
X76160715Y-77286485D02*
X76255953Y-77238866D01*
X76255953Y-77238866D02*
X76494048Y-77238866D01*
X76494048Y-77238866D02*
X76589286Y-77191247D01*
D11*
G04 #@! TO.C,RV8*
X137068000Y-130351500D02*
X140808000Y-130351500D01*
X137068000Y-130351500D02*
X137068000Y-129971500D01*
X140808000Y-130351500D02*
X140808000Y-129071500D01*
X137068000Y-128191500D02*
X137068000Y-127471500D01*
X140808000Y-126591500D02*
X140808000Y-125311500D01*
X137068000Y-125691500D02*
X137068000Y-125311500D01*
X137068000Y-125311500D02*
X140808000Y-125311500D01*
G04 #@! TO.C,R15*
X129940276Y-134333500D02*
X130449724Y-134333500D01*
X129940276Y-135378500D02*
X130449724Y-135378500D01*
G04 #@! TO.C,R22*
X192393276Y-83911500D02*
X192902724Y-83911500D01*
X192393276Y-84956500D02*
X192902724Y-84956500D01*
G04 #@! TO.C,C13*
X135010000Y-126516233D02*
X135010000Y-126808767D01*
X133990000Y-126516233D02*
X133990000Y-126808767D01*
G04 #@! TO.C,D14*
X51982500Y-99325000D02*
X51982500Y-98125000D01*
X50022500Y-99325000D02*
X51982500Y-99325000D01*
X50022500Y-98125000D02*
X51982500Y-98125000D01*
G04 #@! TO.C,C67*
X104861252Y-125510000D02*
X104338748Y-125510000D01*
X104861252Y-124040000D02*
X104338748Y-124040000D01*
G04 #@! TO.C,C44*
X62604165Y-128365000D02*
X62835835Y-128365000D01*
X62604165Y-129085000D02*
X62835835Y-129085000D01*
G04 #@! TO.C,C26*
X173990000Y-86373335D02*
X173990000Y-86141665D01*
X174710000Y-86373335D02*
X174710000Y-86141665D01*
G04 #@! TO.C,C55*
X95615835Y-90510000D02*
X95384165Y-90510000D01*
X95615835Y-89790000D02*
X95384165Y-89790000D01*
G04 #@! TO.C,R25*
X188090500Y-86973276D02*
X188090500Y-87482724D01*
X187045500Y-86973276D02*
X187045500Y-87482724D01*
G04 #@! TO.C,C56*
X113358748Y-94490000D02*
X113881252Y-94490000D01*
X113358748Y-95960000D02*
X113881252Y-95960000D01*
G04 #@! TO.C,C49*
X106242500Y-106810835D02*
X106242500Y-106579165D01*
X106962500Y-106810835D02*
X106962500Y-106579165D01*
G04 #@! TO.C,J1*
X35925000Y-83815000D02*
X38525000Y-83815000D01*
X33025000Y-83815000D02*
X31365000Y-83815000D01*
X31365000Y-83815000D02*
X31365000Y-91735000D01*
X40835000Y-84575000D02*
X40835000Y-85725000D01*
X41425000Y-85725000D02*
X41425000Y-86425000D01*
X40835000Y-85725000D02*
X41425000Y-85725000D01*
X40835000Y-89825000D02*
X40835000Y-90975000D01*
X38525000Y-91735000D02*
X35925000Y-91735000D01*
X31365000Y-91735000D02*
X33025000Y-91735000D01*
G04 #@! TO.C,C23*
X193546165Y-134843000D02*
X193777835Y-134843000D01*
X193546165Y-135563000D02*
X193777835Y-135563000D01*
G04 #@! TO.C,D10*
X47485000Y-85950000D02*
X47485000Y-83950000D01*
X47485000Y-85950000D02*
X43475000Y-85950000D01*
X47485000Y-83950000D02*
X43475000Y-83950000D01*
G04 #@! TO.C,C43*
X60094200Y-82336635D02*
X60094200Y-82104965D01*
X60814200Y-82336635D02*
X60814200Y-82104965D01*
G04 #@! TO.C,D12*
X44575000Y-103610000D02*
X45775000Y-103610000D01*
X44575000Y-101650000D02*
X44575000Y-103610000D01*
X45775000Y-101650000D02*
X45775000Y-103610000D01*
G04 #@! TO.C,U2*
X125820000Y-108025000D02*
X125820000Y-106075000D01*
X125820000Y-108025000D02*
X125820000Y-109975000D01*
X120700000Y-108025000D02*
X120700000Y-106075000D01*
X120700000Y-108025000D02*
X120700000Y-109975000D01*
X126055000Y-105565000D02*
X125725000Y-105325000D01*
X126055000Y-105085000D01*
X126055000Y-105565000D01*
G36*
X126055000Y-105565000D02*
G01*
X125725000Y-105325000D01*
X126055000Y-105085000D01*
X126055000Y-105565000D01*
G37*
G04 #@! TO.C,R49*
X69179724Y-106747500D02*
X68670276Y-106747500D01*
X69179724Y-105702500D02*
X68670276Y-105702500D01*
G04 #@! TO.C,R24*
X194413500Y-92308724D02*
X194413500Y-91799276D01*
X195458500Y-92308724D02*
X195458500Y-91799276D01*
G04 #@! TO.C,R12*
X154497500Y-134957776D02*
X154497500Y-135467224D01*
X153452500Y-134957776D02*
X153452500Y-135467224D01*
G04 #@! TO.C,C8*
X122582500Y-101688752D02*
X122582500Y-101166248D01*
X124052500Y-101688752D02*
X124052500Y-101166248D01*
G04 #@! TO.C,C39*
X65451665Y-117715000D02*
X65683335Y-117715000D01*
X65451665Y-118435000D02*
X65683335Y-118435000D01*
G04 #@! TO.C,D6*
X93802500Y-114050000D02*
X93802500Y-117350000D01*
X93802500Y-114050000D02*
X99312500Y-114050000D01*
X93802500Y-117350000D02*
X99312500Y-117350000D01*
G04 #@! TO.C,C62*
X50060000Y-136138748D02*
X50060000Y-137561252D01*
X48240000Y-136138748D02*
X48240000Y-137561252D01*
G04 #@! TO.C,R28*
X191760936Y-126459500D02*
X196115064Y-126459500D01*
X191760936Y-129879500D02*
X196115064Y-129879500D01*
G04 #@! TO.C,C53*
X112734165Y-98065000D02*
X112965835Y-98065000D01*
X112734165Y-98785000D02*
X112965835Y-98785000D01*
G04 #@! TO.C,R21*
X179709500Y-132458776D02*
X179709500Y-132968224D01*
X178664500Y-132458776D02*
X178664500Y-132968224D01*
G04 #@! TO.C,LD1*
X169380000Y-120837500D02*
X170280000Y-120837500D01*
X169380000Y-121237500D02*
X169380000Y-120837500D01*
X170280000Y-120837500D02*
X170280000Y-121237500D01*
X172730000Y-118437500D02*
G75*
G03*
X167030000Y-118437500I-2850000J0D01*
G01*
X167030000Y-118437500D02*
G75*
G03*
X172730000Y-118437500I2850000J0D01*
G01*
G04 #@! TO.C,C63*
X82385000Y-116059165D02*
X82385000Y-116290835D01*
X81665000Y-116059165D02*
X81665000Y-116290835D01*
G04 #@! TO.C,U4*
X136925000Y-131695000D02*
X134975000Y-131695000D01*
X136925000Y-131695000D02*
X138875000Y-131695000D01*
X136925000Y-136815000D02*
X134975000Y-136815000D01*
X136925000Y-136815000D02*
X138875000Y-136815000D01*
X134225000Y-131790000D02*
X133985000Y-131460000D01*
X134465000Y-131460000D01*
X134225000Y-131790000D01*
G36*
X134225000Y-131790000D02*
G01*
X133985000Y-131460000D01*
X134465000Y-131460000D01*
X134225000Y-131790000D01*
G37*
G04 #@! TO.C,D8*
X42375000Y-89285000D02*
X43575000Y-89285000D01*
X42375000Y-87325000D02*
X42375000Y-89285000D01*
X43575000Y-87325000D02*
X43575000Y-89285000D01*
G04 #@! TO.C,U13*
X75360000Y-108237500D02*
X75360000Y-107587500D01*
X75360000Y-108237500D02*
X75360000Y-108887500D01*
X72240000Y-108237500D02*
X72240000Y-107587500D01*
X72240000Y-108237500D02*
X72240000Y-108887500D01*
X75640000Y-107315000D02*
X75310000Y-107075000D01*
X75640000Y-106835000D01*
X75640000Y-107315000D01*
G36*
X75640000Y-107315000D02*
G01*
X75310000Y-107075000D01*
X75640000Y-106835000D01*
X75640000Y-107315000D01*
G37*
G04 #@! TO.C,Q1*
X168163000Y-132459500D02*
X168163000Y-133109500D01*
X168163000Y-132459500D02*
X168163000Y-131809500D01*
X171283000Y-132459500D02*
X171283000Y-133109500D01*
X171283000Y-132459500D02*
X171283000Y-131809500D01*
X168213000Y-133622000D02*
X167883000Y-133862000D01*
X167883000Y-133382000D01*
X168213000Y-133622000D01*
G36*
X168213000Y-133622000D02*
G01*
X167883000Y-133862000D01*
X167883000Y-133382000D01*
X168213000Y-133622000D01*
G37*
G04 #@! TO.C,C5*
X124580267Y-113772000D02*
X124287733Y-113772000D01*
X124580267Y-112752000D02*
X124287733Y-112752000D01*
G04 #@! TO.C,C59*
X94906252Y-98160000D02*
X94383748Y-98160000D01*
X94906252Y-96690000D02*
X94383748Y-96690000D01*
G04 #@! TO.C,C46*
X66365835Y-129110000D02*
X66134165Y-129110000D01*
X66365835Y-128390000D02*
X66134165Y-128390000D01*
G04 #@! TO.C,C22*
X188437733Y-83924000D02*
X188730267Y-83924000D01*
X188437733Y-84944000D02*
X188730267Y-84944000D01*
G04 #@! TO.C,C47*
X57540000Y-83173752D02*
X57540000Y-82651248D01*
X59010000Y-83173752D02*
X59010000Y-82651248D01*
G04 #@! TO.C,R48*
X73382776Y-110652500D02*
X73892224Y-110652500D01*
X73382776Y-111697500D02*
X73892224Y-111697500D01*
G04 #@! TO.C,C15*
X130715335Y-127522000D02*
X130483665Y-127522000D01*
X130715335Y-126802000D02*
X130483665Y-126802000D01*
G04 #@! TO.C,U3*
X156500000Y-128750000D02*
X156500000Y-130700000D01*
X156500000Y-128750000D02*
X156500000Y-126800000D01*
X161620000Y-128750000D02*
X161620000Y-130700000D01*
X161620000Y-128750000D02*
X161620000Y-126800000D01*
X156595000Y-131450000D02*
X156265000Y-131690000D01*
X156265000Y-131210000D01*
X156595000Y-131450000D01*
G36*
X156595000Y-131450000D02*
G01*
X156265000Y-131690000D01*
X156265000Y-131210000D01*
X156595000Y-131450000D01*
G37*
G04 #@! TO.C,R16*
X130346224Y-129462500D02*
X129836776Y-129462500D01*
X130346224Y-128417500D02*
X129836776Y-128417500D01*
G04 #@! TO.C,C4*
X138669752Y-89095000D02*
X138147248Y-89095000D01*
X138669752Y-87625000D02*
X138147248Y-87625000D01*
G04 #@! TO.C,J2*
X35950000Y-97615000D02*
X38550000Y-97615000D01*
X33050000Y-97615000D02*
X31390000Y-97615000D01*
X31390000Y-97615000D02*
X31390000Y-105535000D01*
X40860000Y-98375000D02*
X40860000Y-99525000D01*
X41450000Y-99525000D02*
X41450000Y-100225000D01*
X40860000Y-99525000D02*
X41450000Y-99525000D01*
X40860000Y-103625000D02*
X40860000Y-104775000D01*
X38550000Y-105535000D02*
X35950000Y-105535000D01*
X31390000Y-105535000D02*
X33050000Y-105535000D01*
G04 #@! TO.C,C17*
X169152835Y-130381000D02*
X168921165Y-130381000D01*
X169152835Y-129661000D02*
X168921165Y-129661000D01*
G04 #@! TO.C,Q6*
X45780000Y-94378000D02*
X45130000Y-94378000D01*
X45780000Y-94378000D02*
X46430000Y-94378000D01*
X45780000Y-97498000D02*
X45130000Y-97498000D01*
X45780000Y-97498000D02*
X46430000Y-97498000D01*
X44617500Y-94428000D02*
X44377500Y-94098000D01*
X44857500Y-94098000D01*
X44617500Y-94428000D01*
G36*
X44617500Y-94428000D02*
G01*
X44377500Y-94098000D01*
X44857500Y-94098000D01*
X44617500Y-94428000D01*
G37*
G04 #@! TO.C,C68*
X104761252Y-128410000D02*
X104238748Y-128410000D01*
X104761252Y-126940000D02*
X104238748Y-126940000D01*
G04 #@! TO.C,R11*
X160586000Y-135244724D02*
X160586000Y-134735276D01*
X161631000Y-135244724D02*
X161631000Y-134735276D01*
G04 #@! TO.C,L2*
X106150000Y-136925000D02*
X106150000Y-131825000D01*
X112250000Y-136925000D02*
X112250000Y-131825000D01*
G04 #@! TO.C,C37*
X63101665Y-104040000D02*
X63333335Y-104040000D01*
X63101665Y-104760000D02*
X63333335Y-104760000D01*
G04 #@! TO.C,C61*
X51310000Y-118363748D02*
X51310000Y-119786252D01*
X49490000Y-118363748D02*
X49490000Y-119786252D01*
G04 #@! TO.C,U16*
X104997500Y-135025000D02*
X104997500Y-134225000D01*
X104997500Y-135025000D02*
X104997500Y-135825000D01*
X101877500Y-135025000D02*
X101877500Y-134225000D01*
X101877500Y-135025000D02*
X101877500Y-135825000D01*
X105277500Y-133965000D02*
X104947500Y-133725000D01*
X105277500Y-133485000D01*
X105277500Y-133965000D01*
G36*
X105277500Y-133965000D02*
G01*
X104947500Y-133725000D01*
X105277500Y-133485000D01*
X105277500Y-133965000D01*
G37*
G04 #@! TO.C,D7*
X44100000Y-89285000D02*
X45300000Y-89285000D01*
X44100000Y-87325000D02*
X44100000Y-89285000D01*
X45300000Y-87325000D02*
X45300000Y-89285000D01*
G04 #@! TO.C,C34*
X112467500Y-108131252D02*
X112467500Y-107608748D01*
X113937500Y-108131252D02*
X113937500Y-107608748D01*
G04 #@! TO.C,R43*
X62992224Y-106597500D02*
X62482776Y-106597500D01*
X62992224Y-105552500D02*
X62482776Y-105552500D01*
G04 #@! TO.C,R62*
X101720000Y-131315121D02*
X101720000Y-130979879D01*
X102480000Y-131315121D02*
X102480000Y-130979879D01*
G04 #@! TO.C,L1*
X84725000Y-107025000D02*
X90175000Y-107025000D01*
X84725000Y-108425000D02*
X84725000Y-107025000D01*
X84725000Y-112825000D02*
X84725000Y-111425000D01*
X90175000Y-107025000D02*
X90175000Y-108425000D01*
X90175000Y-111425000D02*
X90175000Y-112825000D01*
X90175000Y-112825000D02*
X84725000Y-112825000D01*
G04 #@! TO.C,C48*
X113269165Y-104685000D02*
X113500835Y-104685000D01*
X113269165Y-105405000D02*
X113500835Y-105405000D01*
G04 #@! TO.C,C6*
X128560000Y-102134165D02*
X128560000Y-102365835D01*
X127840000Y-102134165D02*
X127840000Y-102365835D01*
G04 #@! TO.C,C9*
X153011500Y-129261767D02*
X153011500Y-128969233D01*
X154031500Y-129261767D02*
X154031500Y-128969233D01*
G04 #@! TO.C,C36*
X76672500Y-107289165D02*
X76672500Y-107520835D01*
X75952500Y-107289165D02*
X75952500Y-107520835D01*
G04 #@! TO.C,RV4*
X121405000Y-131230000D02*
X121405000Y-134970000D01*
X121405000Y-131230000D02*
X121785000Y-131230000D01*
X121405000Y-134970000D02*
X122685000Y-134970000D01*
X123565000Y-131230000D02*
X124285000Y-131230000D01*
X125165000Y-134970000D02*
X126445000Y-134970000D01*
X126065000Y-131230000D02*
X126445000Y-131230000D01*
X126445000Y-131230000D02*
X126445000Y-134970000D01*
G04 #@! TO.C,R42*
X68122500Y-115132776D02*
X68122500Y-115642224D01*
X67077500Y-115132776D02*
X67077500Y-115642224D01*
G04 #@! TO.C,U14*
X109092500Y-99835000D02*
X109092500Y-98885000D01*
X109092500Y-89615000D02*
X109092500Y-90565000D01*
X108142500Y-99835000D02*
X109092500Y-99835000D01*
X108142500Y-89615000D02*
X109092500Y-89615000D01*
X99822500Y-99835000D02*
X98872500Y-99835000D01*
X99822500Y-89615000D02*
X98872500Y-89615000D01*
X98872500Y-99835000D02*
X98872500Y-98885000D01*
X98872500Y-89615000D02*
X98872500Y-90565000D01*
X110047500Y-99355000D02*
X109367500Y-99355000D01*
X109707500Y-98885000D01*
X110047500Y-99355000D01*
G36*
X110047500Y-99355000D02*
G01*
X109367500Y-99355000D01*
X109707500Y-98885000D01*
X110047500Y-99355000D01*
G37*
G04 #@! TO.C,RV7*
X151581500Y-125479000D02*
X147841500Y-125479000D01*
X151581500Y-125479000D02*
X151581500Y-125859000D01*
X147841500Y-125479000D02*
X147841500Y-126759000D01*
X151581500Y-127639000D02*
X151581500Y-128359000D01*
X147841500Y-129239000D02*
X147841500Y-130519000D01*
X151581500Y-130139000D02*
X151581500Y-130519000D01*
X151581500Y-130519000D02*
X147841500Y-130519000D01*
G04 #@! TO.C,U10*
X51990000Y-92210000D02*
X51505000Y-92210000D01*
X56485000Y-92210000D02*
X55760000Y-92210000D01*
X51265000Y-91485000D02*
X51265000Y-91910000D01*
X56485000Y-91485000D02*
X56485000Y-92210000D01*
X51265000Y-87715000D02*
X51265000Y-86990000D01*
X56485000Y-87715000D02*
X56485000Y-86990000D01*
X51265000Y-86990000D02*
X51990000Y-86990000D01*
X56485000Y-86990000D02*
X55760000Y-86990000D01*
X51265000Y-92210000D02*
X50935000Y-92450000D01*
X50935000Y-91970000D01*
X51265000Y-92210000D01*
G36*
X51265000Y-92210000D02*
G01*
X50935000Y-92450000D01*
X50935000Y-91970000D01*
X51265000Y-92210000D01*
G37*
G04 #@! TO.C,U8*
X171546000Y-85289000D02*
X170746000Y-85289000D01*
X171546000Y-85289000D02*
X172346000Y-85289000D01*
X171546000Y-88409000D02*
X170746000Y-88409000D01*
X171546000Y-88409000D02*
X172346000Y-88409000D01*
X170246000Y-85339000D02*
X170006000Y-85009000D01*
X170486000Y-85009000D01*
X170246000Y-85339000D01*
G36*
X170246000Y-85339000D02*
G01*
X170006000Y-85009000D01*
X170486000Y-85009000D01*
X170246000Y-85339000D01*
G37*
G04 #@! TO.C,C7*
X126590000Y-102365835D02*
X126590000Y-102134165D01*
X127310000Y-102365835D02*
X127310000Y-102134165D01*
G04 #@! TO.C,R60*
X71915121Y-101805000D02*
X71579879Y-101805000D01*
X71915121Y-101045000D02*
X71579879Y-101045000D01*
G04 #@! TO.C,Q4*
X178535000Y-87250000D02*
X178535000Y-86600000D01*
X178535000Y-87250000D02*
X178535000Y-87900000D01*
X175415000Y-87250000D02*
X175415000Y-86600000D01*
X175415000Y-87250000D02*
X175415000Y-87900000D01*
X178815000Y-86327500D02*
X178485000Y-86087500D01*
X178815000Y-85847500D01*
X178815000Y-86327500D01*
G36*
X178815000Y-86327500D02*
G01*
X178485000Y-86087500D01*
X178815000Y-85847500D01*
X178815000Y-86327500D01*
G37*
G04 #@! TO.C,RV1*
X130860500Y-86746000D02*
X130860500Y-90486000D01*
X130860500Y-86746000D02*
X131240500Y-86746000D01*
X130860500Y-90486000D02*
X132140500Y-90486000D01*
X133020500Y-86746000D02*
X133740500Y-86746000D01*
X134620500Y-90486000D02*
X135900500Y-90486000D01*
X135520500Y-86746000D02*
X135900500Y-86746000D01*
X135900500Y-86746000D02*
X135900500Y-90486000D01*
G04 #@! TO.C,C40*
X68329165Y-104065000D02*
X68560835Y-104065000D01*
X68329165Y-104785000D02*
X68560835Y-104785000D01*
G04 #@! TO.C,D4*
X134975000Y-116317500D02*
X134975000Y-120557500D01*
X134975000Y-120557500D02*
X139400000Y-120557500D01*
X139400000Y-116317500D02*
X134975000Y-116317500D01*
G04 #@! TO.C,R29*
X189124500Y-127660776D02*
X189124500Y-128170224D01*
X188079500Y-127660776D02*
X188079500Y-128170224D01*
G04 #@! TO.C,D2*
X135000000Y-100317500D02*
X135000000Y-104557500D01*
X135000000Y-104557500D02*
X139425000Y-104557500D01*
X139425000Y-100317500D02*
X135000000Y-100317500D01*
G04 #@! TO.C,C1*
X150580000Y-86997733D02*
X150580000Y-87290267D01*
X149560000Y-86997733D02*
X149560000Y-87290267D01*
G04 #@! TO.C,R51*
X45070121Y-93530000D02*
X44734879Y-93530000D01*
X45070121Y-92770000D02*
X44734879Y-92770000D01*
G04 #@! TO.C,D9*
X46015000Y-86950000D02*
X46015000Y-88150000D01*
X47975000Y-86950000D02*
X46015000Y-86950000D01*
X47975000Y-88150000D02*
X46015000Y-88150000D01*
G04 #@! TO.C,C10*
X154840835Y-132760000D02*
X154609165Y-132760000D01*
X154840835Y-132040000D02*
X154609165Y-132040000D01*
G04 #@! TO.C,R47*
X68779724Y-118897500D02*
X68270276Y-118897500D01*
X68779724Y-117852500D02*
X68270276Y-117852500D01*
G04 #@! TO.C,R30*
X195066900Y-132672024D02*
X195066900Y-132162576D01*
X196111900Y-132672024D02*
X196111900Y-132162576D01*
G04 #@! TO.C,RV5*
X151489300Y-90973800D02*
X155229300Y-90973800D01*
X151489300Y-90973800D02*
X151489300Y-90593800D01*
X155229300Y-90973800D02*
X155229300Y-89693800D01*
X151489300Y-88813800D02*
X151489300Y-88093800D01*
X155229300Y-87213800D02*
X155229300Y-85933800D01*
X151489300Y-86313800D02*
X151489300Y-85933800D01*
X151489300Y-85933800D02*
X155229300Y-85933800D01*
G04 #@! TO.C,LD4*
X169400000Y-104637500D02*
X170400000Y-104637500D01*
X169400000Y-105287500D02*
X169400000Y-104637500D01*
X170400000Y-104637500D02*
X170400000Y-105287500D01*
X172800000Y-102437500D02*
G75*
G03*
X167000000Y-102437500I-2900000J0D01*
G01*
X167000000Y-102437500D02*
G75*
G03*
X172800000Y-102437500I2900000J0D01*
G01*
G04 #@! TO.C,C64*
X90790000Y-115823752D02*
X90790000Y-115301248D01*
X92260000Y-115823752D02*
X92260000Y-115301248D01*
G04 #@! TO.C,C52*
X95630835Y-93185000D02*
X95399165Y-93185000D01*
X95630835Y-92465000D02*
X95399165Y-92465000D01*
G04 #@! TO.C,U15*
X85025000Y-117185000D02*
X85825000Y-117185000D01*
X85025000Y-117185000D02*
X84225000Y-117185000D01*
X85025000Y-114065000D02*
X85825000Y-114065000D01*
X85025000Y-114065000D02*
X84225000Y-114065000D01*
X86565000Y-117465000D02*
X86085000Y-117465000D01*
X86325000Y-117135000D01*
X86565000Y-117465000D01*
G36*
X86565000Y-117465000D02*
G01*
X86085000Y-117465000D01*
X86325000Y-117135000D01*
X86565000Y-117465000D01*
G37*
G04 #@! TO.C,C60*
X94843752Y-100560000D02*
X94321248Y-100560000D01*
X94843752Y-99090000D02*
X94321248Y-99090000D01*
G04 #@! TO.C,R18*
X173133936Y-126431500D02*
X177488064Y-126431500D01*
X173133936Y-129851500D02*
X177488064Y-129851500D01*
G04 #@! TO.C,C21*
X183652000Y-87851835D02*
X183652000Y-87620165D01*
X184372000Y-87851835D02*
X184372000Y-87620165D01*
G04 #@! TO.C,C11*
X155885000Y-134434165D02*
X155885000Y-134665835D01*
X155165000Y-134434165D02*
X155165000Y-134665835D01*
G04 #@! TO.C,C3*
X142264665Y-83856000D02*
X142496335Y-83856000D01*
X142264665Y-84576000D02*
X142496335Y-84576000D01*
G04 #@! TO.C,Q3*
X186790000Y-132487500D02*
X186790000Y-133137500D01*
X186790000Y-132487500D02*
X186790000Y-131837500D01*
X189910000Y-132487500D02*
X189910000Y-133137500D01*
X189910000Y-132487500D02*
X189910000Y-131837500D01*
X186840000Y-133650000D02*
X186510000Y-133890000D01*
X186510000Y-133410000D01*
X186840000Y-133650000D01*
G36*
X186840000Y-133650000D02*
G01*
X186510000Y-133890000D01*
X186510000Y-133410000D01*
X186840000Y-133650000D01*
G37*
G04 #@! TO.C,R33*
X172377064Y-93085000D02*
X168022936Y-93085000D01*
X172377064Y-89665000D02*
X168022936Y-89665000D01*
G04 #@! TO.C,C38*
X63234165Y-115890000D02*
X63465835Y-115890000D01*
X63234165Y-116610000D02*
X63465835Y-116610000D01*
G04 #@! TO.C,R6*
X125872000Y-101426776D02*
X125872000Y-101936224D01*
X124827000Y-101426776D02*
X124827000Y-101936224D01*
G04 #@! TO.C,C41*
X49763748Y-100315000D02*
X50286252Y-100315000D01*
X49763748Y-101785000D02*
X50286252Y-101785000D01*
G04 #@! TO.C,R46*
X73395276Y-112577500D02*
X73904724Y-112577500D01*
X73395276Y-113622500D02*
X73904724Y-113622500D01*
G04 #@! TO.C,C16*
X130270352Y-133587700D02*
X129747848Y-133587700D01*
X130270352Y-132117700D02*
X129747848Y-132117700D01*
G04 #@! TO.C,R23*
X191777064Y-93510000D02*
X187422936Y-93510000D01*
X191777064Y-90090000D02*
X187422936Y-90090000D01*
G04 #@! TO.C,R19*
X169452500Y-128142224D02*
X169452500Y-127632776D01*
X170497500Y-128142224D02*
X170497500Y-127632776D01*
G04 #@! TO.C,R56*
X58464724Y-94472500D02*
X57955276Y-94472500D01*
X58464724Y-93427500D02*
X57955276Y-93427500D01*
G04 #@! TO.C,R14*
X129836776Y-130195500D02*
X130346224Y-130195500D01*
X129836776Y-131240500D02*
X130346224Y-131240500D01*
G04 #@! TO.C,R17*
X172517724Y-136030000D02*
X172008276Y-136030000D01*
X172517724Y-134985000D02*
X172008276Y-134985000D01*
G04 #@! TO.C,C25*
X196573267Y-135727000D02*
X196280733Y-135727000D01*
X196573267Y-134707000D02*
X196280733Y-134707000D01*
G04 #@! TO.C,R61*
X104954724Y-130622500D02*
X104445276Y-130622500D01*
X104954724Y-129577500D02*
X104445276Y-129577500D01*
G04 #@! TO.C,C12*
X159737500Y-135086248D02*
X159737500Y-135608752D01*
X158267500Y-135086248D02*
X158267500Y-135608752D01*
G04 #@! TO.C,LD2*
X185380000Y-104837500D02*
X186280000Y-104837500D01*
X185380000Y-105237500D02*
X185380000Y-104837500D01*
X186280000Y-104837500D02*
X186280000Y-105237500D01*
X188730000Y-102437500D02*
G75*
G03*
X183030000Y-102437500I-2850000J0D01*
G01*
X183030000Y-102437500D02*
G75*
G03*
X188730000Y-102437500I2850000J0D01*
G01*
G04 #@! TO.C,J5*
X31200000Y-129300000D02*
X45900000Y-129300000D01*
X31200000Y-138500000D02*
X31200000Y-129300000D01*
X40000000Y-138500000D02*
X31200000Y-138500000D01*
X45050000Y-129100000D02*
X46100000Y-129100000D01*
X45900000Y-129300000D02*
X45900000Y-131900000D01*
X45900000Y-135800000D02*
X45900000Y-138500000D01*
X45900000Y-138500000D02*
X44000000Y-138500000D01*
X46100000Y-130150000D02*
X46100000Y-129100000D01*
G04 #@! TO.C,D5*
X93777500Y-109925000D02*
X93777500Y-113225000D01*
X93777500Y-109925000D02*
X99287500Y-109925000D01*
X93777500Y-113225000D02*
X99287500Y-113225000D01*
G04 #@! TO.C,R44*
X66047500Y-115200276D02*
X66047500Y-115709724D01*
X65002500Y-115200276D02*
X65002500Y-115709724D01*
G04 #@! TO.C,C54*
X112734165Y-96765000D02*
X112965835Y-96765000D01*
X112734165Y-97485000D02*
X112965835Y-97485000D01*
G04 #@! TO.C,R2*
X138407776Y-85805500D02*
X138917224Y-85805500D01*
X138407776Y-86850500D02*
X138917224Y-86850500D01*
G04 #@! TO.C,C14*
X141734165Y-133290000D02*
X141965835Y-133290000D01*
X141734165Y-134010000D02*
X141965835Y-134010000D01*
G04 #@! TO.C,RV6*
X120729500Y-115299000D02*
X120729500Y-119039000D01*
X120729500Y-115299000D02*
X121109500Y-115299000D01*
X120729500Y-119039000D02*
X122009500Y-119039000D01*
X122889500Y-115299000D02*
X123609500Y-115299000D01*
X124489500Y-119039000D02*
X125769500Y-119039000D01*
X125389500Y-115299000D02*
X125769500Y-115299000D01*
X125769500Y-115299000D02*
X125769500Y-119039000D01*
G04 #@! TO.C,R32*
X172993276Y-83486500D02*
X173502724Y-83486500D01*
X172993276Y-84531500D02*
X173502724Y-84531500D01*
G04 #@! TO.C,C28*
X169037733Y-83499000D02*
X169330267Y-83499000D01*
X169037733Y-84519000D02*
X169330267Y-84519000D01*
G04 #@! TO.C,C65*
X88090000Y-115836252D02*
X88090000Y-115313748D01*
X89560000Y-115836252D02*
X89560000Y-115313748D01*
G04 #@! TO.C,R34*
X175013500Y-91883724D02*
X175013500Y-91374276D01*
X176058500Y-91883724D02*
X176058500Y-91374276D01*
G04 #@! TO.C,U9*
X62875000Y-74165000D02*
X62875000Y-80915000D01*
X62875000Y-74165000D02*
X80875000Y-74165000D01*
X62875000Y-98915000D02*
X62875000Y-99665000D01*
X62875000Y-99665000D02*
X63875000Y-99665000D01*
X80875000Y-74165000D02*
X80875000Y-80915000D01*
X80875000Y-80105000D02*
X62875000Y-80105000D01*
X80875000Y-98915000D02*
X80875000Y-99665000D01*
X80875000Y-99665000D02*
X79875000Y-99665000D01*
G04 #@! TO.C,R59*
X74515121Y-101830000D02*
X74179879Y-101830000D01*
X74515121Y-101070000D02*
X74179879Y-101070000D01*
G04 #@! TO.C,R64*
X50322500Y-126295276D02*
X50322500Y-126804724D01*
X49277500Y-126295276D02*
X49277500Y-126804724D01*
G04 #@! TO.C,C35*
X61240000Y-109633335D02*
X61240000Y-109401665D01*
X61960000Y-109633335D02*
X61960000Y-109401665D01*
G04 #@! TO.C,R50*
X47659879Y-92795000D02*
X47995121Y-92795000D01*
X47659879Y-93555000D02*
X47995121Y-93555000D01*
G04 #@! TO.C,R58*
X57970000Y-88815121D02*
X57970000Y-88479879D01*
X58730000Y-88815121D02*
X58730000Y-88479879D01*
G04 #@! TO.C,R3*
X138511276Y-89943500D02*
X139020724Y-89943500D01*
X138511276Y-90988500D02*
X139020724Y-90988500D01*
G04 #@! TO.C,C27*
X164252000Y-87426835D02*
X164252000Y-87195165D01*
X164972000Y-87426835D02*
X164972000Y-87195165D01*
G04 #@! TO.C,D13*
X48542000Y-99865000D02*
X48542000Y-97865000D01*
X48542000Y-99865000D02*
X44532000Y-99865000D01*
X48542000Y-97865000D02*
X44532000Y-97865000D01*
G04 #@! TO.C,C50*
X109541248Y-108560000D02*
X110063752Y-108560000D01*
X109541248Y-110030000D02*
X110063752Y-110030000D01*
G04 #@! TO.C,R54*
X60079879Y-128370000D02*
X60415121Y-128370000D01*
X60079879Y-129130000D02*
X60415121Y-129130000D01*
G04 #@! TO.C,R41*
X68977500Y-115642224D02*
X68977500Y-115132776D01*
X70022500Y-115642224D02*
X70022500Y-115132776D01*
G04 #@! TO.C,C58*
X95530835Y-95785000D02*
X95299165Y-95785000D01*
X95530835Y-95065000D02*
X95299165Y-95065000D01*
G04 #@! TO.C,C2*
X148929000Y-90125835D02*
X148929000Y-89894165D01*
X149649000Y-90125835D02*
X149649000Y-89894165D01*
G04 #@! TO.C,R8*
X129177500Y-101854724D02*
X129177500Y-101345276D01*
X130222500Y-101854724D02*
X130222500Y-101345276D01*
G04 #@! TO.C,D11*
X42775000Y-103610000D02*
X43975000Y-103610000D01*
X42775000Y-101650000D02*
X42775000Y-103610000D01*
X43975000Y-101650000D02*
X43975000Y-103610000D01*
G04 #@! TO.C,R7*
X121734000Y-101530276D02*
X121734000Y-102039724D01*
X120689000Y-101530276D02*
X120689000Y-102039724D01*
G04 #@! TO.C,D3*
X150975000Y-116317500D02*
X150975000Y-120557500D01*
X150975000Y-120557500D02*
X155400000Y-120557500D01*
X155400000Y-116317500D02*
X150975000Y-116317500D01*
G04 #@! TO.C,R20*
X176439900Y-132644024D02*
X176439900Y-132134576D01*
X177484900Y-132644024D02*
X177484900Y-132134576D01*
G04 #@! TO.C,Q2*
X197835000Y-87537500D02*
X197835000Y-86887500D01*
X197835000Y-87537500D02*
X197835000Y-88187500D01*
X194715000Y-87537500D02*
X194715000Y-86887500D01*
X194715000Y-87537500D02*
X194715000Y-88187500D01*
X198115000Y-86615000D02*
X197785000Y-86375000D01*
X198115000Y-86135000D01*
X198115000Y-86615000D01*
G36*
X198115000Y-86615000D02*
G01*
X197785000Y-86375000D01*
X198115000Y-86135000D01*
X198115000Y-86615000D01*
G37*
G04 #@! TO.C,LD3*
X185400000Y-120637500D02*
X186400000Y-120637500D01*
X185400000Y-121287500D02*
X185400000Y-120637500D01*
X186400000Y-120637500D02*
X186400000Y-121287500D01*
X188800000Y-118437500D02*
G75*
G03*
X183000000Y-118437500I-2900000J0D01*
G01*
X183000000Y-118437500D02*
G75*
G03*
X188800000Y-118437500I2900000J0D01*
G01*
G04 #@! TO.C,SW3*
X78272500Y-129695000D02*
X84732500Y-129695000D01*
X78272500Y-129725000D02*
X78272500Y-129695000D01*
X78272500Y-131625000D02*
X78272500Y-134225000D01*
X78272500Y-136155000D02*
X78272500Y-136125000D01*
X78272500Y-136155000D02*
X84732500Y-136155000D01*
X84732500Y-129695000D02*
X84732500Y-129725000D01*
X84732500Y-131625000D02*
X84732500Y-134225000D01*
X84732500Y-136155000D02*
X84732500Y-136125000D01*
G04 #@! TO.C,C45*
X58600000Y-91114165D02*
X58600000Y-91345835D01*
X57880000Y-91114165D02*
X57880000Y-91345835D01*
G04 #@! TO.C,C66*
X103934165Y-137515000D02*
X104165835Y-137515000D01*
X103934165Y-138235000D02*
X104165835Y-138235000D01*
G04 #@! TO.C,D1*
X150975000Y-100317500D02*
X150975000Y-104557500D01*
X150975000Y-104557500D02*
X155400000Y-104557500D01*
X155400000Y-100317500D02*
X150975000Y-100317500D01*
G04 #@! TO.C,C18*
X181259000Y-132089665D02*
X181259000Y-132321335D01*
X180539000Y-132089665D02*
X180539000Y-132321335D01*
G04 #@! TO.C,C70*
X92429437Y-135235000D02*
X94315000Y-135235000D01*
X92429437Y-135235000D02*
X91365000Y-134170563D01*
X98820563Y-135235000D02*
X96935000Y-135235000D01*
X98820563Y-135235000D02*
X99885000Y-134170563D01*
X91365000Y-134170563D02*
X91365000Y-126715000D01*
X99885000Y-134170563D02*
X99885000Y-126715000D01*
X91365000Y-126715000D02*
X94315000Y-126715000D01*
X99885000Y-126715000D02*
X96935000Y-126715000D01*
G04 #@! TO.C,C42*
X45886252Y-83260000D02*
X45363748Y-83260000D01*
X45886252Y-81790000D02*
X45363748Y-81790000D01*
G04 #@! TO.C,R63*
X49402500Y-110242224D02*
X49402500Y-109732776D01*
X50447500Y-110242224D02*
X50447500Y-109732776D01*
G04 #@! TO.C,RV2*
X127395000Y-93805000D02*
X123655000Y-93805000D01*
X127395000Y-93805000D02*
X127395000Y-94185000D01*
X123655000Y-93805000D02*
X123655000Y-95085000D01*
X127395000Y-95965000D02*
X127395000Y-96685000D01*
X123655000Y-97565000D02*
X123655000Y-98845000D01*
X127395000Y-98465000D02*
X127395000Y-98845000D01*
X127395000Y-98845000D02*
X123655000Y-98845000D01*
G04 #@! TO.C,C24*
X199886000Y-132117665D02*
X199886000Y-132349335D01*
X199166000Y-132117665D02*
X199166000Y-132349335D01*
G04 #@! TO.C,U1*
X145006000Y-85857500D02*
X143056000Y-85857500D01*
X145006000Y-85857500D02*
X146956000Y-85857500D01*
X145006000Y-90977500D02*
X143056000Y-90977500D01*
X145006000Y-90977500D02*
X146956000Y-90977500D01*
X142306000Y-85952500D02*
X142066000Y-85622500D01*
X142546000Y-85622500D01*
X142306000Y-85952500D01*
G36*
X142306000Y-85952500D02*
G01*
X142066000Y-85622500D01*
X142546000Y-85622500D01*
X142306000Y-85952500D01*
G37*
G04 #@! TO.C,SW2*
X67102500Y-129720000D02*
X73562500Y-129720000D01*
X67102500Y-129750000D02*
X67102500Y-129720000D01*
X67102500Y-131650000D02*
X67102500Y-134250000D01*
X67102500Y-136180000D02*
X67102500Y-136150000D01*
X67102500Y-136180000D02*
X73562500Y-136180000D01*
X73562500Y-129720000D02*
X73562500Y-129750000D01*
X73562500Y-131650000D02*
X73562500Y-134250000D01*
X73562500Y-136180000D02*
X73562500Y-136150000D01*
G04 #@! TO.C,R35*
X168690500Y-86548276D02*
X168690500Y-87057724D01*
X167645500Y-86548276D02*
X167645500Y-87057724D01*
G04 #@! TO.C,R26*
X185201500Y-87482724D02*
X185201500Y-86973276D01*
X186246500Y-87482724D02*
X186246500Y-86973276D01*
G04 #@! TO.C,C51*
X95630835Y-94385000D02*
X95399165Y-94385000D01*
X95630835Y-93665000D02*
X95399165Y-93665000D01*
G04 #@! TO.C,C19*
X177665000Y-136833767D02*
X177665000Y-136541233D01*
X178685000Y-136833767D02*
X178685000Y-136541233D01*
G04 #@! TO.C,R45*
X63179724Y-115097500D02*
X62670276Y-115097500D01*
X63179724Y-114052500D02*
X62670276Y-114052500D01*
G04 #@! TO.C,U5*
X173965000Y-134227500D02*
X174765000Y-134227500D01*
X173965000Y-134227500D02*
X173165000Y-134227500D01*
X173965000Y-131107500D02*
X174765000Y-131107500D01*
X173965000Y-131107500D02*
X173165000Y-131107500D01*
X175505000Y-134507500D02*
X175025000Y-134507500D01*
X175265000Y-134177500D01*
X175505000Y-134507500D01*
G36*
X175505000Y-134507500D02*
G01*
X175025000Y-134507500D01*
X175265000Y-134177500D01*
X175505000Y-134507500D01*
G37*
G04 #@! TO.C,R55*
X59995000Y-91062379D02*
X59995000Y-91397621D01*
X59235000Y-91062379D02*
X59235000Y-91397621D01*
G04 #@! TO.C,C20*
X193440000Y-86773335D02*
X193440000Y-86541665D01*
X194160000Y-86773335D02*
X194160000Y-86541665D01*
G04 #@! TO.C,U11*
X109590000Y-107735000D02*
X110390000Y-107735000D01*
X109590000Y-107735000D02*
X108790000Y-107735000D01*
X109590000Y-104615000D02*
X110390000Y-104615000D01*
X109590000Y-104615000D02*
X108790000Y-104615000D01*
X111130000Y-108015000D02*
X110650000Y-108015000D01*
X110890000Y-107685000D01*
X111130000Y-108015000D01*
G36*
X111130000Y-108015000D02*
G01*
X110650000Y-108015000D01*
X110890000Y-107685000D01*
X111130000Y-108015000D01*
G37*
G04 #@! TO.C,R52*
X77720121Y-128880000D02*
X77384879Y-128880000D01*
X77720121Y-128120000D02*
X77384879Y-128120000D01*
G04 #@! TO.C,U12*
X66700000Y-107607500D02*
X64500000Y-107607500D01*
X66700000Y-107607500D02*
X68900000Y-107607500D01*
X66700000Y-112827500D02*
X64500000Y-112827500D01*
X66700000Y-112827500D02*
X68900000Y-112827500D01*
X63800000Y-107807500D02*
X63560000Y-107477500D01*
X64040000Y-107477500D01*
X63800000Y-107807500D01*
G36*
X63800000Y-107807500D02*
G01*
X63560000Y-107477500D01*
X64040000Y-107477500D01*
X63800000Y-107807500D01*
G37*
G04 #@! TO.C,U7*
X192592000Y-134255500D02*
X193392000Y-134255500D01*
X192592000Y-134255500D02*
X191792000Y-134255500D01*
X192592000Y-131135500D02*
X193392000Y-131135500D01*
X192592000Y-131135500D02*
X191792000Y-131135500D01*
X194132000Y-134535500D02*
X193652000Y-134535500D01*
X193892000Y-134205500D01*
X194132000Y-134535500D01*
G36*
X194132000Y-134535500D02*
G01*
X193652000Y-134535500D01*
X193892000Y-134205500D01*
X194132000Y-134535500D01*
G37*
G04 #@! TO.C,R53*
X68927621Y-129130000D02*
X68592379Y-129130000D01*
X68927621Y-128370000D02*
X68592379Y-128370000D01*
G04 #@! TO.C,R10*
X156448000Y-135348224D02*
X156448000Y-134838776D01*
X157493000Y-135348224D02*
X157493000Y-134838776D01*
G04 #@! TO.C,J6*
X40540000Y-109695000D02*
X40040000Y-110195000D01*
X39540000Y-109695000D02*
X40540000Y-109695000D01*
X40040000Y-110195000D02*
X39540000Y-109695000D01*
X47450000Y-110390000D02*
X39840000Y-110390000D01*
X47450000Y-110390000D02*
X47450000Y-127120000D01*
X31480000Y-110390000D02*
X37040000Y-110390000D01*
X31480000Y-110390000D02*
X31480000Y-127120000D01*
X47450000Y-127120000D02*
X39840000Y-127120000D01*
X31480000Y-127120000D02*
X37040000Y-127120000D01*
G04 #@! TO.C,C69*
X104248335Y-132285000D02*
X104016665Y-132285000D01*
X104248335Y-131565000D02*
X104016665Y-131565000D01*
G04 #@! TO.C,U6*
X190946000Y-85714000D02*
X190146000Y-85714000D01*
X190946000Y-85714000D02*
X191746000Y-85714000D01*
X190946000Y-88834000D02*
X190146000Y-88834000D01*
X190946000Y-88834000D02*
X191746000Y-88834000D01*
X189646000Y-85764000D02*
X189406000Y-85434000D01*
X189886000Y-85434000D01*
X189646000Y-85764000D01*
G36*
X189646000Y-85764000D02*
G01*
X189406000Y-85434000D01*
X189886000Y-85434000D01*
X189646000Y-85764000D01*
G37*
G04 #@! TO.C,R36*
X165801500Y-87057724D02*
X165801500Y-86548276D01*
X166846500Y-87057724D02*
X166846500Y-86548276D01*
G04 #@! TO.C,R57*
X54529879Y-93445000D02*
X54865121Y-93445000D01*
X54529879Y-94205000D02*
X54865121Y-94205000D01*
G04 #@! TO.C,Q5*
X50987500Y-93752500D02*
X50337500Y-93752500D01*
X50987500Y-93752500D02*
X51637500Y-93752500D01*
X50987500Y-96872500D02*
X50337500Y-96872500D01*
X50987500Y-96872500D02*
X51637500Y-96872500D01*
X49825000Y-93802500D02*
X49585000Y-93472500D01*
X50065000Y-93472500D01*
X49825000Y-93802500D01*
G36*
X49825000Y-93802500D02*
G01*
X49585000Y-93472500D01*
X50065000Y-93472500D01*
X49825000Y-93802500D01*
G37*
G04 #@! TO.C,RV3*
X146826500Y-132783000D02*
X146826500Y-136523000D01*
X146826500Y-132783000D02*
X147206500Y-132783000D01*
X146826500Y-136523000D02*
X148106500Y-136523000D01*
X148986500Y-132783000D02*
X149706500Y-132783000D01*
X150586500Y-136523000D02*
X151866500Y-136523000D01*
X151486500Y-132783000D02*
X151866500Y-132783000D01*
X151866500Y-132783000D02*
X151866500Y-136523000D01*
G04 #@! TO.C,R4*
X138917224Y-85072500D02*
X138407776Y-85072500D01*
X138917224Y-84027500D02*
X138407776Y-84027500D01*
G04 #@! TO.C,R31*
X198336500Y-132486776D02*
X198336500Y-132996224D01*
X197291500Y-132486776D02*
X197291500Y-132996224D01*
G04 #@! TO.C,C57*
X95630835Y-91785000D02*
X95399165Y-91785000D01*
X95630835Y-91065000D02*
X95399165Y-91065000D01*
G04 #@! TO.C,R27*
X191144724Y-135758000D02*
X190635276Y-135758000D01*
X191144724Y-134713000D02*
X190635276Y-134713000D01*
G04 #@! TO.C,SW1*
X55602500Y-129720000D02*
X62062500Y-129720000D01*
X55602500Y-129750000D02*
X55602500Y-129720000D01*
X55602500Y-131650000D02*
X55602500Y-134250000D01*
X55602500Y-136180000D02*
X55602500Y-136150000D01*
X55602500Y-136180000D02*
X62062500Y-136180000D01*
X62062500Y-129720000D02*
X62062500Y-129750000D01*
X62062500Y-131650000D02*
X62062500Y-134250000D01*
X62062500Y-136180000D02*
X62062500Y-136150000D01*
G04 #@! TD*
M02*
