%TF.GenerationSoftware,KiCad,Pcbnew,10.0.4-10.0.4~ubuntu24.04.1*%
%TF.CreationDate,2026-07-05T18:09:41-05:00*%
%TF.ProjectId,laser_controller,6c617365-725f-4636-9f6e-74726f6c6c65,rev?*%
%TF.SameCoordinates,Original*%
%TF.FileFunction,Paste,Bot*%
%TF.FilePolarity,Positive*%
%FSLAX46Y46*%
G04 Gerber Fmt 4.6, Leading zero omitted, Abs format (unit mm)*
G04 Created by KiCad (PCBNEW 10.0.4-10.0.4~ubuntu24.04.1) date 2026-07-05 18:09:41*
%MOMM*%
%LPD*%
G01*
G04 APERTURE LIST*
G04 Aperture macros list*
%AMRoundRect*
0 Rectangle with rounded corners*
0 $1 Rounding radius*
0 $2 $3 $4 $5 $6 $7 $8 $9 X,Y pos of 4 corners*
0 Add a 4 corners polygon primitive as box body*
4,1,4,$2,$3,$4,$5,$6,$7,$8,$9,$2,$3,0*
0 Add four circle primitives for the rounded corners*
1,1,$1+$1,$2,$3*
1,1,$1+$1,$4,$5*
1,1,$1+$1,$6,$7*
1,1,$1+$1,$8,$9*
0 Add four rect primitives between the rounded corners*
20,1,$1+$1,$2,$3,$4,$5,0*
20,1,$1+$1,$4,$5,$6,$7,0*
20,1,$1+$1,$6,$7,$8,$9,0*
20,1,$1+$1,$8,$9,$2,$3,0*%
G04 Aperture macros list end*
%ADD10R,1.600000X1.300000*%
%ADD11R,1.600000X2.000000*%
%ADD12RoundRect,0.237500X0.237500X-0.300000X0.237500X0.300000X-0.237500X0.300000X-0.237500X-0.300000X0*%
%ADD13RoundRect,0.150000X0.825000X0.150000X-0.825000X0.150000X-0.825000X-0.150000X0.825000X-0.150000X0*%
%ADD14RoundRect,0.155000X-0.212500X-0.155000X0.212500X-0.155000X0.212500X0.155000X-0.212500X0.155000X0*%
%ADD15RoundRect,0.237500X0.300000X0.237500X-0.300000X0.237500X-0.300000X-0.237500X0.300000X-0.237500X0*%
%ADD16RoundRect,0.155000X0.155000X-0.212500X0.155000X0.212500X-0.155000X0.212500X-0.155000X-0.212500X0*%
%ADD17R,1.300000X1.600000*%
%ADD18R,2.000000X1.600000*%
%ADD19RoundRect,0.155000X-0.155000X0.212500X-0.155000X-0.212500X0.155000X-0.212500X0.155000X0.212500X0*%
%ADD20R,0.600000X1.000000*%
G04 APERTURE END LIST*
D10*
%TO.C,RV8*%
X132050000Y-111450000D03*
D11*
X130800000Y-108550000D03*
D10*
X129550000Y-111450000D03*
%TD*%
D12*
%TO.C,C13*%
X132562499Y-114500000D03*
X130837499Y-114500000D03*
%TD*%
D13*
%TO.C,U2*%
X133275000Y-101155000D03*
X133275000Y-102425000D03*
X133275000Y-103695000D03*
X133275000Y-104965000D03*
X128325000Y-104965000D03*
X128325000Y-103695000D03*
X128325000Y-102425000D03*
X128325000Y-101155000D03*
%TD*%
%TO.C,U4*%
X133275000Y-117180000D03*
X133275000Y-118450000D03*
X133275000Y-119720000D03*
X133275000Y-120990000D03*
X128325000Y-120990000D03*
X128325000Y-119720000D03*
X128325000Y-118450000D03*
X128325000Y-117180000D03*
%TD*%
D12*
%TO.C,C5*%
X132562499Y-99000000D03*
X130837499Y-99000000D03*
%TD*%
D13*
%TO.C,U3*%
X149275000Y-117180000D03*
X149275000Y-118450000D03*
X149275000Y-119720000D03*
X149275000Y-120990000D03*
X144325000Y-120990000D03*
X144325000Y-119720000D03*
X144325000Y-118450000D03*
X144325000Y-117180000D03*
%TD*%
D14*
%TO.C,C6*%
X123000000Y-107367500D03*
X123000000Y-106232500D03*
%TD*%
D12*
%TO.C,C9*%
X148562500Y-114500000D03*
X146837500Y-114500000D03*
%TD*%
D10*
%TO.C,RV7*%
X148050000Y-111450000D03*
D11*
X146800000Y-108550000D03*
D10*
X145550000Y-111450000D03*
%TD*%
D15*
%TO.C,C1*%
X148562500Y-99000000D03*
X146837500Y-99000000D03*
%TD*%
D16*
%TO.C,C10*%
X139000000Y-114467500D03*
X139000000Y-113332500D03*
%TD*%
D17*
%TO.C,RV5*%
X148050000Y-95950000D03*
D18*
X146800000Y-93050000D03*
D17*
X145550000Y-95950000D03*
%TD*%
D16*
%TO.C,C14*%
X123000000Y-114467500D03*
X123000000Y-113332500D03*
%TD*%
D10*
%TO.C,RV6*%
X132050000Y-95950000D03*
D11*
X130800000Y-93050000D03*
D10*
X129550000Y-95950000D03*
%TD*%
D19*
%TO.C,C2*%
X139000000Y-107367500D03*
X139000000Y-106232500D03*
%TD*%
D13*
%TO.C,U1*%
X149275000Y-101180000D03*
X149275000Y-102450000D03*
X149275000Y-103720000D03*
X149275000Y-104990000D03*
X144325000Y-104990000D03*
X144325000Y-103720000D03*
X144325000Y-102450000D03*
X144325000Y-101180000D03*
%TD*%
D20*
%TO.C,D4*%
X140165000Y-119250000D03*
X140165000Y-117650000D03*
X135635000Y-119150000D03*
X135635000Y-117750000D03*
%TD*%
%TO.C,D2*%
X140165000Y-103225000D03*
X140165000Y-101625000D03*
X135635000Y-103125000D03*
X135635000Y-101725000D03*
%TD*%
%TO.C,D3*%
X156165000Y-119250000D03*
X156165000Y-117650000D03*
X151635000Y-119150000D03*
X151635000Y-117750000D03*
%TD*%
%TO.C,D1*%
X156165000Y-103250000D03*
X156165000Y-101650000D03*
X151635000Y-103150000D03*
X151635000Y-101750000D03*
%TD*%
M02*
