%TF.GenerationSoftware,KiCad,Pcbnew,9.0.7*%
%TF.CreationDate,2026-07-05T05:58:33-05:00*%
%TF.ProjectId,laser_controller,6c617365-725f-4636-9f6e-74726f6c6c65,rev?*%
%TF.SameCoordinates,Original*%
%TF.FileFunction,Copper,L4,Bot*%
%TF.FilePolarity,Positive*%
%FSLAX46Y46*%
G04 Gerber Fmt 4.6, Leading zero omitted, Abs format (unit mm)*
G04 Created by KiCad (PCBNEW 9.0.7) date 2026-07-05 05:58:33*
%MOMM*%
%LPD*%
G01*
G04 APERTURE LIST*
G04 Aperture macros list*
%AMRoundRect*
0 Rectangle with rounded corners*
0 $1 Rounding radius*
0 $2 $3 $4 $5 $6 $7 $8 $9 X,Y pos of 4 corners*
0 Add a 4 corners polygon primitive as box body*
4,1,4,$2,$3,$4,$5,$6,$7,$8,$9,$2,$3,0*
0 Add four circle primitives for the rounded corners*
1,1,$1+$1,$2,$3*
1,1,$1+$1,$4,$5*
1,1,$1+$1,$6,$7*
1,1,$1+$1,$8,$9*
0 Add four rect primitives between the rounded corners*
20,1,$1+$1,$2,$3,$4,$5,0*
20,1,$1+$1,$4,$5,$6,$7,0*
20,1,$1+$1,$6,$7,$8,$9,0*
20,1,$1+$1,$8,$9,$2,$3,0*%
G04 Aperture macros list end*
%TA.AperFunction,ComponentPad*%
%ADD10C,7.000000*%
%TD*%
%TA.AperFunction,ComponentPad*%
%ADD11RoundRect,0.249600X0.000000X-0.495540X0.495540X0.000000X0.000000X0.495540X-0.495540X0.000000X0*%
%TD*%
%TA.AperFunction,ComponentPad*%
%ADD12C,1.200000*%
%TD*%
%TA.AperFunction,ComponentPad*%
%ADD13RoundRect,0.250000X0.000000X-0.353553X0.353553X0.000000X0.000000X0.353553X-0.353553X0.000000X0*%
%TD*%
%TA.AperFunction,ComponentPad*%
%ADD14C,1.000000*%
%TD*%
%TA.AperFunction,ComponentPad*%
%ADD15RoundRect,0.750000X-0.750000X-1.500000X0.750000X-1.500000X0.750000X1.500000X-0.750000X1.500000X0*%
%TD*%
%TA.AperFunction,ComponentPad*%
%ADD16RoundRect,0.750000X-1.500000X-0.750000X1.500000X-0.750000X1.500000X0.750000X-1.500000X0.750000X0*%
%TD*%
%TA.AperFunction,ComponentPad*%
%ADD17R,1.500000X1.500000*%
%TD*%
%TA.AperFunction,ComponentPad*%
%ADD18C,1.500000*%
%TD*%
%TA.AperFunction,ComponentPad*%
%ADD19C,2.300000*%
%TD*%
%TA.AperFunction,ViaPad*%
%ADD20C,1.000000*%
%TD*%
%TA.AperFunction,ViaPad*%
%ADD21C,0.600000*%
%TD*%
%TA.AperFunction,ViaPad*%
%ADD22C,1.200000*%
%TD*%
%TA.AperFunction,Conductor*%
%ADD23C,0.250000*%
%TD*%
%TA.AperFunction,Conductor*%
%ADD24C,0.500000*%
%TD*%
%TA.AperFunction,Conductor*%
%ADD25C,0.600000*%
%TD*%
%TA.AperFunction,Conductor*%
%ADD26C,0.200000*%
%TD*%
%TA.AperFunction,Conductor*%
%ADD27C,0.800000*%
%TD*%
G04 APERTURE END LIST*
D10*
%TO.P,H1,1*%
%TO.N,GND*%
X161900000Y-110425000D03*
%TD*%
%TO.P,H2,1*%
%TO.N,GND*%
X55850000Y-110425000D03*
%TD*%
D11*
%TO.P,LD1,1*%
%TO.N,LASER_N1*%
X168880000Y-118437500D03*
D12*
%TO.P,LD1,2*%
%TO.N,LASER_VP*%
X169880000Y-119437500D03*
%TO.P,LD1,3*%
%TO.N,MPD_RAW1*%
X170880000Y-118437500D03*
%TD*%
D13*
%TO.P,LD4,1*%
%TO.N,LASER_VP*%
X168900000Y-102437500D03*
D14*
%TO.P,LD4,2*%
%TO.N,N/C*%
X169900000Y-103437500D03*
%TO.P,LD4,3*%
%TO.N,LASER_N4*%
X170900000Y-102437500D03*
%TD*%
D11*
%TO.P,LD2,1*%
%TO.N,LASER_N2*%
X184880000Y-102437500D03*
D12*
%TO.P,LD2,2*%
%TO.N,LASER_VP*%
X185880000Y-103437500D03*
%TO.P,LD2,3*%
%TO.N,MPD_RAW2*%
X186880000Y-102437500D03*
%TD*%
D15*
%TO.P,J5,1*%
%TO.N,VIN_24V*%
X45100000Y-133900000D03*
%TO.P,J5,2*%
%TO.N,GND*%
X38300000Y-133900000D03*
D16*
%TO.P,J5,3*%
X42000000Y-138700000D03*
%TD*%
D13*
%TO.P,LD3,1*%
%TO.N,LASER_N3*%
X184900000Y-118437500D03*
D14*
%TO.P,LD3,2*%
%TO.N,LASER_VP*%
X185900000Y-119437500D03*
%TO.P,LD3,3*%
%TO.N,MPD_RAW3*%
X186900000Y-118437500D03*
%TD*%
D17*
%TO.P,J6,1*%
%TO.N,N/C*%
X39340000Y-115195000D03*
D18*
%TO.P,J6,2*%
X37560000Y-116211000D03*
%TO.P,J6,3*%
X39340000Y-117227000D03*
%TO.P,J6,4*%
%TO.N,VIN_24V*%
X37560000Y-118243000D03*
%TO.P,J6,5*%
X39340000Y-119259000D03*
%TO.P,J6,6*%
%TO.N,N/C*%
X37560000Y-120275000D03*
%TO.P,J6,7*%
%TO.N,GND*%
X39340000Y-121291000D03*
%TO.P,J6,8*%
X37560000Y-122307000D03*
%TO.P,J6,9*%
X32740000Y-111895000D03*
%TO.P,J6,10*%
%TO.N,/POWER_IO/RJ45_PWR_DETECT*%
X32740000Y-114185000D03*
%TO.P,J6,11*%
%TO.N,GND*%
X32740000Y-123325000D03*
%TO.P,J6,12*%
%TO.N,/POWER_IO/RJ45_LED_CONTACT*%
X32740000Y-125615000D03*
D19*
%TO.P,J6,SH*%
%TO.N,N/C*%
X38450000Y-110625000D03*
X38450000Y-126885000D03*
%TD*%
D20*
%TO.N,+3V3*%
X108000000Y-95500000D03*
D21*
X75825000Y-101425000D03*
X70250000Y-101400000D03*
D20*
X79200000Y-128450000D03*
X84475000Y-126500000D03*
D21*
X56800000Y-83950000D03*
D20*
X85150000Y-87025000D03*
D21*
X108925000Y-100675000D03*
D20*
X106586975Y-90582193D03*
X70475000Y-128675000D03*
D21*
X64525000Y-82950000D03*
D20*
X58475000Y-128950000D03*
X54125000Y-94850000D03*
X106925000Y-134475000D03*
D21*
X65000000Y-110150000D03*
D20*
%TO.N,+5V*%
X191100000Y-85600000D03*
X127900000Y-130800000D03*
X170558689Y-130058689D03*
X139550000Y-83550000D03*
X141300000Y-132375000D03*
X124275000Y-109000000D03*
X157060203Y-137000000D03*
D21*
X128200000Y-100800000D03*
D20*
X149325000Y-91850000D03*
X158218951Y-127311834D03*
X172675000Y-134250000D03*
D21*
X125350000Y-99800000D03*
D20*
X145775000Y-87750000D03*
D21*
X129675000Y-103550000D03*
D20*
X171670516Y-85343961D03*
X118725000Y-92950000D03*
X193050000Y-136225000D03*
X191662869Y-132969483D03*
X155450000Y-131225000D03*
D21*
%TO.N,/MCU_ESP32-S3/D-*%
X50350000Y-93250000D03*
X49625000Y-91150000D03*
%TO.N,/MCU_ESP32-S3/DTR*%
X50450000Y-91250000D03*
X46562654Y-95062346D03*
X47877236Y-93972764D03*
%TO.N,/MCU_ESP32-S3/EN*%
X55579137Y-86226709D03*
X52790992Y-103964026D03*
X53053740Y-100353740D03*
X51950000Y-94450000D03*
%TO.N,/MCU_ESP32-S3/FACT*%
X75544149Y-119230851D03*
X83280851Y-83955851D03*
%TO.N,/MCU_ESP32-S3/IO43*%
X75912144Y-86853848D03*
X50402888Y-89495845D03*
%TO.N,/MCU_ESP32-S3/IO44*%
X50563125Y-90330608D03*
X76681759Y-87130661D03*
%TO.N,/MCU_ESP32-S3/PROG*%
X80187521Y-100498436D03*
X61075000Y-94225000D03*
X74475000Y-119475000D03*
X68634954Y-93682240D03*
%TO.N,/MCU_ESP32-S3/RTS*%
X48796451Y-96481648D03*
X45750000Y-94125000D03*
X46900000Y-90375000D03*
X50275000Y-88500000D03*
%TO.N,/POWER_IO/MPD_AMP3*%
X68650000Y-117325000D03*
X68350000Y-112275000D03*
%TO.N,/POWER_IO/MPD_BIAS*%
X70747757Y-114780311D03*
X70745556Y-111714011D03*
X75000000Y-113500000D03*
X175800000Y-113500000D03*
%TO.N,ADC_BUSY*%
X105550000Y-92125000D03*
X83608781Y-100800000D03*
%TO.N,ADC_CS*%
X107466343Y-92351656D03*
X87322429Y-100326478D03*
%TO.N,ADC_MISO_A*%
X104150000Y-90550000D03*
X85225000Y-99800000D03*
%TO.N,ADC_MISO_B*%
X91525000Y-92400000D03*
X101763298Y-91713298D03*
%TO.N,ADC_RESET*%
X103250000Y-93750000D03*
X82650000Y-101575000D03*
%TO.N,ADC_SCLK*%
X100488356Y-91653107D03*
X79300000Y-92350000D03*
D20*
%TO.N,GND*%
X42150000Y-103150000D03*
X122650000Y-130200000D03*
X70400000Y-86950000D03*
X39875000Y-81550000D03*
X60825000Y-135200000D03*
X83925000Y-135025000D03*
D21*
X99700000Y-91950000D03*
X113425000Y-99375000D03*
X123350000Y-99225000D03*
D20*
X185050000Y-91875000D03*
X102025000Y-124750000D03*
D21*
X168475000Y-129250000D03*
D20*
X135925000Y-89150000D03*
X162125000Y-131275000D03*
X171475000Y-86850000D03*
X159105838Y-137000000D03*
X70435184Y-90825000D03*
D21*
X99725000Y-97800000D03*
D20*
X116125000Y-95150000D03*
X68830585Y-90343148D03*
D21*
X79150000Y-81650000D03*
D20*
X111250000Y-94975000D03*
D21*
X100750000Y-99150000D03*
X108325000Y-96975000D03*
D20*
X114600000Y-127675000D03*
X58400000Y-87000000D03*
X88825000Y-113250000D03*
X42850000Y-82600000D03*
D21*
X106177715Y-99325000D03*
X104750000Y-99225000D03*
D20*
X64975000Y-104450000D03*
D21*
X135700000Y-135750000D03*
D20*
X52650000Y-98700000D03*
X83875000Y-113675000D03*
X179800000Y-128175000D03*
X61725000Y-107826654D03*
X168625000Y-91450000D03*
X64475000Y-128850000D03*
X198675000Y-128100000D03*
X192885557Y-132709596D03*
X72750000Y-135100000D03*
D21*
X128531048Y-103443952D03*
D20*
X79200000Y-135200000D03*
D21*
X99525000Y-94975000D03*
X99525000Y-95950000D03*
D20*
X148275000Y-131700000D03*
X53875000Y-89600000D03*
X34550000Y-94875000D03*
D21*
X69504261Y-104820739D03*
X102225000Y-99150000D03*
D20*
X200525000Y-132850000D03*
X101150000Y-130550000D03*
X155375000Y-136325000D03*
X93500000Y-101012563D03*
X52527500Y-135025000D03*
X194375003Y-136200000D03*
D21*
X108225000Y-97800000D03*
X111900000Y-106375000D03*
D20*
X72600000Y-88793781D03*
D21*
X64675000Y-81675000D03*
X107194323Y-99325000D03*
D20*
X174000000Y-132675000D03*
X144125000Y-84225000D03*
D21*
X64039798Y-116935202D03*
D20*
X129684603Y-126575000D03*
D21*
X70019264Y-114342359D03*
D20*
X93600000Y-125075006D03*
X101675000Y-90600000D03*
D21*
X106625000Y-105275000D03*
D20*
X40050000Y-108150000D03*
X108675000Y-89050000D03*
X41705638Y-89333911D03*
D21*
X126925000Y-100675000D03*
D20*
X175210355Y-85175001D03*
X166325000Y-84525000D03*
X132050000Y-85625000D03*
X190875000Y-87300000D03*
X58675000Y-92825000D03*
X185345031Y-85329969D03*
X150300000Y-89425000D03*
X101375000Y-136325000D03*
X34450000Y-108225000D03*
X46575000Y-88725000D03*
X127325000Y-134575000D03*
X34500000Y-85250000D03*
D21*
X103200000Y-99175000D03*
D20*
X120625000Y-127675000D03*
D21*
X66575000Y-117375000D03*
X128250000Y-95075000D03*
X194125000Y-85525000D03*
X121375000Y-103925000D03*
D20*
X90200000Y-114525000D03*
X142500000Y-91400000D03*
X178150000Y-133725000D03*
X40025000Y-94375000D03*
X152925000Y-132375000D03*
X50150000Y-99875000D03*
X145029345Y-132700000D03*
D21*
X68398838Y-110062976D03*
D20*
X67850000Y-135275000D03*
D21*
X110762316Y-110216312D03*
%TO.N,ISENSE1*%
X164400000Y-133500000D03*
X65614649Y-85925000D03*
X90299998Y-102250000D03*
X82850000Y-94050000D03*
%TO.N,ISENSE2*%
X162000000Y-114550000D03*
X72175000Y-104025000D03*
X167500000Y-113500000D03*
X66625000Y-90150000D03*
%TO.N,ISENSE3*%
X106910202Y-110739798D03*
X133749091Y-113475111D03*
X143675000Y-124900000D03*
X65425000Y-87981169D03*
X114450000Y-110350000D03*
X83332210Y-99500000D03*
%TO.N,ISENSE4*%
X64825000Y-89275000D03*
X68150000Y-84800000D03*
D22*
%TO.N,LASER_N1*%
X168825000Y-131400000D03*
%TO.N,LASER_VP*%
X112425000Y-131350000D03*
X76821662Y-121003338D03*
X77925000Y-106800000D03*
D21*
%TO.N,MPD1*%
X64375000Y-101150000D03*
X70978680Y-92780000D03*
%TO.N,MPD3*%
X61250000Y-101150000D03*
X61675000Y-95825000D03*
%TO.N,MPD_RAW1*%
X67164191Y-110835809D03*
X67550000Y-113400000D03*
%TO.N,MPD_RAW2*%
X65500000Y-113625000D03*
X65534088Y-110811252D03*
%TO.N,MPD_RAW3*%
X174775000Y-115325000D03*
X163200000Y-115325000D03*
%TO.N,/TIA_IR/PD_CATHODE*%
X144750000Y-98000000D03*
X140800000Y-85600000D03*
%TO.N,/POWER_IO/RJ45_LED_CONTACT*%
X46675000Y-127550000D03*
%TO.N,/LASER_RED/CMD_FILTER*%
X187800000Y-88800000D03*
X189800000Y-88400000D03*
%TO.N,/MCU_ESP32-S3/CP2102_RST*%
X57250000Y-90525000D03*
X56622500Y-91945168D03*
%TO.N,PWM1*%
X78450000Y-138875000D03*
X73450000Y-127800000D03*
X177000000Y-134300000D03*
X72750000Y-118675000D03*
X71000000Y-107875000D03*
X147125000Y-138325000D03*
%TO.N,PWM2*%
X112825000Y-111575000D03*
X108155833Y-111985429D03*
%TO.N,PWM3*%
X185025000Y-130025000D03*
X195000000Y-132425000D03*
X131425000Y-123475000D03*
X70600000Y-98150000D03*
X73238486Y-93636100D03*
X82550000Y-93125000D03*
X76382088Y-92697461D03*
X91275000Y-103400000D03*
%TO.N,PWM4*%
X78950000Y-83550000D03*
X94050000Y-83650000D03*
D20*
%TO.N,VBUS_5V*%
X48175000Y-85150000D03*
X47875000Y-88750000D03*
X49775000Y-101081903D03*
X69200000Y-102150000D03*
%TO.N,VIN_24V*%
X86050000Y-119400000D03*
X86800000Y-125425000D03*
D21*
%TO.N,VOUT1*%
X114050000Y-102275000D03*
X100525000Y-101850000D03*
%TO.N,VOUT2*%
X103425000Y-102525000D03*
X113650000Y-103325000D03*
%TO.N,VOUT3*%
X104000000Y-103300000D03*
X146850000Y-128150000D03*
%TO.N,VOUT4*%
X105800000Y-104400000D03*
X118306399Y-124775000D03*
%TD*%
D23*
%TO.N,+3V3*%
X107125000Y-97000000D02*
X107125000Y-98225000D01*
D24*
X106925000Y-134475000D02*
X92450000Y-134475000D01*
X92450000Y-134475000D02*
X84475000Y-126500000D01*
D23*
X108000000Y-95500000D02*
X108150000Y-95350000D01*
X107125000Y-98225000D02*
X107875000Y-98975000D01*
X108150000Y-92145218D02*
X106586975Y-90582193D01*
X107875000Y-99625000D02*
X108925000Y-100675000D01*
X108150000Y-95350000D02*
X108150000Y-92145218D01*
X108000000Y-96125000D02*
X107125000Y-97000000D01*
X108000000Y-95500000D02*
X108000000Y-96125000D01*
X107875000Y-98975000D02*
X107875000Y-99625000D01*
D25*
%TO.N,+5V*%
X124275000Y-109000000D02*
X124275000Y-108950000D01*
X124275000Y-108950000D02*
X129675000Y-103550000D01*
D23*
%TO.N,/MCU_ESP32-S3/D-*%
X49625000Y-91150000D02*
X50350000Y-93250000D01*
D26*
%TO.N,/MCU_ESP32-S3/DTR*%
X51100000Y-94200000D02*
X51100000Y-91250000D01*
X48775000Y-93075000D02*
X48775000Y-92825000D01*
X48775000Y-92825000D02*
X48775000Y-94200000D01*
X46787654Y-95062346D02*
X47877236Y-93972764D01*
X46562654Y-95062346D02*
X46787654Y-95062346D01*
X48775000Y-94200000D02*
X51100000Y-94200000D01*
X47877236Y-93972764D02*
X48775000Y-93075000D01*
X51100000Y-91250000D02*
X50450000Y-91250000D01*
%TO.N,/MCU_ESP32-S3/EN*%
X53053740Y-100353740D02*
X52951966Y-100455514D01*
X51950000Y-92975000D02*
X55579137Y-89345863D01*
X52951966Y-103803052D02*
X52790992Y-103964026D01*
X51950000Y-94450000D02*
X51950000Y-92975000D01*
X52951966Y-100455514D02*
X52951966Y-103803052D01*
X55579137Y-89345863D02*
X55579137Y-86226709D01*
%TO.N,/MCU_ESP32-S3/FACT*%
X83888376Y-100175000D02*
X84200000Y-99863376D01*
X84200000Y-99863376D02*
X84200000Y-84875000D01*
X75544149Y-119230851D02*
X75544149Y-106505851D01*
X84200000Y-84875000D02*
X83280851Y-83955851D01*
X82979186Y-100525000D02*
X83329186Y-100175000D01*
X75544149Y-106505851D02*
X81525000Y-100525000D01*
X83329186Y-100175000D02*
X83888376Y-100175000D01*
X81525000Y-100525000D02*
X82979186Y-100525000D01*
%TO.N,/MCU_ESP32-S3/IO43*%
X50402888Y-89495845D02*
X55223733Y-84675000D01*
X72778857Y-83625000D02*
X75912144Y-86758287D01*
X64996141Y-83625000D02*
X72778857Y-83625000D01*
X75912144Y-86758287D02*
X75912144Y-86853848D01*
X55223733Y-84675000D02*
X63946141Y-84675000D01*
X63946141Y-84675000D02*
X64996141Y-83625000D01*
%TO.N,/MCU_ESP32-S3/IO44*%
X55718733Y-85175000D02*
X64153248Y-85175000D01*
X72228700Y-84125000D02*
X75607549Y-87503848D01*
X75607549Y-87503848D02*
X76166739Y-87503848D01*
X76539926Y-87130661D02*
X76681759Y-87130661D01*
X76166739Y-87503848D02*
X76539926Y-87130661D01*
X64153248Y-85175000D02*
X65203248Y-84125000D01*
X50563125Y-90330608D02*
X55718733Y-85175000D01*
X65203248Y-84125000D02*
X72228700Y-84125000D01*
%TO.N,/MCU_ESP32-S3/PROG*%
X61075000Y-94225000D02*
X68092194Y-94225000D01*
X74475000Y-119475000D02*
X74475000Y-106025000D01*
X68092194Y-94225000D02*
X68634954Y-93682240D01*
X80001564Y-100498436D02*
X80187521Y-100498436D01*
X74475000Y-106025000D02*
X80001564Y-100498436D01*
%TO.N,/MCU_ESP32-S3/RTS*%
X47027360Y-96481648D02*
X48796451Y-96481648D01*
X49075000Y-89700000D02*
X50275000Y-88500000D01*
X48775000Y-89700000D02*
X49075000Y-89700000D01*
X45750000Y-94125000D02*
X45750000Y-95204288D01*
X46900000Y-90375000D02*
X48050000Y-90375000D01*
X48725000Y-89700000D02*
X48775000Y-89700000D01*
X48050000Y-90375000D02*
X48725000Y-89700000D01*
X45750000Y-95204288D02*
X47027360Y-96481648D01*
%TO.N,/POWER_IO/MPD_AMP3*%
X68650000Y-117325000D02*
X68650000Y-112575000D01*
X68650000Y-112575000D02*
X68350000Y-112275000D01*
%TO.N,/POWER_IO/MPD_BIAS*%
X175800000Y-132500000D02*
X180500000Y-132500000D01*
X75000000Y-140000000D02*
X175800000Y-140000000D01*
X75000000Y-113500000D02*
X75000000Y-126800000D01*
X70745556Y-111714011D02*
X70745556Y-114778110D01*
X180500000Y-132500000D02*
X180500000Y-140000000D01*
X69200000Y-126800000D02*
X69200000Y-140000000D01*
X70745556Y-114778110D02*
X70747757Y-114780311D01*
X75000000Y-126800000D02*
X69200000Y-126800000D01*
X69200000Y-140000000D02*
X75000000Y-140000000D01*
X180500000Y-140000000D02*
X175800000Y-140000000D01*
X175800000Y-113500000D02*
X175800000Y-132500000D01*
%TO.N,ADC_BUSY*%
X83810259Y-101001478D02*
X83608781Y-100800000D01*
X102020403Y-94075000D02*
X96893607Y-94075000D01*
X96770565Y-93951958D02*
X94907356Y-93951958D01*
X87857836Y-101001478D02*
X83810259Y-101001478D01*
X105550000Y-92125000D02*
X103970403Y-92125000D01*
X94907356Y-93951958D02*
X87857836Y-101001478D01*
X103970403Y-92125000D02*
X102020403Y-94075000D01*
X96893607Y-94075000D02*
X96770565Y-93951958D01*
%TO.N,ADC_CS*%
X94196949Y-93451958D02*
X87322429Y-100326478D01*
X96977671Y-93451958D02*
X94196949Y-93451958D01*
X106564687Y-91450000D02*
X103759009Y-91450000D01*
X107466343Y-92351656D02*
X106564687Y-91450000D01*
X101634009Y-93575000D02*
X97100713Y-93575000D01*
X97100713Y-93575000D02*
X96977671Y-93451958D01*
X103759009Y-91450000D02*
X101634009Y-93575000D01*
%TO.N,ADC_MISO_A*%
X103881192Y-90550000D02*
X104150000Y-90550000D01*
X85225000Y-99800000D02*
X92073042Y-92951958D01*
X97307819Y-93075000D02*
X101356192Y-93075000D01*
X101356192Y-93075000D02*
X103881192Y-90550000D01*
X97184778Y-92951958D02*
X97307819Y-93075000D01*
X92073042Y-92951958D02*
X97184778Y-92951958D01*
%TO.N,ADC_MISO_B*%
X99979595Y-92625000D02*
X100179595Y-92425000D01*
X91525000Y-92400000D02*
X99195405Y-92400000D01*
X99195405Y-92400000D02*
X99420405Y-92625000D01*
X100179595Y-92425000D02*
X101051596Y-92425000D01*
X99420405Y-92625000D02*
X99979595Y-92625000D01*
X101051596Y-92425000D02*
X101763298Y-91713298D01*
%TO.N,ADC_RESET*%
X100312500Y-96687500D02*
X103250000Y-93750000D01*
X91000000Y-101575000D02*
X95887500Y-96687500D01*
X82650000Y-101575000D02*
X91000000Y-101575000D01*
X95887500Y-96687500D02*
X100312500Y-96687500D01*
%TO.N,ADC_SCLK*%
X79300000Y-92350000D02*
X79300000Y-87032106D01*
X91285249Y-82450000D02*
X100488356Y-91653107D01*
X83882106Y-82450000D02*
X91285249Y-82450000D01*
X79300000Y-87032106D02*
X83882106Y-82450000D01*
%TO.N,ISENSE1*%
X164400000Y-133500000D02*
X158507400Y-134950000D01*
X111880761Y-124975000D02*
X114825000Y-124975000D01*
X119225000Y-129375000D02*
X119225000Y-132300000D01*
X90299998Y-103394237D02*
X111880761Y-124975000D01*
X122950000Y-136025000D02*
X129700000Y-136025000D01*
X129700000Y-136025000D02*
X130775000Y-134950000D01*
X76810839Y-94050000D02*
X76557087Y-93796248D01*
X90299998Y-102250000D02*
X90299998Y-103394237D01*
X75732088Y-93796248D02*
X67860840Y-85925000D01*
X119225000Y-132300000D02*
X122950000Y-136025000D01*
X82850000Y-94050000D02*
X76810839Y-94050000D01*
X67860840Y-85925000D02*
X65614649Y-85925000D01*
X130775000Y-134950000D02*
X158507425Y-134950000D01*
X114825000Y-124975000D02*
X119225000Y-129375000D01*
X76557087Y-93796248D02*
X75732088Y-93796248D01*
%TO.N,ISENSE2*%
X70699085Y-92105000D02*
X70516011Y-92288074D01*
X68763074Y-92288074D02*
X66625000Y-90150000D01*
X72175000Y-104025000D02*
X74757088Y-101442912D01*
X70516011Y-92288074D02*
X68763074Y-92288074D01*
X72933716Y-92376734D02*
X72083717Y-92376734D01*
X71811983Y-92105000D02*
X70699085Y-92105000D01*
X72083717Y-92376734D02*
X71811983Y-92105000D01*
X74757088Y-101442912D02*
X74757088Y-94200105D01*
X167500000Y-113500000D02*
X162000000Y-114550000D01*
X74757088Y-94200105D02*
X72933716Y-92376734D01*
%TO.N,ISENSE3*%
X143675000Y-124900000D02*
X143675000Y-122040809D01*
X107025000Y-110625000D02*
X106910202Y-110739798D01*
X72881586Y-91617498D02*
X75535337Y-94271248D01*
X110425001Y-110900000D02*
X110150001Y-110625000D01*
X81589088Y-99500000D02*
X83332210Y-99500000D01*
X114450000Y-110350000D02*
X113900000Y-110900000D01*
X76414088Y-94325000D02*
X81589088Y-99500000D01*
X135109302Y-113475111D02*
X133749091Y-113475111D01*
X75728249Y-94325000D02*
X76414088Y-94325000D01*
X113900000Y-110900000D02*
X110425001Y-110900000D01*
X75535337Y-94271248D02*
X75624497Y-94271248D01*
X75653249Y-94300000D02*
X75703249Y-94300000D01*
X75703249Y-94300000D02*
X75728249Y-94325000D01*
X68828790Y-87981169D02*
X72465119Y-91617498D01*
X75624497Y-94271248D02*
X75653249Y-94300000D01*
X65425000Y-87981169D02*
X68828790Y-87981169D01*
X110150001Y-110625000D02*
X107025000Y-110625000D01*
X72465119Y-91617498D02*
X72881586Y-91617498D01*
X143675000Y-122040809D02*
X135109302Y-113475111D01*
%TO.N,ISENSE4*%
X64825000Y-89275000D02*
X64350000Y-88800000D01*
X64350000Y-85650000D02*
X65200000Y-84800000D01*
X64350000Y-88800000D02*
X64350000Y-85650000D01*
X65200000Y-84800000D02*
X68150000Y-84800000D01*
D25*
%TO.N,LASER_N1*%
X166825000Y-129400000D02*
X168825000Y-131400000D01*
X168880000Y-118437500D02*
X166825000Y-120492500D01*
X166825000Y-120492500D02*
X166825000Y-129400000D01*
D27*
%TO.N,LASER_VP*%
X166475000Y-135725000D02*
X169275000Y-132925000D01*
X114775000Y-131350000D02*
X120250000Y-136825000D01*
X169275000Y-132925000D02*
X169338521Y-132925000D01*
X185400001Y-119937499D02*
X183937499Y-119937499D01*
X172000000Y-130314435D02*
X172000000Y-121557500D01*
X183937499Y-119937499D02*
X183050000Y-119050000D01*
X185880000Y-110795000D02*
X185880000Y-103437500D01*
X183050000Y-119050000D02*
X183050000Y-113625000D01*
X183050000Y-113625000D02*
X185880000Y-110795000D01*
X169675000Y-119642500D02*
X169880000Y-119437500D01*
X120250000Y-136825000D02*
X152325000Y-136825000D01*
X153700000Y-138200000D02*
X160850000Y-138200000D01*
X171187500Y-104487500D02*
X170275000Y-105400000D01*
X170275000Y-105400000D02*
X168837500Y-105400000D01*
X185880000Y-103437500D02*
X184830000Y-104487500D01*
X171011146Y-131252375D02*
X171062060Y-131252375D01*
X184830000Y-104487500D02*
X171187500Y-104487500D01*
X152325000Y-136825000D02*
X153700000Y-138200000D01*
X163325000Y-135725000D02*
X166475000Y-135725000D01*
X168837500Y-105400000D02*
X167925000Y-104487500D01*
X185900000Y-119437500D02*
X185400001Y-119937499D01*
X167925000Y-103412500D02*
X168900000Y-102437500D01*
X171062060Y-131252375D02*
X172000000Y-130314435D01*
X167925000Y-104487500D02*
X167925000Y-103412500D01*
X112425000Y-131350000D02*
X114775000Y-131350000D01*
X160850000Y-138200000D02*
X163325000Y-135725000D01*
X172000000Y-121557500D02*
X169880000Y-119437500D01*
X169338521Y-132925000D02*
X171011146Y-131252375D01*
X76821662Y-107903338D02*
X77925000Y-106800000D01*
X76821662Y-121003338D02*
X76821662Y-107903338D01*
D26*
%TO.N,MPD1*%
X64375000Y-101150000D02*
X70978680Y-94546320D01*
X70978680Y-94546320D02*
X70978680Y-92780000D01*
%TO.N,MPD3*%
X61250000Y-96250000D02*
X61675000Y-95825000D01*
X61250000Y-101150000D02*
X61250000Y-96250000D01*
%TO.N,MPD_RAW1*%
X67164191Y-113014191D02*
X67164191Y-110835809D01*
X67550000Y-113400000D02*
X67164191Y-113014191D01*
%TO.N,MPD_RAW2*%
X65500000Y-113625000D02*
X65534088Y-113590912D01*
X65534088Y-113590912D02*
X65534088Y-110811252D01*
%TO.N,MPD_RAW3*%
X187525000Y-119062500D02*
X187525000Y-121125000D01*
X186900000Y-118437500D02*
X187525000Y-119062500D01*
X174775000Y-115325000D02*
X174775000Y-112700000D01*
X186975000Y-121675000D02*
X181125000Y-121675000D01*
X187525000Y-121125000D02*
X186975000Y-121675000D01*
X181125000Y-112700000D02*
X181125000Y-121675000D01*
X163200000Y-115325000D02*
X174775000Y-115325000D01*
X174775000Y-112700000D02*
X181125000Y-112700000D01*
%TO.N,/TIA_IR/PD_CATHODE*%
X146500000Y-98000000D02*
X146500000Y-85600000D01*
X144750000Y-98000000D02*
X146500000Y-98000000D01*
X146500000Y-85600000D02*
X140800000Y-85600000D01*
%TO.N,/POWER_IO/RJ45_LED_CONTACT*%
X46675000Y-127550000D02*
X45865000Y-128360000D01*
X35485000Y-128360000D02*
X32740000Y-125615000D01*
X45865000Y-128360000D02*
X35485000Y-128360000D01*
%TO.N,/LASER_RED/CMD_FILTER*%
X187800000Y-88800000D02*
X189800000Y-88400000D01*
%TO.N,/MCU_ESP32-S3/CP2102_RST*%
X56622500Y-91945168D02*
X56622500Y-91152500D01*
X56622500Y-91152500D02*
X57250000Y-90525000D01*
%TO.N,PWM1*%
X148050000Y-139250000D02*
X147125000Y-138325000D01*
X71000000Y-107875000D02*
X71000000Y-110725000D01*
X78450000Y-138875000D02*
X73450000Y-133875000D01*
X73450000Y-133875000D02*
X73450000Y-127800000D01*
X172050000Y-139250000D02*
X148050000Y-139250000D01*
X73025000Y-112750000D02*
X73025000Y-118400000D01*
X71000000Y-110725000D02*
X73025000Y-112750000D01*
X73025000Y-118400000D02*
X72750000Y-118675000D01*
X177000000Y-134300000D02*
X172050000Y-139250000D01*
%TO.N,PWM2*%
X108466262Y-111675000D02*
X108155833Y-111985429D01*
X112725000Y-111675000D02*
X108466262Y-111675000D01*
X112825000Y-111575000D02*
X112725000Y-111675000D01*
%TO.N,PWM3*%
X70600000Y-98150000D02*
X73238486Y-95511514D01*
X195000000Y-132425000D02*
X192600000Y-130025000D01*
X91275000Y-103400000D02*
X95976804Y-103400000D01*
X82550000Y-93125000D02*
X76809627Y-93125000D01*
X95976804Y-103400000D02*
X118026804Y-125450000D01*
X73238486Y-95511514D02*
X73238486Y-93636100D01*
X76809627Y-93125000D02*
X76382088Y-92697461D01*
X129450000Y-125450000D02*
X131425000Y-123475000D01*
X118026804Y-125450000D02*
X129450000Y-125450000D01*
X192600000Y-130025000D02*
X185025000Y-130025000D01*
%TO.N,PWM4*%
X92350000Y-81950000D02*
X94050000Y-83650000D01*
X83675000Y-81950000D02*
X92350000Y-81950000D01*
X78950000Y-83550000D02*
X82075000Y-83550000D01*
X82075000Y-83550000D02*
X83675000Y-81950000D01*
D24*
%TO.N,VBUS_5V*%
X48175000Y-88450000D02*
X47875000Y-88750000D01*
X48175000Y-85150000D02*
X48175000Y-88450000D01*
X52936389Y-104950000D02*
X55736389Y-102150000D01*
X55736389Y-102150000D02*
X69200000Y-102150000D01*
X50125000Y-104950000D02*
X52936389Y-104950000D01*
X49775000Y-101081903D02*
X49775000Y-104600000D01*
X49775000Y-104600000D02*
X50125000Y-104950000D01*
D25*
%TO.N,VIN_24V*%
X86050000Y-124675000D02*
X86800000Y-125425000D01*
X86050000Y-119400000D02*
X86050000Y-124675000D01*
D26*
%TO.N,VOUT1*%
X105807106Y-101550000D02*
X100825000Y-101550000D01*
X113350000Y-101575000D02*
X105832106Y-101575000D01*
X114050000Y-102275000D02*
X113350000Y-101575000D01*
X100825000Y-101550000D02*
X100525000Y-101850000D01*
X105832106Y-101575000D02*
X105807106Y-101550000D01*
%TO.N,VOUT2*%
X103425000Y-102525000D02*
X112850000Y-102525000D01*
X112850000Y-102525000D02*
X113650000Y-103325000D01*
%TO.N,VOUT3*%
X104000000Y-103300000D02*
X107400000Y-103300000D01*
X107400000Y-107500000D02*
X123000000Y-107500000D01*
X146850000Y-107500000D02*
X146850000Y-128150000D01*
X127500000Y-110000000D02*
X127500000Y-107500000D01*
X123000000Y-107500000D02*
X123000000Y-110000000D01*
X123000000Y-110000000D02*
X127500000Y-110000000D01*
X127500000Y-107500000D02*
X146850000Y-107500000D01*
X107400000Y-103300000D02*
X107400000Y-107500000D01*
%TO.N,VOUT4*%
X105800000Y-104400000D02*
X105800000Y-111818600D01*
X105800000Y-111818600D02*
X118306400Y-124775000D01*
%TD*%
M02*
