%TF.GenerationSoftware,KiCad,Pcbnew,10.0.4-10.0.4~ubuntu24.04.1*%
%TF.CreationDate,2026-07-05T22:26:11-05:00*%
%TF.ProjectId,laser_controller,6c617365-725f-4636-9f6e-74726f6c6c65,rev?*%
%TF.SameCoordinates,Original*%
%TF.FileFunction,Soldermask,Bot*%
%TF.FilePolarity,Negative*%
%FSLAX46Y46*%
G04 Gerber Fmt 4.6, Leading zero omitted, Abs format (unit mm)*
G04 Created by KiCad (PCBNEW 10.0.4-10.0.4~ubuntu24.04.1) date 2026-07-05 22:26:11*
%MOMM*%
%LPD*%
G01*
G04 APERTURE LIST*
G04 Aperture macros list*
%AMRoundRect*
0 Rectangle with rounded corners*
0 $1 Rounding radius*
0 $2 $3 $4 $5 $6 $7 $8 $9 X,Y pos of 4 corners*
0 Add a 4 corners polygon primitive as box body*
4,1,4,$2,$3,$4,$5,$6,$7,$8,$9,$2,$3,0*
0 Add four circle primitives for the rounded corners*
1,1,$1+$1,$2,$3*
1,1,$1+$1,$4,$5*
1,1,$1+$1,$6,$7*
1,1,$1+$1,$8,$9*
0 Add four rect primitives between the rounded corners*
20,1,$1+$1,$2,$3,$4,$5,0*
20,1,$1+$1,$4,$5,$6,$7,0*
20,1,$1+$1,$6,$7,$8,$9,0*
20,1,$1+$1,$8,$9,$2,$3,0*%
%AMFreePoly0*
4,1,21,0.435355,1.735355,0.450000,1.700000,0.450000,-1.700000,0.435355,-1.735355,0.400000,-1.750000,0.030000,-1.750000,-0.005355,-1.735355,-0.020000,-1.700000,-0.020000,-1.550000,-0.400000,-1.550000,-0.435355,-1.535355,-0.450000,-1.500000,-0.450000,1.500000,-0.435355,1.535355,-0.400000,1.550000,-0.020000,1.550000,-0.020000,1.700000,-0.005355,1.735355,0.030000,1.750000,0.400000,1.750000,
0.435355,1.735355,0.435355,1.735355,$1*%
%AMFreePoly1*
4,1,21,0.435355,1.435355,0.450000,1.400000,0.450000,-1.400000,0.435355,-1.435355,0.400000,-1.450000,0.030000,-1.450000,-0.005355,-1.435355,-0.020000,-1.400000,-0.020000,-1.300000,-0.400000,-1.300000,-0.435355,-1.285355,-0.450000,-1.250000,-0.450000,1.250000,-0.435355,1.285355,-0.400000,1.300000,-0.020000,1.300000,-0.020000,1.400000,-0.005355,1.435355,0.030000,1.450000,0.400000,1.450000,
0.435355,1.435355,0.435355,1.435355,$1*%
G04 Aperture macros list end*
%ADD10C,7.100000*%
%ADD11C,1.000000*%
%ADD12RoundRect,0.800000X-0.750000X-1.500000X0.750000X-1.500000X0.750000X1.500000X-0.750000X1.500000X0*%
%ADD13RoundRect,0.800000X-1.500000X-0.750000X1.500000X-0.750000X1.500000X0.750000X-1.500000X0.750000X0*%
%ADD14C,3.350000*%
%ADD15RoundRect,0.050000X-0.750000X0.750000X-0.750000X-0.750000X0.750000X-0.750000X0.750000X0.750000X0*%
%ADD16C,1.600000*%
%ADD17C,2.400000*%
%ADD18RoundRect,0.299600X-0.495540X0.000000X0.000000X-0.495540X0.495540X0.000000X0.000000X0.495540X0*%
%ADD19C,1.300000*%
%ADD20FreePoly0,0.000000*%
%ADD21FreePoly1,180.000000*%
%ADD22RoundRect,0.300000X-0.353553X0.000000X0.000000X-0.353553X0.353553X0.000000X0.000000X0.353553X0*%
%ADD23C,1.100000*%
%ADD24C,0.350000*%
%ADD25O,1.000000X3.200000*%
%ADD26O,3.200000X1.000000*%
G04 APERTURE END LIST*
D10*
%TO.C,H1*%
X161900000Y-110425000D03*
%TD*%
%TO.C,H2*%
X55850000Y-110425000D03*
%TD*%
D11*
%TO.C,J1*%
X37375000Y-85575000D03*
X37375000Y-89975000D03*
%TD*%
%TO.C,J2*%
X37400000Y-99375000D03*
X37400000Y-103775000D03*
%TD*%
D12*
%TO.C,J5*%
X45100000Y-133900000D03*
X38300000Y-133900000D03*
D13*
X42000000Y-138700000D03*
%TD*%
D14*
%TO.C,J6*%
X41880000Y-112405000D03*
X41880000Y-125105000D03*
D15*
X39340000Y-115195000D03*
D16*
X37560000Y-116211000D03*
X39340000Y-117227000D03*
X37560000Y-118243000D03*
X39340000Y-119259000D03*
X37560000Y-120275000D03*
X39340000Y-121291000D03*
X37560000Y-122307000D03*
X32740000Y-111895000D03*
X32740000Y-114185000D03*
X32740000Y-123325000D03*
X32740000Y-125615000D03*
D17*
X38450000Y-110625000D03*
X38450000Y-126885000D03*
%TD*%
D18*
%TO.C,LD1*%
X168880000Y-118437500D03*
D19*
X169880000Y-117437500D03*
X170880000Y-118437500D03*
%TD*%
D20*
%TO.C,D4*%
X140165000Y-118450000D03*
D21*
X135635000Y-118450000D03*
%TD*%
D20*
%TO.C,D2*%
X140165000Y-102425000D03*
D21*
X135635000Y-102425000D03*
%TD*%
D22*
%TO.C,LD4*%
X168900000Y-102437500D03*
D23*
X169900000Y-101437500D03*
X170900000Y-102437500D03*
%TD*%
D18*
%TO.C,LD2*%
X184880000Y-102437500D03*
D19*
X185880000Y-101437500D03*
X186880000Y-102437500D03*
%TD*%
D20*
%TO.C,D3*%
X156165000Y-118450000D03*
D21*
X151635000Y-118450000D03*
%TD*%
D22*
%TO.C,LD3*%
X184900000Y-118437500D03*
D23*
X185900000Y-117437500D03*
X186900000Y-118437500D03*
%TD*%
D20*
%TO.C,D1*%
X156165000Y-102450000D03*
D21*
X151635000Y-102450000D03*
%TD*%
D24*
X161900000Y-110425000D03*
X55850000Y-110425000D03*
X37375000Y-85575000D03*
X37375000Y-89975000D03*
X37400000Y-99375000D03*
X37400000Y-103775000D03*
D25*
X45100000Y-133900000D03*
X38300000Y-133900000D03*
D26*
X42000000Y-138700000D03*
D24*
X41880000Y-112405000D03*
X41880000Y-125105000D03*
X39340000Y-115195000D03*
X37560000Y-116211000D03*
X39340000Y-117227000D03*
X37560000Y-118243000D03*
X39340000Y-119259000D03*
X37560000Y-120275000D03*
X39340000Y-121291000D03*
X37560000Y-122307000D03*
X32740000Y-111895000D03*
X32740000Y-114185000D03*
X32740000Y-123325000D03*
X32740000Y-125615000D03*
X38450000Y-110625000D03*
X38450000Y-126885000D03*
X168880000Y-118437500D03*
X169880000Y-117437500D03*
X170880000Y-118437500D03*
X168900000Y-102437500D03*
X169900000Y-101437500D03*
X170900000Y-102437500D03*
X184880000Y-102437500D03*
X185880000Y-101437500D03*
X186880000Y-102437500D03*
X184900000Y-118437500D03*
X185900000Y-117437500D03*
X186900000Y-118437500D03*
M02*
