%TF.GenerationSoftware,KiCad,Pcbnew,10.0.4-10.0.4~ubuntu24.04.1*%
%TF.CreationDate,2026-07-05T22:26:11-05:00*%
%TF.ProjectId,laser_controller,6c617365-725f-4636-9f6e-74726f6c6c65,rev?*%
%TF.SameCoordinates,Original*%
%TF.FileFunction,Legend,Bot*%
%TF.FilePolarity,Positive*%
%FSLAX46Y46*%
G04 Gerber Fmt 4.6, Leading zero omitted, Abs format (unit mm)*
G04 Created by KiCad (PCBNEW 10.0.4-10.0.4~ubuntu24.04.1) date 2026-07-05 22:26:11*
%MOMM*%
%LPD*%
G01*
G04 APERTURE LIST*
%ADD10C,1.400000*%
%ADD11C,0.120000*%
G04 APERTURE END LIST*
D10*
X122000000Y-115978628D02*
X119142857Y-123978628D01*
X119142857Y-123978628D02*
X116285714Y-115978628D01*
X111714286Y-123978628D02*
X111714286Y-115978628D01*
X111714286Y-111978628D02*
X112285714Y-112550057D01*
X112285714Y-112550057D02*
X111714286Y-113121485D01*
X111714286Y-113121485D02*
X111142857Y-112550057D01*
X111142857Y-112550057D02*
X111714286Y-111978628D01*
X111714286Y-111978628D02*
X111714286Y-113121485D01*
X107142857Y-115978628D02*
X104285714Y-123978628D01*
X104285714Y-123978628D02*
X101428571Y-115978628D01*
X95142857Y-123978628D02*
X96285714Y-123407200D01*
X96285714Y-123407200D02*
X96857143Y-122835771D01*
X96857143Y-122835771D02*
X97428571Y-121692914D01*
X97428571Y-121692914D02*
X97428571Y-118264342D01*
X97428571Y-118264342D02*
X96857143Y-117121485D01*
X96857143Y-117121485D02*
X96285714Y-116550057D01*
X96285714Y-116550057D02*
X95142857Y-115978628D01*
X95142857Y-115978628D02*
X93428571Y-115978628D01*
X93428571Y-115978628D02*
X92285714Y-116550057D01*
X92285714Y-116550057D02*
X91714286Y-117121485D01*
X91714286Y-117121485D02*
X91142857Y-118264342D01*
X91142857Y-118264342D02*
X91142857Y-121692914D01*
X91142857Y-121692914D02*
X91714286Y-122835771D01*
X91714286Y-122835771D02*
X92285714Y-123407200D01*
X92285714Y-123407200D02*
X93428571Y-123978628D01*
X93428571Y-123978628D02*
X95142857Y-123978628D01*
X86000000Y-115978628D02*
X86000000Y-123978628D01*
X86000000Y-117121485D02*
X85428571Y-116550057D01*
X85428571Y-116550057D02*
X84285714Y-115978628D01*
X84285714Y-115978628D02*
X82571428Y-115978628D01*
X82571428Y-115978628D02*
X81428571Y-116550057D01*
X81428571Y-116550057D02*
X80857143Y-117692914D01*
X80857143Y-117692914D02*
X80857143Y-123978628D01*
X75142857Y-123978628D02*
X75142857Y-115978628D01*
X75142857Y-111978628D02*
X75714285Y-112550057D01*
X75714285Y-112550057D02*
X75142857Y-113121485D01*
X75142857Y-113121485D02*
X74571428Y-112550057D01*
X74571428Y-112550057D02*
X75142857Y-111978628D01*
X75142857Y-111978628D02*
X75142857Y-113121485D01*
X64285714Y-123407200D02*
X65428571Y-123978628D01*
X65428571Y-123978628D02*
X67714285Y-123978628D01*
X67714285Y-123978628D02*
X68857142Y-123407200D01*
X68857142Y-123407200D02*
X69428571Y-122835771D01*
X69428571Y-122835771D02*
X69999999Y-121692914D01*
X69999999Y-121692914D02*
X69999999Y-118264342D01*
X69999999Y-118264342D02*
X69428571Y-117121485D01*
X69428571Y-117121485D02*
X68857142Y-116550057D01*
X68857142Y-116550057D02*
X67714285Y-115978628D01*
X67714285Y-115978628D02*
X65428571Y-115978628D01*
X65428571Y-115978628D02*
X64285714Y-116550057D01*
X59714285Y-123407200D02*
X58571428Y-123978628D01*
X58571428Y-123978628D02*
X56285714Y-123978628D01*
X56285714Y-123978628D02*
X55142857Y-123407200D01*
X55142857Y-123407200D02*
X54571428Y-122264342D01*
X54571428Y-122264342D02*
X54571428Y-121692914D01*
X54571428Y-121692914D02*
X55142857Y-120550057D01*
X55142857Y-120550057D02*
X56285714Y-119978628D01*
X56285714Y-119978628D02*
X58000000Y-119978628D01*
X58000000Y-119978628D02*
X59142857Y-119407200D01*
X59142857Y-119407200D02*
X59714285Y-118264342D01*
X59714285Y-118264342D02*
X59714285Y-117692914D01*
X59714285Y-117692914D02*
X59142857Y-116550057D01*
X59142857Y-116550057D02*
X58000000Y-115978628D01*
X58000000Y-115978628D02*
X56285714Y-115978628D01*
X56285714Y-115978628D02*
X55142857Y-116550057D01*
%TO.C,LD1*%
D11*
X169380000Y-115637500D02*
X169380000Y-116037500D01*
X169380000Y-116037500D02*
X170280000Y-116037500D01*
X170280000Y-116037500D02*
X170280000Y-115637500D01*
X172730000Y-118437500D02*
G75*
G02*
X167030000Y-118437500I-2850000J0D01*
G01*
X167030000Y-118437500D02*
G75*
G02*
X172730000Y-118437500I2850000J0D01*
G01*
%TO.C,D4*%
X136400000Y-116330000D02*
X140825000Y-116330000D01*
X140825000Y-116330000D02*
X140825000Y-120570000D01*
X140825000Y-120570000D02*
X136400000Y-120570000D01*
%TO.C,D2*%
X136400000Y-100305000D02*
X140825000Y-100305000D01*
X140825000Y-100305000D02*
X140825000Y-104545000D01*
X140825000Y-104545000D02*
X136400000Y-104545000D01*
%TO.C,LD4*%
X169400000Y-99587500D02*
X169400000Y-100237500D01*
X169400000Y-100237500D02*
X170400000Y-100237500D01*
X170400000Y-100237500D02*
X170400000Y-99587500D01*
X172800000Y-102437500D02*
G75*
G02*
X167000000Y-102437500I-2900000J0D01*
G01*
X167000000Y-102437500D02*
G75*
G02*
X172800000Y-102437500I2900000J0D01*
G01*
%TO.C,LD2*%
X185380000Y-99637500D02*
X185380000Y-100037500D01*
X185380000Y-100037500D02*
X186280000Y-100037500D01*
X186280000Y-100037500D02*
X186280000Y-99637500D01*
X188730000Y-102437500D02*
G75*
G02*
X183030000Y-102437500I-2850000J0D01*
G01*
X183030000Y-102437500D02*
G75*
G02*
X188730000Y-102437500I2850000J0D01*
G01*
%TO.C,D3*%
X152400000Y-116330000D02*
X156825000Y-116330000D01*
X156825000Y-116330000D02*
X156825000Y-120570000D01*
X156825000Y-120570000D02*
X152400000Y-120570000D01*
%TO.C,LD3*%
X185400000Y-115587500D02*
X185400000Y-116237500D01*
X185400000Y-116237500D02*
X186400000Y-116237500D01*
X186400000Y-116237500D02*
X186400000Y-115587500D01*
X188800000Y-118437500D02*
G75*
G02*
X183000000Y-118437500I-2900000J0D01*
G01*
X183000000Y-118437500D02*
G75*
G02*
X188800000Y-118437500I2900000J0D01*
G01*
%TO.C,D1*%
X152400000Y-100330000D02*
X156825000Y-100330000D01*
X156825000Y-100330000D02*
X156825000Y-104570000D01*
X156825000Y-104570000D02*
X152400000Y-104570000D01*
%TD*%
M02*
