%TF.GenerationSoftware,KiCad,Pcbnew,9.0.7*%
%TF.CreationDate,2026-07-05T15:15:00-05:00*%
%TF.ProjectId,laser_controller,6c617365-725f-4636-9f6e-74726f6c6c65,rev?*%
%TF.SameCoordinates,Original*%
%TF.FileFunction,Soldermask,Bot*%
%TF.FilePolarity,Negative*%
%FSLAX46Y46*%
G04 Gerber Fmt 4.6, Leading zero omitted, Abs format (unit mm)*
G04 Created by KiCad (PCBNEW 9.0.7) date 2026-07-05 15:15:00*
%MOMM*%
%LPD*%
G01*
G04 APERTURE LIST*
G04 Aperture macros list*
%AMRoundRect*
0 Rectangle with rounded corners*
0 $1 Rounding radius*
0 $2 $3 $4 $5 $6 $7 $8 $9 X,Y pos of 4 corners*
0 Add a 4 corners polygon primitive as box body*
4,1,4,$2,$3,$4,$5,$6,$7,$8,$9,$2,$3,0*
0 Add four circle primitives for the rounded corners*
1,1,$1+$1,$2,$3*
1,1,$1+$1,$4,$5*
1,1,$1+$1,$6,$7*
1,1,$1+$1,$8,$9*
0 Add four rect primitives between the rounded corners*
20,1,$1+$1,$2,$3,$4,$5,0*
20,1,$1+$1,$4,$5,$6,$7,0*
20,1,$1+$1,$6,$7,$8,$9,0*
20,1,$1+$1,$8,$9,$2,$3,0*%
%AMFreePoly0*
4,1,21,0.435355,1.735355,0.450000,1.700000,0.450000,-1.700000,0.435355,-1.735355,0.400000,-1.750000,0.030000,-1.750000,-0.005355,-1.735355,-0.020000,-1.700000,-0.020000,-1.550000,-0.400000,-1.550000,-0.435355,-1.535355,-0.450000,-1.500000,-0.450000,1.500000,-0.435355,1.535355,-0.400000,1.550000,-0.020000,1.550000,-0.020000,1.700000,-0.005355,1.735355,0.030000,1.750000,0.400000,1.750000,
0.435355,1.735355,0.435355,1.735355,$1*%
%AMFreePoly1*
4,1,21,0.435355,1.435355,0.450000,1.400000,0.450000,-1.400000,0.435355,-1.435355,0.400000,-1.450000,0.030000,-1.450000,-0.005355,-1.435355,-0.020000,-1.400000,-0.020000,-1.300000,-0.400000,-1.300000,-0.435355,-1.285355,-0.450000,-1.250000,-0.450000,1.250000,-0.435355,1.285355,-0.400000,1.300000,-0.020000,1.300000,-0.020000,1.400000,-0.005355,1.435355,0.030000,1.450000,0.400000,1.450000,
0.435355,1.435355,0.435355,1.435355,$1*%
G04 Aperture macros list end*
%ADD10C,7.100000*%
%ADD11C,1.000000*%
%ADD12RoundRect,0.775000X-0.775000X-1.525000X0.775000X-1.525000X0.775000X1.525000X-0.775000X1.525000X0*%
%ADD13RoundRect,0.775000X-1.525000X-0.775000X1.525000X-0.775000X1.525000X0.775000X-1.525000X0.775000X0*%
%ADD14C,3.350000*%
%ADD15RoundRect,0.050000X-0.750000X0.750000X-0.750000X-0.750000X0.750000X-0.750000X0.750000X0.750000X0*%
%ADD16C,1.600000*%
%ADD17C,2.400000*%
%ADD18RoundRect,0.050000X0.800000X-0.650000X0.800000X0.650000X-0.800000X0.650000X-0.800000X-0.650000X0*%
%ADD19RoundRect,0.050000X0.800000X-1.000000X0.800000X1.000000X-0.800000X1.000000X-0.800000X-1.000000X0*%
%ADD20RoundRect,0.262500X0.262500X-0.325000X0.262500X0.325000X-0.262500X0.325000X-0.262500X-0.325000X0*%
%ADD21RoundRect,0.175000X0.850000X0.175000X-0.850000X0.175000X-0.850000X-0.175000X0.850000X-0.175000X0*%
%ADD22RoundRect,0.270400X-0.536835X0.000000X0.000000X-0.536835X0.536835X0.000000X0.000000X0.536835X0*%
%ADD23C,1.300000*%
%ADD24RoundRect,0.180000X-0.237500X-0.180000X0.237500X-0.180000X0.237500X0.180000X-0.237500X0.180000X0*%
%ADD25FreePoly0,0.000000*%
%ADD26FreePoly1,180.000000*%
%ADD27RoundRect,0.262500X0.325000X0.262500X-0.325000X0.262500X-0.325000X-0.262500X0.325000X-0.262500X0*%
%ADD28RoundRect,0.180000X0.180000X-0.237500X0.180000X0.237500X-0.180000X0.237500X-0.180000X-0.237500X0*%
%ADD29RoundRect,0.050000X-0.650000X-0.800000X0.650000X-0.800000X0.650000X0.800000X-0.650000X0.800000X0*%
%ADD30RoundRect,0.050000X-1.000000X-0.800000X1.000000X-0.800000X1.000000X0.800000X-1.000000X0.800000X0*%
%ADD31RoundRect,0.275000X-0.388909X0.000000X0.000000X-0.388909X0.388909X0.000000X0.000000X0.388909X0*%
%ADD32C,1.100000*%
%ADD33RoundRect,0.180000X-0.180000X0.237500X-0.180000X-0.237500X0.180000X-0.237500X0.180000X0.237500X0*%
G04 APERTURE END LIST*
D10*
%TO.C,H1*%
X161900000Y-110425000D03*
%TD*%
%TO.C,H2*%
X55850000Y-110425000D03*
%TD*%
D11*
%TO.C,J1*%
X37375000Y-85575000D03*
X37375000Y-89975000D03*
%TD*%
%TO.C,J2*%
X37400000Y-99375000D03*
X37400000Y-103775000D03*
%TD*%
D12*
%TO.C,J5*%
X45100000Y-133900000D03*
X38300000Y-133900000D03*
D13*
X42000000Y-138700000D03*
%TD*%
D14*
%TO.C,J6*%
X41880000Y-112405000D03*
X41880000Y-125105000D03*
D15*
X39340000Y-115195000D03*
D16*
X37560000Y-116211000D03*
X39340000Y-117227000D03*
X37560000Y-118243000D03*
X39340000Y-119259000D03*
X37560000Y-120275000D03*
X39340000Y-121291000D03*
X37560000Y-122307000D03*
X32740000Y-111895000D03*
X32740000Y-114185000D03*
X32740000Y-123325000D03*
X32740000Y-125615000D03*
D17*
X38450000Y-110625000D03*
X38450000Y-126885000D03*
%TD*%
D18*
%TO.C,RV8*%
X132050000Y-111450000D03*
D19*
X130800000Y-108550000D03*
D18*
X129550000Y-111450000D03*
%TD*%
D20*
%TO.C,C13*%
X132562499Y-114500000D03*
X130837499Y-114500000D03*
%TD*%
D21*
%TO.C,U2*%
X133275000Y-101155000D03*
X133275000Y-102425000D03*
X133275000Y-103695000D03*
X133275000Y-104965000D03*
X128325000Y-104965000D03*
X128325000Y-103695000D03*
X128325000Y-102425000D03*
X128325000Y-101155000D03*
%TD*%
D22*
%TO.C,LD1*%
X168880000Y-118437500D03*
D23*
X169880000Y-117437500D03*
X170880000Y-118437500D03*
%TD*%
D21*
%TO.C,U4*%
X133275000Y-117180000D03*
X133275000Y-118450000D03*
X133275000Y-119720000D03*
X133275000Y-120990000D03*
X128325000Y-120990000D03*
X128325000Y-119720000D03*
X128325000Y-118450000D03*
X128325000Y-117180000D03*
%TD*%
D20*
%TO.C,C5*%
X132562499Y-99000000D03*
X130837499Y-99000000D03*
%TD*%
D21*
%TO.C,U3*%
X149275000Y-117180000D03*
X149275000Y-118450000D03*
X149275000Y-119720000D03*
X149275000Y-120990000D03*
X144325000Y-120990000D03*
X144325000Y-119720000D03*
X144325000Y-118450000D03*
X144325000Y-117180000D03*
%TD*%
D24*
%TO.C,C6*%
X123000000Y-107367500D03*
X123000000Y-106232500D03*
%TD*%
D20*
%TO.C,C9*%
X148562500Y-114500000D03*
X146837500Y-114500000D03*
%TD*%
D18*
%TO.C,RV7*%
X148050000Y-111450000D03*
D19*
X146800000Y-108550000D03*
D18*
X145550000Y-111450000D03*
%TD*%
D25*
%TO.C,D4*%
X140165000Y-118450000D03*
D26*
X135635000Y-118450000D03*
%TD*%
D25*
%TO.C,D2*%
X140165000Y-102425000D03*
D26*
X135635000Y-102425000D03*
%TD*%
D27*
%TO.C,C1*%
X148562500Y-99000000D03*
X146837500Y-99000000D03*
%TD*%
D28*
%TO.C,C10*%
X139000000Y-114467500D03*
X139000000Y-113332500D03*
%TD*%
D29*
%TO.C,RV5*%
X148050000Y-95950000D03*
D30*
X146800000Y-93050000D03*
D29*
X145550000Y-95950000D03*
%TD*%
D31*
%TO.C,LD4*%
X168900000Y-102437500D03*
D32*
X169900000Y-101437500D03*
X170900000Y-102437500D03*
%TD*%
D22*
%TO.C,LD2*%
X184880000Y-102437500D03*
D23*
X185880000Y-101437500D03*
X186880000Y-102437500D03*
%TD*%
D28*
%TO.C,C14*%
X123000000Y-114467500D03*
X123000000Y-113332500D03*
%TD*%
D18*
%TO.C,RV6*%
X132050000Y-95950000D03*
D19*
X130800000Y-93050000D03*
D18*
X129550000Y-95950000D03*
%TD*%
D33*
%TO.C,C2*%
X139000000Y-107367500D03*
X139000000Y-106232500D03*
%TD*%
D25*
%TO.C,D3*%
X156165000Y-118450000D03*
D26*
X151635000Y-118450000D03*
%TD*%
D31*
%TO.C,LD3*%
X184900000Y-118437500D03*
D32*
X185900000Y-117437500D03*
X186900000Y-118437500D03*
%TD*%
D25*
%TO.C,D1*%
X156165000Y-102450000D03*
D26*
X151635000Y-102450000D03*
%TD*%
D21*
%TO.C,U1*%
X149275000Y-101180000D03*
X149275000Y-102450000D03*
X149275000Y-103720000D03*
X149275000Y-104990000D03*
X144325000Y-104990000D03*
X144325000Y-103720000D03*
X144325000Y-102450000D03*
X144325000Y-101180000D03*
%TD*%
M02*
