%TF.GenerationSoftware,KiCad,Pcbnew,7.0.11+dfsg-1build4*%
%TF.CreationDate,2026-07-04T23:39:51-05:00*%
%TF.ProjectId,laser_controller,6c617365-725f-4636-9f6e-74726f6c6c65,rev?*%
%TF.SameCoordinates,Original*%
%TF.FileFunction,Soldermask,Bot*%
%TF.FilePolarity,Negative*%
%FSLAX46Y46*%
G04 Gerber Fmt 4.6, Leading zero omitted, Abs format (unit mm)*
G04 Created by KiCad (PCBNEW 7.0.11+dfsg-1build4) date 2026-07-04 23:39:51*
%MOMM*%
%LPD*%
G01*
G04 APERTURE LIST*
G04 Aperture macros list*
%AMRoundRect*
0 Rectangle with rounded corners*
0 $1 Rounding radius*
0 $2 $3 $4 $5 $6 $7 $8 $9 X,Y pos of 4 corners*
0 Add a 4 corners polygon primitive as box body*
4,1,4,$2,$3,$4,$5,$6,$7,$8,$9,$2,$3,0*
0 Add four circle primitives for the rounded corners*
1,1,$1+$1,$2,$3*
1,1,$1+$1,$4,$5*
1,1,$1+$1,$6,$7*
1,1,$1+$1,$8,$9*
0 Add four rect primitives between the rounded corners*
20,1,$1+$1,$2,$3,$4,$5,0*
20,1,$1+$1,$4,$5,$6,$7,0*
20,1,$1+$1,$6,$7,$8,$9,0*
20,1,$1+$1,$8,$9,$2,$3,0*%
G04 Aperture macros list end*
%ADD10C,7.100000*%
%ADD11C,1.000000*%
%ADD12RoundRect,0.270400X0.000000X-0.536835X0.536835X0.000000X0.000000X0.536835X-0.536835X0.000000X0*%
%ADD13C,1.300000*%
%ADD14RoundRect,0.275000X0.000000X-0.388909X0.388909X0.000000X0.000000X0.388909X-0.388909X0.000000X0*%
%ADD15C,1.100000*%
%ADD16RoundRect,0.775000X-0.775000X-1.525000X0.775000X-1.525000X0.775000X1.525000X-0.775000X1.525000X0*%
%ADD17RoundRect,0.775000X-1.525000X-0.775000X1.525000X-0.775000X1.525000X0.775000X-1.525000X0.775000X0*%
%ADD18C,3.350000*%
%ADD19RoundRect,0.050000X-0.750000X0.750000X-0.750000X-0.750000X0.750000X-0.750000X0.750000X0.750000X0*%
%ADD20C,1.600000*%
%ADD21C,2.400000*%
G04 APERTURE END LIST*
D10*
%TO.C,H1*%
X161900000Y-110425000D03*
%TD*%
%TO.C,H2*%
X55850000Y-110425000D03*
%TD*%
D11*
%TO.C,J1*%
X37375000Y-85575000D03*
X37375000Y-89975000D03*
%TD*%
D12*
%TO.C,LD1*%
X168880000Y-118437500D03*
D13*
X169880000Y-119437500D03*
X170880000Y-118437500D03*
%TD*%
D11*
%TO.C,J2*%
X37400000Y-99375000D03*
X37400000Y-103775000D03*
%TD*%
D14*
%TO.C,LD4*%
X168900000Y-102437500D03*
D15*
X169900000Y-103437500D03*
X170900000Y-102437500D03*
%TD*%
D12*
%TO.C,LD2*%
X184880000Y-102437500D03*
D13*
X185880000Y-103437500D03*
X186880000Y-102437500D03*
%TD*%
D16*
%TO.C,J5*%
X45100000Y-133900000D03*
X38300000Y-133900000D03*
D17*
X42000000Y-138700000D03*
%TD*%
D14*
%TO.C,LD3*%
X184900000Y-118437500D03*
D15*
X185900000Y-119437500D03*
X186900000Y-118437500D03*
%TD*%
D18*
%TO.C,J6*%
X41880000Y-112405000D03*
X41880000Y-125105000D03*
D19*
X39340000Y-115195000D03*
D20*
X37560000Y-116211000D03*
X39340000Y-117227000D03*
X37560000Y-118243000D03*
X39340000Y-119259000D03*
X37560000Y-120275000D03*
X39340000Y-121291000D03*
X37560000Y-122307000D03*
X32740000Y-111895000D03*
X32740000Y-114185000D03*
X32740000Y-123325000D03*
X32740000Y-125615000D03*
D21*
X38450000Y-110625000D03*
X38450000Y-126885000D03*
%TD*%
M02*
