%TF.GenerationSoftware,KiCad,Pcbnew,7.0.11+dfsg-1build4*%
%TF.CreationDate,2026-07-05T01:58:25-05:00*%
%TF.ProjectId,laser_controller,6c617365-725f-4636-9f6e-74726f6c6c65,rev?*%
%TF.SameCoordinates,Original*%
%TF.FileFunction,Copper,L1,Top*%
%TF.FilePolarity,Positive*%
%FSLAX46Y46*%
G04 Gerber Fmt 4.6, Leading zero omitted, Abs format (unit mm)*
G04 Created by KiCad (PCBNEW 7.0.11+dfsg-1build4) date 2026-07-05 01:58:25*
%MOMM*%
%LPD*%
G01*
G04 APERTURE LIST*
G04 Aperture macros list*
%AMRoundRect*
0 Rectangle with rounded corners*
0 $1 Rounding radius*
0 $2 $3 $4 $5 $6 $7 $8 $9 X,Y pos of 4 corners*
0 Add a 4 corners polygon primitive as box body*
4,1,4,$2,$3,$4,$5,$6,$7,$8,$9,$2,$3,0*
0 Add four circle primitives for the rounded corners*
1,1,$1+$1,$2,$3*
1,1,$1+$1,$4,$5*
1,1,$1+$1,$6,$7*
1,1,$1+$1,$8,$9*
0 Add four rect primitives between the rounded corners*
20,1,$1+$1,$2,$3,$4,$5,0*
20,1,$1+$1,$4,$5,$6,$7,0*
20,1,$1+$1,$6,$7,$8,$9,0*
20,1,$1+$1,$8,$9,$2,$3,0*%
%AMFreePoly0*
4,1,9,0.400000,-1.700000,0.030000,-1.700000,0.030000,-1.500000,-0.400000,-1.500000,-0.400000,1.500000,0.030000,1.500000,0.030000,1.700000,0.400000,1.700000,0.400000,-1.700000,0.400000,-1.700000,$1*%
%AMFreePoly1*
4,1,9,0.400000,-1.400000,0.030000,-1.400000,0.030000,-1.250000,-0.400000,-1.250000,-0.400000,1.250000,0.030000,1.250000,0.030000,1.400000,0.400000,1.400000,0.400000,-1.400000,0.400000,-1.400000,$1*%
G04 Aperture macros list end*
%TA.AperFunction,ComponentPad*%
%ADD10C,7.000000*%
%TD*%
%TA.AperFunction,SMDPad,CuDef*%
%ADD11R,1.300000X1.600000*%
%TD*%
%TA.AperFunction,SMDPad,CuDef*%
%ADD12R,2.000000X1.600000*%
%TD*%
%TA.AperFunction,SMDPad,CuDef*%
%ADD13RoundRect,0.237500X-0.250000X-0.237500X0.250000X-0.237500X0.250000X0.237500X-0.250000X0.237500X0*%
%TD*%
%TA.AperFunction,SMDPad,CuDef*%
%ADD14RoundRect,0.237500X-0.300000X-0.237500X0.300000X-0.237500X0.300000X0.237500X-0.300000X0.237500X0*%
%TD*%
%TA.AperFunction,SMDPad,CuDef*%
%ADD15RoundRect,0.150000X-0.150000X-0.200000X0.150000X-0.200000X0.150000X0.200000X-0.150000X0.200000X0*%
%TD*%
%TA.AperFunction,SMDPad,CuDef*%
%ADD16RoundRect,0.250000X0.337500X0.475000X-0.337500X0.475000X-0.337500X-0.475000X0.337500X-0.475000X0*%
%TD*%
%TA.AperFunction,SMDPad,CuDef*%
%ADD17RoundRect,0.155000X-0.212500X-0.155000X0.212500X-0.155000X0.212500X0.155000X-0.212500X0.155000X0*%
%TD*%
%TA.AperFunction,SMDPad,CuDef*%
%ADD18RoundRect,0.155000X0.212500X0.155000X-0.212500X0.155000X-0.212500X-0.155000X0.212500X-0.155000X0*%
%TD*%
%TA.AperFunction,SMDPad,CuDef*%
%ADD19RoundRect,0.250000X-0.337500X-0.475000X0.337500X-0.475000X0.337500X0.475000X-0.337500X0.475000X0*%
%TD*%
%TA.AperFunction,SMDPad,CuDef*%
%ADD20RoundRect,0.155000X0.155000X-0.212500X0.155000X0.212500X-0.155000X0.212500X-0.155000X-0.212500X0*%
%TD*%
%TA.AperFunction,SMDPad,CuDef*%
%ADD21R,2.500000X0.500000*%
%TD*%
%TA.AperFunction,SMDPad,CuDef*%
%ADD22R,2.500000X2.000000*%
%TD*%
%TA.AperFunction,SMDPad,CuDef*%
%ADD23RoundRect,0.225000X0.225000X0.375000X-0.225000X0.375000X-0.225000X-0.375000X0.225000X-0.375000X0*%
%TD*%
%TA.AperFunction,SMDPad,CuDef*%
%ADD24RoundRect,0.150000X-0.200000X0.150000X-0.200000X-0.150000X0.200000X-0.150000X0.200000X0.150000X0*%
%TD*%
%TA.AperFunction,SMDPad,CuDef*%
%ADD25RoundRect,0.150000X-0.150000X0.825000X-0.150000X-0.825000X0.150000X-0.825000X0.150000X0.825000X0*%
%TD*%
%TA.AperFunction,SMDPad,CuDef*%
%ADD26RoundRect,0.237500X0.250000X0.237500X-0.250000X0.237500X-0.250000X-0.237500X0.250000X-0.237500X0*%
%TD*%
%TA.AperFunction,SMDPad,CuDef*%
%ADD27RoundRect,0.237500X0.237500X-0.250000X0.237500X0.250000X-0.237500X0.250000X-0.237500X-0.250000X0*%
%TD*%
%TA.AperFunction,SMDPad,CuDef*%
%ADD28RoundRect,0.250000X-0.475000X0.337500X-0.475000X-0.337500X0.475000X-0.337500X0.475000X0.337500X0*%
%TD*%
%TA.AperFunction,SMDPad,CuDef*%
%ADD29RoundRect,0.250000X1.000000X0.650000X-1.000000X0.650000X-1.000000X-0.650000X1.000000X-0.650000X0*%
%TD*%
%TA.AperFunction,SMDPad,CuDef*%
%ADD30RoundRect,0.250000X-0.650000X0.412500X-0.650000X-0.412500X0.650000X-0.412500X0.650000X0.412500X0*%
%TD*%
%TA.AperFunction,SMDPad,CuDef*%
%ADD31RoundRect,0.249999X0.450001X1.425001X-0.450001X1.425001X-0.450001X-1.425001X0.450001X-1.425001X0*%
%TD*%
%TA.AperFunction,ComponentPad*%
%ADD32RoundRect,0.249600X0.000000X-0.495540X0.495540X0.000000X0.000000X0.495540X-0.495540X0.000000X0*%
%TD*%
%TA.AperFunction,ComponentPad*%
%ADD33C,1.200000*%
%TD*%
%TA.AperFunction,SMDPad,CuDef*%
%ADD34RoundRect,0.155000X-0.155000X0.212500X-0.155000X-0.212500X0.155000X-0.212500X0.155000X0.212500X0*%
%TD*%
%TA.AperFunction,SMDPad,CuDef*%
%ADD35RoundRect,0.150000X-0.825000X-0.150000X0.825000X-0.150000X0.825000X0.150000X-0.825000X0.150000X0*%
%TD*%
%TA.AperFunction,SMDPad,CuDef*%
%ADD36RoundRect,0.150000X-0.150000X0.587500X-0.150000X-0.587500X0.150000X-0.587500X0.150000X0.587500X0*%
%TD*%
%TA.AperFunction,SMDPad,CuDef*%
%ADD37RoundRect,0.150000X0.150000X-0.587500X0.150000X0.587500X-0.150000X0.587500X-0.150000X-0.587500X0*%
%TD*%
%TA.AperFunction,SMDPad,CuDef*%
%ADD38RoundRect,0.237500X-0.237500X0.300000X-0.237500X-0.300000X0.237500X-0.300000X0.237500X0.300000X0*%
%TD*%
%TA.AperFunction,SMDPad,CuDef*%
%ADD39RoundRect,0.250000X0.475000X-0.337500X0.475000X0.337500X-0.475000X0.337500X-0.475000X-0.337500X0*%
%TD*%
%TA.AperFunction,SMDPad,CuDef*%
%ADD40RoundRect,0.150000X0.150000X-0.825000X0.150000X0.825000X-0.150000X0.825000X-0.150000X-0.825000X0*%
%TD*%
%TA.AperFunction,SMDPad,CuDef*%
%ADD41RoundRect,0.150000X-0.587500X-0.150000X0.587500X-0.150000X0.587500X0.150000X-0.587500X0.150000X0*%
%TD*%
%TA.AperFunction,SMDPad,CuDef*%
%ADD42R,3.700000X1.100000*%
%TD*%
%TA.AperFunction,SMDPad,CuDef*%
%ADD43RoundRect,0.150000X-0.150000X0.512500X-0.150000X-0.512500X0.150000X-0.512500X0.150000X0.512500X0*%
%TD*%
%TA.AperFunction,SMDPad,CuDef*%
%ADD44RoundRect,0.240000X-0.560000X-0.660000X0.560000X-0.660000X0.560000X0.660000X-0.560000X0.660000X0*%
%TD*%
%TA.AperFunction,SMDPad,CuDef*%
%ADD45RoundRect,0.160000X0.160000X-0.197500X0.160000X0.197500X-0.160000X0.197500X-0.160000X-0.197500X0*%
%TD*%
%TA.AperFunction,SMDPad,CuDef*%
%ADD46R,1.500000X2.400000*%
%TD*%
%TA.AperFunction,SMDPad,CuDef*%
%ADD47RoundRect,0.237500X0.300000X0.237500X-0.300000X0.237500X-0.300000X-0.237500X0.300000X-0.237500X0*%
%TD*%
%TA.AperFunction,SMDPad,CuDef*%
%ADD48R,1.600000X1.300000*%
%TD*%
%TA.AperFunction,SMDPad,CuDef*%
%ADD49R,1.600000X2.000000*%
%TD*%
%TA.AperFunction,SMDPad,CuDef*%
%ADD50RoundRect,0.237500X-0.237500X0.250000X-0.237500X-0.250000X0.237500X-0.250000X0.237500X0.250000X0*%
%TD*%
%TA.AperFunction,SMDPad,CuDef*%
%ADD51RoundRect,0.075000X0.700000X0.075000X-0.700000X0.075000X-0.700000X-0.075000X0.700000X-0.075000X0*%
%TD*%
%TA.AperFunction,SMDPad,CuDef*%
%ADD52RoundRect,0.075000X0.075000X0.700000X-0.075000X0.700000X-0.075000X-0.700000X0.075000X-0.700000X0*%
%TD*%
%TA.AperFunction,SMDPad,CuDef*%
%ADD53RoundRect,0.062500X0.062500X-0.337500X0.062500X0.337500X-0.062500X0.337500X-0.062500X-0.337500X0*%
%TD*%
%TA.AperFunction,SMDPad,CuDef*%
%ADD54RoundRect,0.062500X0.337500X-0.062500X0.337500X0.062500X-0.337500X0.062500X-0.337500X-0.062500X0*%
%TD*%
%TA.AperFunction,HeatsinkPad*%
%ADD55R,3.350000X3.350000*%
%TD*%
%TA.AperFunction,SMDPad,CuDef*%
%ADD56RoundRect,0.150000X-0.512500X-0.150000X0.512500X-0.150000X0.512500X0.150000X-0.512500X0.150000X0*%
%TD*%
%TA.AperFunction,SMDPad,CuDef*%
%ADD57RoundRect,0.160000X0.197500X0.160000X-0.197500X0.160000X-0.197500X-0.160000X0.197500X-0.160000X0*%
%TD*%
%TA.AperFunction,SMDPad,CuDef*%
%ADD58FreePoly0,0.000000*%
%TD*%
%TA.AperFunction,SMDPad,CuDef*%
%ADD59FreePoly1,180.000000*%
%TD*%
%TA.AperFunction,SMDPad,CuDef*%
%ADD60RoundRect,0.150000X0.150000X0.200000X-0.150000X0.200000X-0.150000X-0.200000X0.150000X-0.200000X0*%
%TD*%
%TA.AperFunction,ComponentPad*%
%ADD61RoundRect,0.250000X0.000000X-0.353553X0.353553X0.000000X0.000000X0.353553X-0.353553X0.000000X0*%
%TD*%
%TA.AperFunction,ComponentPad*%
%ADD62C,1.000000*%
%TD*%
%TA.AperFunction,SMDPad,CuDef*%
%ADD63RoundRect,0.150000X0.512500X0.150000X-0.512500X0.150000X-0.512500X-0.150000X0.512500X-0.150000X0*%
%TD*%
%TA.AperFunction,SMDPad,CuDef*%
%ADD64RoundRect,0.249999X-0.450001X-1.425001X0.450001X-1.425001X0.450001X1.425001X-0.450001X1.425001X0*%
%TD*%
%TA.AperFunction,SMDPad,CuDef*%
%ADD65RoundRect,0.150000X0.587500X0.150000X-0.587500X0.150000X-0.587500X-0.150000X0.587500X-0.150000X0*%
%TD*%
%TA.AperFunction,ComponentPad*%
%ADD66RoundRect,0.750000X-0.750000X-1.500000X0.750000X-1.500000X0.750000X1.500000X-0.750000X1.500000X0*%
%TD*%
%TA.AperFunction,ComponentPad*%
%ADD67RoundRect,0.750000X-1.500000X-0.750000X1.500000X-0.750000X1.500000X0.750000X-1.500000X0.750000X0*%
%TD*%
%TA.AperFunction,SMDPad,CuDef*%
%ADD68RoundRect,0.250000X-1.000000X-0.650000X1.000000X-0.650000X1.000000X0.650000X-1.000000X0.650000X0*%
%TD*%
%TA.AperFunction,SMDPad,CuDef*%
%ADD69R,1.500000X0.900000*%
%TD*%
%TA.AperFunction,SMDPad,CuDef*%
%ADD70R,0.900000X1.500000*%
%TD*%
%TA.AperFunction,SMDPad,CuDef*%
%ADD71R,0.900000X0.900000*%
%TD*%
%TA.AperFunction,SMDPad,CuDef*%
%ADD72RoundRect,0.160000X-0.197500X-0.160000X0.197500X-0.160000X0.197500X0.160000X-0.197500X0.160000X0*%
%TD*%
%TA.AperFunction,SMDPad,CuDef*%
%ADD73R,1.550000X1.300000*%
%TD*%
%TA.AperFunction,SMDPad,CuDef*%
%ADD74RoundRect,0.250001X0.799999X-1.999999X0.799999X1.999999X-0.799999X1.999999X-0.799999X-1.999999X0*%
%TD*%
%TA.AperFunction,SMDPad,CuDef*%
%ADD75RoundRect,0.160000X-0.160000X0.197500X-0.160000X-0.197500X0.160000X-0.197500X0.160000X0.197500X0*%
%TD*%
%TA.AperFunction,SMDPad,CuDef*%
%ADD76RoundRect,0.100000X-0.637500X-0.100000X0.637500X-0.100000X0.637500X0.100000X-0.637500X0.100000X0*%
%TD*%
%TA.AperFunction,ComponentPad*%
%ADD77R,1.500000X1.500000*%
%TD*%
%TA.AperFunction,ComponentPad*%
%ADD78C,1.500000*%
%TD*%
%TA.AperFunction,ComponentPad*%
%ADD79C,2.300000*%
%TD*%
%TA.AperFunction,ViaPad*%
%ADD80C,1.000000*%
%TD*%
%TA.AperFunction,ViaPad*%
%ADD81C,0.600000*%
%TD*%
%TA.AperFunction,ViaPad*%
%ADD82C,1.200000*%
%TD*%
%TA.AperFunction,Conductor*%
%ADD83C,0.250000*%
%TD*%
%TA.AperFunction,Conductor*%
%ADD84C,0.500000*%
%TD*%
%TA.AperFunction,Conductor*%
%ADD85C,0.600000*%
%TD*%
%TA.AperFunction,Conductor*%
%ADD86C,0.200000*%
%TD*%
%TA.AperFunction,Conductor*%
%ADD87C,0.800000*%
%TD*%
%TA.AperFunction,Conductor*%
%ADD88C,0.400000*%
%TD*%
%TA.AperFunction,Conductor*%
%ADD89C,0.300000*%
%TD*%
G04 APERTURE END LIST*
D10*
%TO.P,H1,1*%
%TO.N,GND*%
X161900000Y-110425000D03*
%TD*%
%TO.P,H2,1*%
%TO.N,GND*%
X55850000Y-110425000D03*
%TD*%
D11*
%TO.P,RV8,1*%
%TO.N,Net-(D4-A)*%
X137488000Y-126581500D03*
D12*
%TO.P,RV8,2*%
%TO.N,VOUT4*%
X140388000Y-127831500D03*
D11*
%TO.P,RV8,3*%
X137488000Y-129081500D03*
%TD*%
D13*
%TO.P,R15,1*%
%TO.N,Net-(RV4-W)*%
X129687500Y-134856000D03*
%TO.P,R15,2*%
%TO.N,Net-(U4-+)*%
X131512500Y-134856000D03*
%TD*%
%TO.P,R22,1*%
%TO.N,/LASER_RED/LOUT*%
X191735500Y-84434000D03*
%TO.P,R22,2*%
%TO.N,Net-(Q2-G)*%
X193560500Y-84434000D03*
%TD*%
D14*
%TO.P,C13,1*%
%TO.N,Net-(D4-A)*%
X134500000Y-125800000D03*
%TO.P,C13,2*%
%TO.N,VOUT4*%
X134500000Y-127525000D03*
%TD*%
D15*
%TO.P,D14,1*%
%TO.N,GND*%
X51422500Y-98725000D03*
%TO.P,D14,2*%
%TO.N,VBUS_5V*%
X50022500Y-98725000D03*
%TD*%
D16*
%TO.P,C67,1*%
%TO.N,LASER_V+*%
X105637500Y-124775000D03*
%TO.P,C67,2*%
%TO.N,GND*%
X103562500Y-124775000D03*
%TD*%
D17*
%TO.P,C44,1*%
%TO.N,/MCU_ESP32-S3/EN*%
X62152500Y-128725000D03*
%TO.P,C44,2*%
%TO.N,GND*%
X63287500Y-128725000D03*
%TD*%
%TO.P,C26,1*%
%TO.N,+5V*%
X174350000Y-86825000D03*
%TO.P,C26,2*%
%TO.N,GND*%
X174350000Y-85690000D03*
%TD*%
D18*
%TO.P,C55,1*%
%TO.N,+3V3*%
X96067500Y-90150000D03*
%TO.P,C55,2*%
%TO.N,GND*%
X94932500Y-90150000D03*
%TD*%
D13*
%TO.P,R25,1*%
%TO.N,PWM2*%
X187568000Y-86315500D03*
%TO.P,R25,2*%
%TO.N,Net-(U6-+)*%
X187568000Y-88140500D03*
%TD*%
D19*
%TO.P,C56,1*%
%TO.N,+5V*%
X112582500Y-95225000D03*
%TO.P,C56,2*%
%TO.N,GND*%
X114657500Y-95225000D03*
%TD*%
D20*
%TO.P,C49,1*%
%TO.N,+3V3*%
X106602500Y-107262500D03*
%TO.P,C49,2*%
%TO.N,GND*%
X106602500Y-106127500D03*
%TD*%
D21*
%TO.P,J1,1*%
%TO.N,Net-(D10-A)*%
X39975000Y-86175000D03*
%TO.P,J1,2*%
%TO.N,/MCU_ESP32-S3/D-*%
X39975000Y-86975000D03*
%TO.P,J1,3*%
%TO.N,/MCU_ESP32-S3/D+*%
X39975000Y-87775000D03*
%TO.P,J1,4*%
%TO.N,N/C*%
X39975000Y-88575000D03*
%TO.P,J1,5*%
%TO.N,GND*%
X39975000Y-89375000D03*
D22*
%TO.P,J1,6*%
X39975000Y-83375000D03*
X34475000Y-83375000D03*
X39975000Y-92175000D03*
X34475000Y-92175000D03*
%TD*%
D18*
%TO.P,C23,1*%
%TO.N,+5V*%
X193094500Y-135203000D03*
%TO.P,C23,2*%
%TO.N,GND*%
X194229500Y-135203000D03*
%TD*%
D23*
%TO.P,D10,1*%
%TO.N,VBUS_5V*%
X46775000Y-84950000D03*
%TO.P,D10,2*%
%TO.N,Net-(D10-A)*%
X43475000Y-84950000D03*
%TD*%
D20*
%TO.P,C43,1*%
%TO.N,+3V3*%
X60454200Y-82788300D03*
%TO.P,C43,2*%
%TO.N,GND*%
X60454200Y-81653300D03*
%TD*%
D24*
%TO.P,D12,1*%
%TO.N,GND*%
X45175000Y-103050000D03*
%TO.P,D12,2*%
%TO.N,/MCU_ESP32-S3/IO19*%
X45175000Y-101650000D03*
%TD*%
D25*
%TO.P,U2,1*%
%TO.N,N/C*%
X125165000Y-105550000D03*
%TO.P,U2,2*%
%TO.N,Net-(D2-A)*%
X123895000Y-105550000D03*
%TO.P,U2,3*%
%TO.N,Net-(U2-+)*%
X122625000Y-105550000D03*
%TO.P,U2,4*%
%TO.N,GND*%
X121355000Y-105550000D03*
%TO.P,U2,5*%
%TO.N,N/C*%
X121355000Y-110500000D03*
%TO.P,U2,6*%
%TO.N,VOUT2*%
X122625000Y-110500000D03*
%TO.P,U2,7*%
%TO.N,+5V*%
X123895000Y-110500000D03*
%TO.P,U2,8*%
%TO.N,N/C*%
X125165000Y-110500000D03*
%TD*%
D26*
%TO.P,R49,1*%
%TO.N,/POWER_IO/MPD_AMP4*%
X69837500Y-106225000D03*
%TO.P,R49,2*%
%TO.N,MPD4*%
X68012500Y-106225000D03*
%TD*%
D13*
%TO.P,R24,1*%
%TO.N,/LASER_RED/FB*%
X194936000Y-92966500D03*
%TO.P,R24,2*%
%TO.N,ISENSE2*%
X194936000Y-91141500D03*
%TD*%
D27*
%TO.P,R12,1*%
%TO.N,+5V*%
X153975000Y-134300000D03*
%TO.P,R12,2*%
%TO.N,Net-(R12-Pad2)*%
X153975000Y-136125000D03*
%TD*%
D28*
%TO.P,C8,1*%
%TO.N,Net-(U2-+)*%
X123317500Y-102465000D03*
%TO.P,C8,2*%
%TO.N,GND*%
X123317500Y-100390000D03*
%TD*%
D17*
%TO.P,C39,1*%
%TO.N,MPD3*%
X65000000Y-118075000D03*
%TO.P,C39,2*%
%TO.N,GND*%
X66135000Y-118075000D03*
%TD*%
D29*
%TO.P,D6,1*%
%TO.N,/POWER_IO/BUCK_5V*%
X95312500Y-115700000D03*
%TO.P,D6,2*%
%TO.N,+5V*%
X99312500Y-115700000D03*
%TD*%
D30*
%TO.P,C62,1*%
%TO.N,VIN_24V*%
X101000000Y-133887500D03*
%TO.P,C62,2*%
%TO.N,GND*%
X101000000Y-137012500D03*
%TD*%
D31*
%TO.P,R28,1*%
%TO.N,/LASER_GREEN/FB*%
X190888000Y-128169500D03*
%TO.P,R28,2*%
%TO.N,GND*%
X196988000Y-128169500D03*
%TD*%
D17*
%TO.P,C53,1*%
%TO.N,+5V*%
X112282500Y-98425000D03*
%TO.P,C53,2*%
%TO.N,GND*%
X113417500Y-98425000D03*
%TD*%
D26*
%TO.P,R21,1*%
%TO.N,Net-(U5-+)*%
X179187000Y-131801000D03*
%TO.P,R21,2*%
%TO.N,GND*%
X179187000Y-133626000D03*
%TD*%
D32*
%TO.P,LD1,1*%
%TO.N,LASER_N1*%
X168880000Y-118437500D03*
D33*
%TO.P,LD1,2*%
%TO.N,LASER_V+*%
X169880000Y-119437500D03*
%TO.P,LD1,3*%
%TO.N,MPD_RAW1*%
X170880000Y-118437500D03*
%TD*%
D34*
%TO.P,C63,1*%
%TO.N,Net-(U15-SW)*%
X82025000Y-115607500D03*
%TO.P,C63,2*%
%TO.N,Net-(U15-BST)*%
X82025000Y-116742500D03*
%TD*%
D35*
%TO.P,U4,1*%
%TO.N,N/C*%
X134450000Y-132350000D03*
%TO.P,U4,2*%
%TO.N,Net-(D4-A)*%
X134450000Y-133620000D03*
%TO.P,U4,3*%
%TO.N,Net-(U4-+)*%
X134450000Y-134890000D03*
%TO.P,U4,4*%
%TO.N,GND*%
X134450000Y-136160000D03*
%TO.P,U4,5*%
%TO.N,N/C*%
X139400000Y-136160000D03*
%TO.P,U4,6*%
%TO.N,VOUT4*%
X139400000Y-134890000D03*
%TO.P,U4,7*%
%TO.N,+5V*%
X139400000Y-133620000D03*
%TO.P,U4,8*%
%TO.N,N/C*%
X139400000Y-132350000D03*
%TD*%
D24*
%TO.P,D8,1*%
%TO.N,GND*%
X42975000Y-88725000D03*
%TO.P,D8,2*%
%TO.N,/MCU_ESP32-S3/D+*%
X42975000Y-87325000D03*
%TD*%
D36*
%TO.P,U13,1*%
%TO.N,LASER_V+*%
X74750000Y-107300000D03*
%TO.P,U13,2*%
%TO.N,/POWER_IO/MPD_BIAS*%
X72850000Y-107300000D03*
%TO.P,U13,3*%
X73800000Y-109175000D03*
%TD*%
D37*
%TO.P,Q1,1*%
%TO.N,Net-(Q1-G)*%
X168773000Y-133397000D03*
%TO.P,Q1,2*%
%TO.N,/LASER_IR/FB*%
X170673000Y-133397000D03*
%TO.P,Q1,3*%
%TO.N,LASER_N1*%
X169723000Y-131522000D03*
%TD*%
D38*
%TO.P,C5,1*%
%TO.N,Net-(D2-A)*%
X125296500Y-113262000D03*
%TO.P,C5,2*%
%TO.N,VOUT2*%
X123571500Y-113262000D03*
%TD*%
D16*
%TO.P,C59,1*%
%TO.N,Net-(U14-REFIN{slash}REFOUT)*%
X95682500Y-97425000D03*
%TO.P,C59,2*%
%TO.N,GND*%
X93607500Y-97425000D03*
%TD*%
D18*
%TO.P,C46,1*%
%TO.N,/MCU_ESP32-S3/PROG*%
X66817500Y-128750000D03*
%TO.P,C46,2*%
%TO.N,GND*%
X65682500Y-128750000D03*
%TD*%
D14*
%TO.P,C22,1*%
%TO.N,/LASER_RED/FB*%
X187721500Y-84434000D03*
%TO.P,C22,2*%
%TO.N,/LASER_RED/LOUT*%
X189446500Y-84434000D03*
%TD*%
D39*
%TO.P,C47,1*%
%TO.N,+3V3*%
X58275000Y-83950000D03*
%TO.P,C47,2*%
%TO.N,GND*%
X58275000Y-81875000D03*
%TD*%
D13*
%TO.P,R48,1*%
%TO.N,MPD_RAW4*%
X72725000Y-111175000D03*
%TO.P,R48,2*%
%TO.N,/POWER_IO/MPD_BIAS*%
X74550000Y-111175000D03*
%TD*%
D17*
%TO.P,C15,1*%
%TO.N,Net-(D4-K)*%
X131167000Y-127162000D03*
%TO.P,C15,2*%
%TO.N,GND*%
X130032000Y-127162000D03*
%TD*%
D40*
%TO.P,U3,1*%
%TO.N,N/C*%
X157155000Y-131225000D03*
%TO.P,U3,2*%
%TO.N,Net-(D3-A)*%
X158425000Y-131225000D03*
%TO.P,U3,3*%
%TO.N,Net-(U3-+)*%
X159695000Y-131225000D03*
%TO.P,U3,4*%
%TO.N,GND*%
X160965000Y-131225000D03*
%TO.P,U3,5*%
%TO.N,N/C*%
X160965000Y-126275000D03*
%TO.P,U3,6*%
%TO.N,VOUT3*%
X159695000Y-126275000D03*
%TO.P,U3,7*%
%TO.N,+5V*%
X158425000Y-126275000D03*
%TO.P,U3,8*%
%TO.N,N/C*%
X157155000Y-126275000D03*
%TD*%
D13*
%TO.P,R16,1*%
%TO.N,+5V*%
X129004000Y-128940000D03*
%TO.P,R16,2*%
%TO.N,Net-(R16-Pad2)*%
X127179000Y-128940000D03*
%TD*%
D39*
%TO.P,C4,1*%
%TO.N,Net-(U1-+)*%
X139446000Y-88360000D03*
%TO.P,C4,2*%
%TO.N,GND*%
X137371000Y-88360000D03*
%TD*%
D21*
%TO.P,J2,1*%
%TO.N,Net-(D13-A)*%
X40000000Y-99975000D03*
%TO.P,J2,2*%
%TO.N,/MCU_ESP32-S3/IO19*%
X40000000Y-100775000D03*
%TO.P,J2,3*%
%TO.N,/MCU_ESP32-S3/IO20*%
X40000000Y-101575000D03*
%TO.P,J2,4*%
%TO.N,N/C*%
X40000000Y-102375000D03*
%TO.P,J2,5*%
%TO.N,GND*%
X40000000Y-103175000D03*
D22*
%TO.P,J2,6*%
X40000000Y-97175000D03*
X34500000Y-97175000D03*
X40000000Y-105975000D03*
X34500000Y-105975000D03*
%TD*%
D18*
%TO.P,C17,1*%
%TO.N,+5V*%
X169604500Y-130021000D03*
%TO.P,C17,2*%
%TO.N,GND*%
X168469500Y-130021000D03*
%TD*%
D41*
%TO.P,Q6,1*%
%TO.N,Net-(Q6-B)*%
X44842500Y-94988000D03*
%TO.P,Q6,2*%
%TO.N,/MCU_ESP32-S3/PROG*%
X44842500Y-96888000D03*
%TO.P,Q6,3*%
%TO.N,/MCU_ESP32-S3/DTR*%
X46717500Y-95938000D03*
%TD*%
D16*
%TO.P,C68,1*%
%TO.N,LASER_V+*%
X105537500Y-127675000D03*
%TO.P,C68,2*%
%TO.N,GND*%
X103462500Y-127675000D03*
%TD*%
D27*
%TO.P,R11,1*%
%TO.N,Net-(RV3-W)*%
X161108500Y-135902500D03*
%TO.P,R11,2*%
%TO.N,Net-(U3-+)*%
X161108500Y-134077500D03*
%TD*%
D42*
%TO.P,L2,1*%
%TO.N,Net-(U16-SW)*%
X109160000Y-135875000D03*
%TO.P,L2,2*%
%TO.N,LASER_V+*%
X109150000Y-132875000D03*
%TD*%
D18*
%TO.P,C37,1*%
%TO.N,MPD1*%
X62650000Y-104400000D03*
%TO.P,C37,2*%
%TO.N,GND*%
X63785000Y-104400000D03*
%TD*%
D30*
%TO.P,C61,1*%
%TO.N,VIN_24V*%
X86162500Y-113000000D03*
%TO.P,C61,2*%
%TO.N,GND*%
X83037500Y-113000000D03*
%TD*%
D43*
%TO.P,U16,1*%
%TO.N,Net-(U16-FB)*%
X104387500Y-133887500D03*
%TO.P,U16,2*%
%TO.N,VIN_24V*%
X103437500Y-133887500D03*
%TO.P,U16,3*%
X102487500Y-133887500D03*
%TO.P,U16,4*%
%TO.N,GND*%
X102487500Y-136162500D03*
%TO.P,U16,5*%
%TO.N,Net-(U16-SW)*%
X103437500Y-136162500D03*
%TO.P,U16,6*%
%TO.N,Net-(U16-BST)*%
X104387500Y-136162500D03*
%TD*%
D44*
%TO.P,J7,1*%
%TO.N,GND*%
X116260000Y-127630000D03*
%TO.P,J7,2*%
X118800000Y-127630000D03*
%TO.P,J7,3*%
%TO.N,+3V3*%
X116260000Y-130170000D03*
%TO.P,J7,4*%
X118800000Y-130170000D03*
%TO.P,J7,5*%
%TO.N,+5V*%
X116260000Y-132710000D03*
%TO.P,J7,6*%
X118800000Y-132710000D03*
%TO.P,J7,7*%
%TO.N,VIN_24V*%
X116260000Y-135250000D03*
%TO.P,J7,8*%
X118800000Y-135250000D03*
%TD*%
D24*
%TO.P,D7,1*%
%TO.N,GND*%
X44700000Y-88725000D03*
%TO.P,D7,2*%
%TO.N,/MCU_ESP32-S3/D-*%
X44700000Y-87325000D03*
%TD*%
D28*
%TO.P,C34,1*%
%TO.N,+5V*%
X113202500Y-108907500D03*
%TO.P,C34,2*%
%TO.N,GND*%
X113202500Y-106832500D03*
%TD*%
D13*
%TO.P,R43,1*%
%TO.N,/POWER_IO/MPD_AMP1*%
X63650000Y-106075000D03*
%TO.P,R43,2*%
%TO.N,MPD1*%
X61825000Y-106075000D03*
%TD*%
D45*
%TO.P,R62,1*%
%TO.N,Net-(U16-FB)*%
X102100000Y-131745000D03*
%TO.P,R62,2*%
%TO.N,GND*%
X102100000Y-130550000D03*
%TD*%
D46*
%TO.P,L1,1*%
%TO.N,Net-(U15-SW)*%
X85275000Y-109925000D03*
%TO.P,L1,2*%
%TO.N,/POWER_IO/BUCK_5V*%
X89475000Y-109925000D03*
%TD*%
D17*
%TO.P,C48,1*%
%TO.N,+5V*%
X112817500Y-105045000D03*
%TO.P,C48,2*%
%TO.N,GND*%
X113952500Y-105045000D03*
%TD*%
%TO.P,C6,1*%
%TO.N,+5V*%
X128200000Y-101682500D03*
%TO.P,C6,2*%
%TO.N,GND*%
X128200000Y-102817500D03*
%TD*%
D47*
%TO.P,C9,1*%
%TO.N,Net-(D3-A)*%
X153521500Y-129978000D03*
%TO.P,C9,2*%
%TO.N,VOUT3*%
X153521500Y-128253000D03*
%TD*%
D20*
%TO.P,C36,1*%
%TO.N,LASER_V+*%
X76312500Y-106837500D03*
%TO.P,C36,2*%
%TO.N,/POWER_IO/MPD_BIAS*%
X76312500Y-107972500D03*
%TD*%
D48*
%TO.P,RV4,1*%
%TO.N,Net-(R16-Pad2)*%
X125175000Y-131650000D03*
D49*
%TO.P,RV4,2*%
%TO.N,Net-(RV4-W)*%
X123925000Y-134550000D03*
D48*
%TO.P,RV4,3*%
%TO.N,GND*%
X122675000Y-131650000D03*
%TD*%
D50*
%TO.P,R42,1*%
%TO.N,MPD_RAW1*%
X165189200Y-117050000D03*
%TO.P,R42,2*%
%TO.N,/POWER_IO/MPD_BIAS*%
X165189200Y-115225000D03*
%TD*%
D51*
%TO.P,U14,1*%
%TO.N,+5V*%
X109657500Y-98475000D03*
%TO.P,U14,2*%
%TO.N,GND*%
X109657500Y-97975000D03*
%TO.P,U14,3*%
X109657500Y-97475000D03*
%TO.P,U14,4*%
X109657500Y-96975000D03*
%TO.P,U14,5*%
X109657500Y-96475000D03*
%TO.P,U14,6*%
%TO.N,+3V3*%
X109657500Y-95975000D03*
%TO.P,U14,7*%
X109657500Y-95475000D03*
%TO.P,U14,8*%
%TO.N,GND*%
X109657500Y-94975000D03*
%TO.P,U14,9*%
%TO.N,CONVST*%
X109657500Y-94475000D03*
%TO.P,U14,10*%
X109657500Y-93975000D03*
%TO.P,U14,11*%
%TO.N,ADC_RESET*%
X109657500Y-93475000D03*
%TO.P,U14,12*%
%TO.N,ADC_SCLK*%
X109657500Y-92975000D03*
%TO.P,U14,13*%
%TO.N,ADC_CS*%
X109657500Y-92475000D03*
%TO.P,U14,14*%
%TO.N,ADC_BUSY*%
X109657500Y-91975000D03*
%TO.P,U14,15*%
%TO.N,N/C*%
X109657500Y-91475000D03*
%TO.P,U14,16*%
%TO.N,GND*%
X109657500Y-90975000D03*
D52*
%TO.P,U14,17*%
X107732500Y-89050000D03*
%TO.P,U14,18*%
X107232500Y-89050000D03*
%TO.P,U14,19*%
X106732500Y-89050000D03*
%TO.P,U14,20*%
X106232500Y-89050000D03*
%TO.P,U14,21*%
X105732500Y-89050000D03*
%TO.P,U14,22*%
X105232500Y-89050000D03*
%TO.P,U14,23*%
%TO.N,+3V3*%
X104732500Y-89050000D03*
%TO.P,U14,24*%
%TO.N,ADC_MISO_A*%
X104232500Y-89050000D03*
%TO.P,U14,25*%
%TO.N,ADC_MISO_B*%
X103732500Y-89050000D03*
%TO.P,U14,26*%
%TO.N,GND*%
X103232500Y-89050000D03*
%TO.P,U14,27*%
X102732500Y-89050000D03*
%TO.P,U14,28*%
X102232500Y-89050000D03*
%TO.P,U14,29*%
X101732500Y-89050000D03*
%TO.P,U14,30*%
X101232500Y-89050000D03*
%TO.P,U14,31*%
X100732500Y-89050000D03*
%TO.P,U14,32*%
X100232500Y-89050000D03*
D51*
%TO.P,U14,33*%
X98307500Y-90975000D03*
%TO.P,U14,34*%
%TO.N,+3V3*%
X98307500Y-91475000D03*
%TO.P,U14,35*%
%TO.N,GND*%
X98307500Y-91975000D03*
%TO.P,U14,36*%
%TO.N,Net-(C57-Pad1)*%
X98307500Y-92475000D03*
%TO.P,U14,37*%
%TO.N,+5V*%
X98307500Y-92975000D03*
%TO.P,U14,38*%
X98307500Y-93475000D03*
%TO.P,U14,39*%
%TO.N,Net-(C58-Pad1)*%
X98307500Y-93975000D03*
%TO.P,U14,40*%
%TO.N,GND*%
X98307500Y-94475000D03*
%TO.P,U14,41*%
X98307500Y-94975000D03*
%TO.P,U14,42*%
%TO.N,Net-(U14-REFIN{slash}REFOUT)*%
X98307500Y-95475000D03*
%TO.P,U14,43*%
%TO.N,GND*%
X98307500Y-95975000D03*
%TO.P,U14,44*%
%TO.N,Net-(U14-REFCAPA)*%
X98307500Y-96475000D03*
%TO.P,U14,45*%
X98307500Y-96975000D03*
%TO.P,U14,46*%
%TO.N,GND*%
X98307500Y-97475000D03*
%TO.P,U14,47*%
X98307500Y-97975000D03*
%TO.P,U14,48*%
%TO.N,+5V*%
X98307500Y-98475000D03*
D52*
%TO.P,U14,49*%
%TO.N,VOUT1*%
X100232500Y-100400000D03*
%TO.P,U14,50*%
%TO.N,GND*%
X100732500Y-100400000D03*
%TO.P,U14,51*%
%TO.N,VOUT2*%
X101232500Y-100400000D03*
%TO.P,U14,52*%
%TO.N,GND*%
X101732500Y-100400000D03*
%TO.P,U14,53*%
X102232500Y-100400000D03*
%TO.P,U14,54*%
X102732500Y-100400000D03*
%TO.P,U14,55*%
X103232500Y-100400000D03*
%TO.P,U14,56*%
X103732500Y-100400000D03*
%TO.P,U14,57*%
%TO.N,VOUT3*%
X104232500Y-100400000D03*
%TO.P,U14,58*%
%TO.N,GND*%
X104732500Y-100400000D03*
%TO.P,U14,59*%
%TO.N,VOUT4*%
X105232500Y-100400000D03*
%TO.P,U14,60*%
%TO.N,GND*%
X105732500Y-100400000D03*
%TO.P,U14,61*%
X106232500Y-100400000D03*
%TO.P,U14,62*%
X106732500Y-100400000D03*
%TO.P,U14,63*%
X107232500Y-100400000D03*
%TO.P,U14,64*%
X107732500Y-100400000D03*
%TD*%
D11*
%TO.P,RV7,1*%
%TO.N,Net-(D3-A)*%
X151161500Y-129249000D03*
D12*
%TO.P,RV7,2*%
%TO.N,VOUT3*%
X148261500Y-127999000D03*
D11*
%TO.P,RV7,3*%
X151161500Y-126749000D03*
%TD*%
D53*
%TO.P,U10,1*%
%TO.N,N/C*%
X52375000Y-92050000D03*
%TO.P,U10,2*%
X52875000Y-92050000D03*
%TO.P,U10,3*%
%TO.N,GND*%
X53375000Y-92050000D03*
%TO.P,U10,4*%
%TO.N,/MCU_ESP32-S3/D+*%
X53875000Y-92050000D03*
%TO.P,U10,5*%
%TO.N,/MCU_ESP32-S3/D-*%
X54375000Y-92050000D03*
%TO.P,U10,6*%
%TO.N,+3V3*%
X54875000Y-92050000D03*
%TO.P,U10,7*%
X55375000Y-92050000D03*
D54*
%TO.P,U10,8*%
%TO.N,Net-(U10-VBUS)*%
X56325000Y-91100000D03*
%TO.P,U10,9*%
%TO.N,Net-(U10-~{RST})*%
X56325000Y-90600000D03*
%TO.P,U10,10*%
%TO.N,N/C*%
X56325000Y-90100000D03*
%TO.P,U10,11*%
%TO.N,Net-(U10-~{SUSPEND})*%
X56325000Y-89600000D03*
%TO.P,U10,12*%
%TO.N,N/C*%
X56325000Y-89100000D03*
%TO.P,U10,13*%
X56325000Y-88600000D03*
%TO.P,U10,14*%
X56325000Y-88100000D03*
D53*
%TO.P,U10,15*%
X55375000Y-87150000D03*
%TO.P,U10,16*%
X54875000Y-87150000D03*
%TO.P,U10,17*%
X54375000Y-87150000D03*
%TO.P,U10,18*%
X53875000Y-87150000D03*
%TO.P,U10,19*%
X53375000Y-87150000D03*
%TO.P,U10,20*%
X52875000Y-87150000D03*
%TO.P,U10,21*%
X52375000Y-87150000D03*
D54*
%TO.P,U10,22*%
X51425000Y-88100000D03*
%TO.P,U10,23*%
X51425000Y-88600000D03*
%TO.P,U10,24*%
%TO.N,/MCU_ESP32-S3/RTS*%
X51425000Y-89100000D03*
%TO.P,U10,25*%
%TO.N,/MCU_ESP32-S3/IO43*%
X51425000Y-89600000D03*
%TO.P,U10,26*%
%TO.N,/MCU_ESP32-S3/IO44*%
X51425000Y-90100000D03*
%TO.P,U10,27*%
%TO.N,N/C*%
X51425000Y-90600000D03*
%TO.P,U10,28*%
%TO.N,/MCU_ESP32-S3/DTR*%
X51425000Y-91100000D03*
D55*
%TO.P,U10,29*%
%TO.N,GND*%
X53875000Y-89600000D03*
%TD*%
D56*
%TO.P,U8,1*%
%TO.N,/LASER_BLUE/LOUT*%
X170408500Y-85899000D03*
%TO.P,U8,2*%
%TO.N,GND*%
X170408500Y-86849000D03*
%TO.P,U8,3*%
%TO.N,Net-(U8-+)*%
X170408500Y-87799000D03*
%TO.P,U8,4*%
%TO.N,/LASER_BLUE/FB*%
X172683500Y-87799000D03*
%TO.P,U8,5*%
%TO.N,+5V*%
X172683500Y-85899000D03*
%TD*%
D34*
%TO.P,C7,1*%
%TO.N,Net-(D2-K)*%
X126950000Y-102817500D03*
%TO.P,C7,2*%
%TO.N,GND*%
X126950000Y-101682500D03*
%TD*%
D57*
%TO.P,R60,1*%
%TO.N,/MCU_ESP32-S3/IO13*%
X72345000Y-101425000D03*
%TO.P,R60,2*%
%TO.N,+3V3*%
X71150000Y-101425000D03*
%TD*%
D41*
%TO.P,Q4,1*%
%TO.N,Net-(Q4-G)*%
X177925000Y-86312500D03*
%TO.P,Q4,2*%
%TO.N,/LASER_BLUE/FB*%
X176025000Y-86312500D03*
%TO.P,Q4,3*%
%TO.N,LASER_N4*%
X176975000Y-88187500D03*
%TD*%
D11*
%TO.P,RV1,1*%
%TO.N,Net-(R4-Pad2)*%
X134630500Y-87166000D03*
D12*
%TO.P,RV1,2*%
%TO.N,Net-(RV1-W)*%
X133380500Y-90066000D03*
D11*
%TO.P,RV1,3*%
%TO.N,GND*%
X132130500Y-87166000D03*
%TD*%
D17*
%TO.P,C40,1*%
%TO.N,MPD4*%
X67877500Y-104425000D03*
%TO.P,C40,2*%
%TO.N,GND*%
X69012500Y-104425000D03*
%TD*%
D58*
%TO.P,D4,1*%
%TO.N,Net-(D4-K)*%
X136850000Y-138385000D03*
D59*
%TO.P,D4,2*%
%TO.N,Net-(D4-A)*%
X136850000Y-133855000D03*
%TD*%
D26*
%TO.P,R29,1*%
%TO.N,/LASER_GREEN/FB*%
X188602000Y-127003000D03*
%TO.P,R29,2*%
%TO.N,ISENSE3*%
X188602000Y-128828000D03*
%TD*%
D58*
%TO.P,D2,1*%
%TO.N,Net-(D2-K)*%
X128465000Y-105550000D03*
D59*
%TO.P,D2,2*%
%TO.N,Net-(D2-A)*%
X123935000Y-105550000D03*
%TD*%
D38*
%TO.P,C1,1*%
%TO.N,Net-(D1-A)*%
X150070000Y-86281500D03*
%TO.P,C1,2*%
%TO.N,VOUT1*%
X150070000Y-88006500D03*
%TD*%
D57*
%TO.P,R51,1*%
%TO.N,/MCU_ESP32-S3/RTS*%
X45500000Y-93150000D03*
%TO.P,R51,2*%
%TO.N,Net-(Q6-B)*%
X44305000Y-93150000D03*
%TD*%
D60*
%TO.P,D9,1*%
%TO.N,GND*%
X46575000Y-87550000D03*
%TO.P,D9,2*%
%TO.N,VBUS_5V*%
X47975000Y-87550000D03*
%TD*%
D18*
%TO.P,C10,1*%
%TO.N,+5V*%
X155292500Y-132400000D03*
%TO.P,C10,2*%
%TO.N,GND*%
X154157500Y-132400000D03*
%TD*%
D13*
%TO.P,R47,1*%
%TO.N,/POWER_IO/MPD_AMP3*%
X69437500Y-118375000D03*
%TO.P,R47,2*%
%TO.N,MPD3*%
X67612500Y-118375000D03*
%TD*%
D26*
%TO.P,R30,1*%
%TO.N,PWM3*%
X195589400Y-133329800D03*
%TO.P,R30,2*%
%TO.N,Net-(U7-+)*%
X195589400Y-131504800D03*
%TD*%
D48*
%TO.P,RV5,1*%
%TO.N,Net-(D1-A)*%
X151909300Y-87203800D03*
D49*
%TO.P,RV5,2*%
%TO.N,VOUT1*%
X154809300Y-88453800D03*
D48*
%TO.P,RV5,3*%
X151909300Y-89703800D03*
%TD*%
D61*
%TO.P,LD4,1*%
%TO.N,LASER_V+*%
X168900000Y-102437500D03*
D62*
%TO.P,LD4,2*%
%TO.N,N/C*%
X169900000Y-103437500D03*
%TO.P,LD4,3*%
%TO.N,LASER_N4*%
X170900000Y-102437500D03*
%TD*%
D39*
%TO.P,C64,1*%
%TO.N,/POWER_IO/BUCK_5V*%
X91525000Y-116600000D03*
%TO.P,C64,2*%
%TO.N,GND*%
X91525000Y-114525000D03*
%TD*%
D18*
%TO.P,C52,1*%
%TO.N,+5V*%
X96082500Y-92825000D03*
%TO.P,C52,2*%
%TO.N,GND*%
X94947500Y-92825000D03*
%TD*%
D63*
%TO.P,U15,1*%
%TO.N,/POWER_IO/BUCK_5V*%
X86162500Y-116575000D03*
%TO.P,U15,2*%
%TO.N,VIN_24V*%
X86162500Y-115625000D03*
%TO.P,U15,3*%
X86162500Y-114675000D03*
%TO.P,U15,4*%
%TO.N,GND*%
X83887500Y-114675000D03*
%TO.P,U15,5*%
%TO.N,Net-(U15-SW)*%
X83887500Y-115625000D03*
%TO.P,U15,6*%
%TO.N,Net-(U15-BST)*%
X83887500Y-116575000D03*
%TD*%
D16*
%TO.P,C60,1*%
%TO.N,Net-(U14-REFCAPA)*%
X95620000Y-99825000D03*
%TO.P,C60,2*%
%TO.N,GND*%
X93545000Y-99825000D03*
%TD*%
D64*
%TO.P,R18,1*%
%TO.N,/LASER_IR/FB*%
X172261000Y-128141500D03*
%TO.P,R18,2*%
%TO.N,GND*%
X178361000Y-128141500D03*
%TD*%
D17*
%TO.P,C21,1*%
%TO.N,Net-(U6-+)*%
X184012000Y-88303500D03*
%TO.P,C21,2*%
%TO.N,GND*%
X184012000Y-87168500D03*
%TD*%
D20*
%TO.P,C11,1*%
%TO.N,Net-(D3-K)*%
X155525000Y-133982500D03*
%TO.P,C11,2*%
%TO.N,GND*%
X155525000Y-135117500D03*
%TD*%
D17*
%TO.P,C3,1*%
%TO.N,Net-(D1-K)*%
X141813000Y-84216000D03*
%TO.P,C3,2*%
%TO.N,GND*%
X142948000Y-84216000D03*
%TD*%
D65*
%TO.P,Q3,1*%
%TO.N,Net-(Q3-G)*%
X187400000Y-133425000D03*
%TO.P,Q3,2*%
%TO.N,/LASER_GREEN/FB*%
X189300000Y-133425000D03*
%TO.P,Q3,3*%
%TO.N,LASER_N3*%
X188350000Y-131550000D03*
%TD*%
D64*
%TO.P,R33,1*%
%TO.N,/LASER_BLUE/FB*%
X173250000Y-91375000D03*
%TO.P,R33,2*%
%TO.N,GND*%
X167150000Y-91375000D03*
%TD*%
D18*
%TO.P,C38,1*%
%TO.N,MPD2*%
X62782500Y-116250000D03*
%TO.P,C38,2*%
%TO.N,GND*%
X63917500Y-116250000D03*
%TD*%
D50*
%TO.P,R6,1*%
%TO.N,+5V*%
X125349500Y-100769000D03*
%TO.P,R6,2*%
%TO.N,Net-(D2-K)*%
X125349500Y-102594000D03*
%TD*%
D19*
%TO.P,C41,1*%
%TO.N,VBUS_5V*%
X48987500Y-101050000D03*
%TO.P,C41,2*%
%TO.N,GND*%
X51062500Y-101050000D03*
%TD*%
D13*
%TO.P,R46,1*%
%TO.N,MPD_RAW3*%
X174775000Y-115325000D03*
%TO.P,R46,2*%
%TO.N,/POWER_IO/MPD_BIAS*%
X174775000Y-113500000D03*
%TD*%
D19*
%TO.P,C16,1*%
%TO.N,Net-(U4-+)*%
X131637500Y-132852700D03*
%TO.P,C16,2*%
%TO.N,GND*%
X129562500Y-132852700D03*
%TD*%
D64*
%TO.P,R23,1*%
%TO.N,/LASER_RED/FB*%
X192650000Y-91800000D03*
%TO.P,R23,2*%
%TO.N,GND*%
X186550000Y-91800000D03*
%TD*%
D27*
%TO.P,R19,1*%
%TO.N,/LASER_IR/FB*%
X169975000Y-128800000D03*
%TO.P,R19,2*%
%TO.N,ISENSE1*%
X169975000Y-126975000D03*
%TD*%
D26*
%TO.P,R56,1*%
%TO.N,GND*%
X59122500Y-93950000D03*
%TO.P,R56,2*%
%TO.N,Net-(U10-VBUS)*%
X57297500Y-93950000D03*
%TD*%
D13*
%TO.P,R14,1*%
%TO.N,+5V*%
X129179000Y-130718000D03*
%TO.P,R14,2*%
%TO.N,Net-(D4-K)*%
X131004000Y-130718000D03*
%TD*%
D26*
%TO.P,R17,1*%
%TO.N,/LASER_IR/LOUT*%
X173175500Y-135507500D03*
%TO.P,R17,2*%
%TO.N,Net-(Q1-G)*%
X171350500Y-135507500D03*
%TD*%
D47*
%TO.P,C25,1*%
%TO.N,/LASER_GREEN/FB*%
X197289500Y-135217000D03*
%TO.P,C25,2*%
%TO.N,/LASER_GREEN/LOUT*%
X195564500Y-135217000D03*
%TD*%
D26*
%TO.P,R61,1*%
%TO.N,LASER_V+*%
X105612500Y-130100000D03*
%TO.P,R61,2*%
%TO.N,Net-(U16-FB)*%
X103787500Y-130100000D03*
%TD*%
D39*
%TO.P,C12,1*%
%TO.N,Net-(U3-+)*%
X159002500Y-133962500D03*
%TO.P,C12,2*%
%TO.N,GND*%
X159002500Y-136037500D03*
%TD*%
D32*
%TO.P,LD2,1*%
%TO.N,LASER_N2*%
X184880000Y-102437500D03*
D33*
%TO.P,LD2,2*%
%TO.N,LASER_V+*%
X185880000Y-103437500D03*
%TO.P,LD2,3*%
%TO.N,MPD_RAW2*%
X186880000Y-102437500D03*
%TD*%
D66*
%TO.P,J5,1*%
%TO.N,VIN_24V*%
X45100000Y-133900000D03*
%TO.P,J5,2*%
%TO.N,GND*%
X38300000Y-133900000D03*
D67*
%TO.P,J5,3*%
X42000000Y-138700000D03*
%TD*%
D68*
%TO.P,D5,1*%
%TO.N,VBUS_5V*%
X95287500Y-111575000D03*
%TO.P,D5,2*%
%TO.N,+5V*%
X99287500Y-111575000D03*
%TD*%
D50*
%TO.P,R44,1*%
%TO.N,MPD_RAW2*%
X178125000Y-116500000D03*
%TO.P,R44,2*%
%TO.N,/POWER_IO/MPD_BIAS*%
X178125000Y-114675000D03*
%TD*%
D17*
%TO.P,C54,1*%
%TO.N,+5V*%
X112282500Y-97125000D03*
%TO.P,C54,2*%
%TO.N,GND*%
X113417500Y-97125000D03*
%TD*%
D26*
%TO.P,R2,1*%
%TO.N,+5V*%
X137750000Y-86328000D03*
%TO.P,R2,2*%
%TO.N,Net-(D1-K)*%
X139575000Y-86328000D03*
%TD*%
D17*
%TO.P,C14,1*%
%TO.N,+5V*%
X141282500Y-133650000D03*
%TO.P,C14,2*%
%TO.N,GND*%
X142417500Y-133650000D03*
%TD*%
D48*
%TO.P,RV6,1*%
%TO.N,Net-(D2-A)*%
X124499500Y-115719000D03*
D49*
%TO.P,RV6,2*%
%TO.N,VOUT2*%
X123249500Y-118619000D03*
D48*
%TO.P,RV6,3*%
X121999500Y-115719000D03*
%TD*%
D13*
%TO.P,R32,1*%
%TO.N,/LASER_BLUE/LOUT*%
X172335500Y-84009000D03*
%TO.P,R32,2*%
%TO.N,Net-(Q4-G)*%
X174160500Y-84009000D03*
%TD*%
D14*
%TO.P,C28,1*%
%TO.N,/LASER_BLUE/FB*%
X168321500Y-84009000D03*
%TO.P,C28,2*%
%TO.N,/LASER_BLUE/LOUT*%
X170046500Y-84009000D03*
%TD*%
D39*
%TO.P,C65,1*%
%TO.N,/POWER_IO/BUCK_5V*%
X88825000Y-116612500D03*
%TO.P,C65,2*%
%TO.N,GND*%
X88825000Y-114537500D03*
%TD*%
D13*
%TO.P,R34,1*%
%TO.N,/LASER_BLUE/FB*%
X175536000Y-92541500D03*
%TO.P,R34,2*%
%TO.N,ISENSE4*%
X175536000Y-90716500D03*
%TD*%
D69*
%TO.P,U9,1*%
%TO.N,GND*%
X63125000Y-81655000D03*
%TO.P,U9,2*%
%TO.N,+3V3*%
X63125000Y-82925000D03*
%TO.P,U9,3*%
%TO.N,/MCU_ESP32-S3/EN*%
X63125000Y-84195000D03*
%TO.P,U9,4*%
%TO.N,ISENSE1*%
X63125000Y-85465000D03*
%TO.P,U9,5*%
%TO.N,ISENSE2*%
X63125000Y-86735000D03*
%TO.P,U9,6*%
%TO.N,ISENSE3*%
X63125000Y-88005000D03*
%TO.P,U9,7*%
%TO.N,ISENSE4*%
X63125000Y-89275000D03*
%TO.P,U9,8*%
%TO.N,CONVST*%
X63125000Y-90545000D03*
%TO.P,U9,9*%
%TO.N,PWM4*%
X63125000Y-91815000D03*
%TO.P,U9,10*%
%TO.N,ADC_SCLK*%
X63125000Y-93085000D03*
%TO.P,U9,11*%
%TO.N,ADC_CS*%
X63125000Y-94355000D03*
%TO.P,U9,12*%
%TO.N,MPD3*%
X63125000Y-95625000D03*
%TO.P,U9,13*%
%TO.N,/MCU_ESP32-S3/IO19*%
X63125000Y-96895000D03*
%TO.P,U9,14*%
%TO.N,/MCU_ESP32-S3/IO20*%
X63125000Y-98165000D03*
D70*
%TO.P,U9,15*%
%TO.N,MPD2*%
X64890000Y-99415000D03*
%TO.P,U9,16*%
%TO.N,/MCU_ESP32-S3/IO46*%
X66160000Y-99415000D03*
%TO.P,U9,17*%
%TO.N,MPD4*%
X67430000Y-99415000D03*
%TO.P,U9,18*%
%TO.N,PWM1*%
X68700000Y-99415000D03*
%TO.P,U9,19*%
%TO.N,PWM2*%
X69970000Y-99415000D03*
%TO.P,U9,20*%
%TO.N,PWM3*%
X71240000Y-99415000D03*
%TO.P,U9,21*%
%TO.N,/MCU_ESP32-S3/IO13*%
X72510000Y-99415000D03*
%TO.P,U9,22*%
%TO.N,/MCU_ESP32-S3/IO14*%
X73780000Y-99415000D03*
%TO.P,U9,23*%
%TO.N,ADC_MISO_A*%
X75050000Y-99415000D03*
%TO.P,U9,24*%
%TO.N,ADC_BUSY*%
X76320000Y-99415000D03*
%TO.P,U9,25*%
%TO.N,ADC_RESET*%
X77590000Y-99415000D03*
%TO.P,U9,26*%
%TO.N,/MCU_ESP32-S3/IO45*%
X78860000Y-99415000D03*
D69*
%TO.P,U9,27*%
%TO.N,/MCU_ESP32-S3/PROG*%
X80625000Y-98165000D03*
%TO.P,U9,28*%
%TO.N,/MCU_ESP32-S3/IO35*%
X80625000Y-96895000D03*
%TO.P,U9,29*%
%TO.N,/MCU_ESP32-S3/IO36*%
X80625000Y-95625000D03*
%TO.P,U9,30*%
%TO.N,/MCU_ESP32-S3/IO37*%
X80625000Y-94355000D03*
%TO.P,U9,31*%
%TO.N,ADC_MISO_B*%
X80625000Y-93085000D03*
%TO.P,U9,32*%
%TO.N,/MCU_ESP32-S3/IO39*%
X80625000Y-91815000D03*
%TO.P,U9,33*%
%TO.N,/MCU_ESP32-S3/IO40*%
X80625000Y-90545000D03*
%TO.P,U9,34*%
%TO.N,/MCU_ESP32-S3/IO41*%
X80625000Y-89275000D03*
%TO.P,U9,35*%
%TO.N,/MCU_ESP32-S3/IO42*%
X80625000Y-88005000D03*
%TO.P,U9,36*%
%TO.N,/MCU_ESP32-S3/IO44*%
X80625000Y-86735000D03*
%TO.P,U9,37*%
%TO.N,/MCU_ESP32-S3/IO43*%
X80625000Y-85465000D03*
%TO.P,U9,38*%
%TO.N,MPD1*%
X80625000Y-84195000D03*
%TO.P,U9,39*%
%TO.N,/MCU_ESP32-S3/FACT*%
X80625000Y-82925000D03*
%TO.P,U9,40*%
%TO.N,GND*%
X80625000Y-81655000D03*
D71*
%TO.P,U9,41*%
X68975000Y-87975000D03*
X68975000Y-89375000D03*
X68975000Y-90775000D03*
X68975000Y-90775000D03*
X70375000Y-87975000D03*
X70375000Y-87975000D03*
X70375000Y-89375000D03*
X70375000Y-90775000D03*
X71775000Y-87975000D03*
X71775000Y-89375000D03*
X71775000Y-90775000D03*
%TD*%
D57*
%TO.P,R59,1*%
%TO.N,+3V3*%
X74945000Y-101450000D03*
%TO.P,R59,2*%
%TO.N,/MCU_ESP32-S3/IO14*%
X73750000Y-101450000D03*
%TD*%
D50*
%TO.P,R64,1*%
%TO.N,+3V3*%
X49800000Y-125637500D03*
%TO.P,R64,2*%
%TO.N,Net-(J6-Pad12)*%
X49800000Y-127462500D03*
%TD*%
D34*
%TO.P,C35,1*%
%TO.N,+3V3*%
X61600000Y-110085000D03*
%TO.P,C35,2*%
%TO.N,GND*%
X61600000Y-108950000D03*
%TD*%
D72*
%TO.P,R50,1*%
%TO.N,/MCU_ESP32-S3/DTR*%
X47230000Y-93175000D03*
%TO.P,R50,2*%
%TO.N,Net-(Q5-B)*%
X48425000Y-93175000D03*
%TD*%
D45*
%TO.P,R58,1*%
%TO.N,Net-(U10-~{SUSPEND})*%
X58350000Y-89245000D03*
%TO.P,R58,2*%
%TO.N,GND*%
X58350000Y-88050000D03*
%TD*%
D13*
%TO.P,R3,1*%
%TO.N,Net-(RV1-W)*%
X137853500Y-90466000D03*
%TO.P,R3,2*%
%TO.N,Net-(U1-+)*%
X139678500Y-90466000D03*
%TD*%
D17*
%TO.P,C27,1*%
%TO.N,Net-(U8-+)*%
X164612000Y-87878500D03*
%TO.P,C27,2*%
%TO.N,GND*%
X164612000Y-86743500D03*
%TD*%
D23*
%TO.P,D13,1*%
%TO.N,VBUS_5V*%
X47832000Y-98865000D03*
%TO.P,D13,2*%
%TO.N,Net-(D13-A)*%
X44532000Y-98865000D03*
%TD*%
D19*
%TO.P,C50,1*%
%TO.N,+3V3*%
X108765000Y-109295000D03*
%TO.P,C50,2*%
%TO.N,GND*%
X110840000Y-109295000D03*
%TD*%
D72*
%TO.P,R54,1*%
%TO.N,+3V3*%
X59650000Y-128750000D03*
%TO.P,R54,2*%
%TO.N,/MCU_ESP32-S3/EN*%
X60845000Y-128750000D03*
%TD*%
D50*
%TO.P,R41,1*%
%TO.N,/POWER_IO/MPD_BIAS*%
X69500000Y-116300000D03*
%TO.P,R41,2*%
%TO.N,GND*%
X69500000Y-114475000D03*
%TD*%
D18*
%TO.P,C58,1*%
%TO.N,Net-(C58-Pad1)*%
X95982500Y-95425000D03*
%TO.P,C58,2*%
%TO.N,GND*%
X94847500Y-95425000D03*
%TD*%
D34*
%TO.P,C2,1*%
%TO.N,+5V*%
X149289000Y-90577500D03*
%TO.P,C2,2*%
%TO.N,GND*%
X149289000Y-89442500D03*
%TD*%
D50*
%TO.P,R8,1*%
%TO.N,+5V*%
X129700000Y-102512500D03*
%TO.P,R8,2*%
%TO.N,Net-(R8-Pad2)*%
X129700000Y-100687500D03*
%TD*%
D24*
%TO.P,D11,1*%
%TO.N,GND*%
X43375000Y-103050000D03*
%TO.P,D11,2*%
%TO.N,/MCU_ESP32-S3/IO20*%
X43375000Y-101650000D03*
%TD*%
D50*
%TO.P,R7,1*%
%TO.N,Net-(RV2-W)*%
X121211500Y-100872500D03*
%TO.P,R7,2*%
%TO.N,Net-(U2-+)*%
X121211500Y-102697500D03*
%TD*%
D58*
%TO.P,D3,1*%
%TO.N,Net-(D3-K)*%
X163190000Y-131475000D03*
D59*
%TO.P,D3,2*%
%TO.N,Net-(D3-A)*%
X158660000Y-131475000D03*
%TD*%
D27*
%TO.P,R20,1*%
%TO.N,PWM1*%
X176962400Y-133301800D03*
%TO.P,R20,2*%
%TO.N,Net-(U5-+)*%
X176962400Y-131476800D03*
%TD*%
D41*
%TO.P,Q2,1*%
%TO.N,Net-(Q2-G)*%
X197225000Y-86600000D03*
%TO.P,Q2,2*%
%TO.N,/LASER_RED/FB*%
X195325000Y-86600000D03*
%TO.P,Q2,3*%
%TO.N,LASER_N2*%
X196275000Y-88475000D03*
%TD*%
D61*
%TO.P,LD3,1*%
%TO.N,LASER_N3*%
X184900000Y-118437500D03*
D62*
%TO.P,LD3,2*%
%TO.N,LASER_V+*%
X185900000Y-119437500D03*
%TO.P,LD3,3*%
%TO.N,MPD_RAW3*%
X186900000Y-118437500D03*
%TD*%
D73*
%TO.P,SW3,1*%
%TO.N,/MCU_ESP32-S3/FACT*%
X77522500Y-130675000D03*
X85482500Y-130675000D03*
%TO.P,SW3,2*%
%TO.N,GND*%
X77522500Y-135175000D03*
X85482500Y-135175000D03*
%TD*%
D34*
%TO.P,C45,1*%
%TO.N,Net-(U10-VBUS)*%
X58240000Y-90662500D03*
%TO.P,C45,2*%
%TO.N,GND*%
X58240000Y-91797500D03*
%TD*%
D17*
%TO.P,C66,1*%
%TO.N,Net-(U16-SW)*%
X103482500Y-137875000D03*
%TO.P,C66,2*%
%TO.N,Net-(U16-BST)*%
X104617500Y-137875000D03*
%TD*%
D58*
%TO.P,D1,1*%
%TO.N,Net-(D1-K)*%
X144750000Y-92547500D03*
D59*
%TO.P,D1,2*%
%TO.N,Net-(D1-A)*%
X144750000Y-88017500D03*
%TD*%
D18*
%TO.P,C18,1*%
%TO.N,Net-(U5-+)*%
X180899000Y-131638000D03*
%TO.P,C18,2*%
%TO.N,GND*%
X180899000Y-132773000D03*
%TD*%
D74*
%TO.P,C70,1*%
%TO.N,VIN_24V*%
X95625000Y-134575000D03*
%TO.P,C70,2*%
%TO.N,GND*%
X95625000Y-127375000D03*
%TD*%
D16*
%TO.P,C42,1*%
%TO.N,VBUS_5V*%
X46662500Y-82525000D03*
%TO.P,C42,2*%
%TO.N,GND*%
X44587500Y-82525000D03*
%TD*%
D27*
%TO.P,R63,1*%
%TO.N,VIN_24V*%
X49925000Y-110900000D03*
%TO.P,R63,2*%
%TO.N,Net-(J6-Pad10)*%
X49925000Y-109075000D03*
%TD*%
D11*
%TO.P,RV2,1*%
%TO.N,Net-(R8-Pad2)*%
X126975000Y-97575000D03*
D12*
%TO.P,RV2,2*%
%TO.N,Net-(RV2-W)*%
X124075000Y-96325000D03*
D11*
%TO.P,RV2,3*%
%TO.N,GND*%
X126975000Y-95075000D03*
%TD*%
D18*
%TO.P,C24,1*%
%TO.N,Net-(U7-+)*%
X199526000Y-131666000D03*
%TO.P,C24,2*%
%TO.N,GND*%
X199526000Y-132801000D03*
%TD*%
D35*
%TO.P,U1,1*%
%TO.N,N/C*%
X142531000Y-86512500D03*
%TO.P,U1,2*%
%TO.N,Net-(D1-A)*%
X142531000Y-87782500D03*
%TO.P,U1,3*%
%TO.N,Net-(U1-+)*%
X142531000Y-89052500D03*
%TO.P,U1,4*%
%TO.N,GND*%
X142531000Y-90322500D03*
%TO.P,U1,5*%
%TO.N,N/C*%
X147481000Y-90322500D03*
%TO.P,U1,6*%
%TO.N,VOUT1*%
X147481000Y-89052500D03*
%TO.P,U1,7*%
%TO.N,+5V*%
X147481000Y-87782500D03*
%TO.P,U1,8*%
%TO.N,N/C*%
X147481000Y-86512500D03*
%TD*%
D73*
%TO.P,SW2,1*%
%TO.N,/MCU_ESP32-S3/PROG*%
X66352500Y-130700000D03*
X74312500Y-130700000D03*
%TO.P,SW2,2*%
%TO.N,GND*%
X66352500Y-135200000D03*
X74312500Y-135200000D03*
%TD*%
D13*
%TO.P,R35,1*%
%TO.N,PWM4*%
X168168000Y-85890500D03*
%TO.P,R35,2*%
%TO.N,Net-(U8-+)*%
X168168000Y-87715500D03*
%TD*%
%TO.P,R26,1*%
%TO.N,Net-(U6-+)*%
X185724000Y-88140500D03*
%TO.P,R26,2*%
%TO.N,GND*%
X185724000Y-86315500D03*
%TD*%
D18*
%TO.P,C51,1*%
%TO.N,+5V*%
X96082500Y-94025000D03*
%TO.P,C51,2*%
%TO.N,GND*%
X94947500Y-94025000D03*
%TD*%
D38*
%TO.P,C19,1*%
%TO.N,/LASER_IR/FB*%
X178175000Y-137550000D03*
%TO.P,C19,2*%
%TO.N,/LASER_IR/LOUT*%
X178175000Y-135825000D03*
%TD*%
D13*
%TO.P,R45,1*%
%TO.N,/POWER_IO/MPD_AMP2*%
X63837500Y-114575000D03*
%TO.P,R45,2*%
%TO.N,MPD2*%
X62012500Y-114575000D03*
%TD*%
D63*
%TO.P,U5,1*%
%TO.N,/LASER_IR/LOUT*%
X175102500Y-133617500D03*
%TO.P,U5,2*%
%TO.N,GND*%
X175102500Y-132667500D03*
%TO.P,U5,3*%
%TO.N,Net-(U5-+)*%
X175102500Y-131717500D03*
%TO.P,U5,4*%
%TO.N,/LASER_IR/FB*%
X172827500Y-131717500D03*
%TO.P,U5,5*%
%TO.N,+5V*%
X172827500Y-133617500D03*
%TD*%
D75*
%TO.P,R55,1*%
%TO.N,Net-(U10-VBUS)*%
X59615000Y-90632500D03*
%TO.P,R55,2*%
%TO.N,VBUS_5V*%
X59615000Y-91827500D03*
%TD*%
D17*
%TO.P,C20,1*%
%TO.N,+5V*%
X193800000Y-87225000D03*
%TO.P,C20,2*%
%TO.N,GND*%
X193800000Y-86090000D03*
%TD*%
D63*
%TO.P,U11,1*%
%TO.N,+5V*%
X110727500Y-107125000D03*
%TO.P,U11,2*%
%TO.N,GND*%
X110727500Y-106175000D03*
%TO.P,U11,3*%
%TO.N,+5V*%
X110727500Y-105225000D03*
%TO.P,U11,4*%
%TO.N,N/C*%
X108452500Y-105225000D03*
%TO.P,U11,5*%
%TO.N,+3V3*%
X108452500Y-107125000D03*
%TD*%
D57*
%TO.P,R52,1*%
%TO.N,+3V3*%
X78150000Y-128500000D03*
%TO.P,R52,2*%
%TO.N,/MCU_ESP32-S3/FACT*%
X76955000Y-128500000D03*
%TD*%
D76*
%TO.P,U12,1*%
%TO.N,/POWER_IO/MPD_AMP1*%
X63837500Y-108267500D03*
%TO.P,U12,2*%
%TO.N,/POWER_IO/MPD_BIAS*%
X63837500Y-108917500D03*
%TO.P,U12,3*%
%TO.N,MPD_RAW1*%
X63837500Y-109567500D03*
%TO.P,U12,4*%
%TO.N,+3V3*%
X63837500Y-110217500D03*
%TO.P,U12,5*%
%TO.N,MPD_RAW2*%
X63837500Y-110867500D03*
%TO.P,U12,6*%
%TO.N,/POWER_IO/MPD_BIAS*%
X63837500Y-111517500D03*
%TO.P,U12,7*%
%TO.N,/POWER_IO/MPD_AMP2*%
X63837500Y-112167500D03*
%TO.P,U12,8*%
%TO.N,/POWER_IO/MPD_AMP3*%
X69562500Y-112167500D03*
%TO.P,U12,9*%
%TO.N,/POWER_IO/MPD_BIAS*%
X69562500Y-111517500D03*
%TO.P,U12,10*%
%TO.N,MPD_RAW3*%
X69562500Y-110867500D03*
%TO.P,U12,11*%
%TO.N,GND*%
X69562500Y-110217500D03*
%TO.P,U12,12*%
%TO.N,MPD_RAW4*%
X69562500Y-109567500D03*
%TO.P,U12,13*%
%TO.N,/POWER_IO/MPD_BIAS*%
X69562500Y-108917500D03*
%TO.P,U12,14*%
%TO.N,/POWER_IO/MPD_AMP4*%
X69562500Y-108267500D03*
%TD*%
D63*
%TO.P,U7,1*%
%TO.N,/LASER_GREEN/LOUT*%
X193729500Y-133645500D03*
%TO.P,U7,2*%
%TO.N,GND*%
X193729500Y-132695500D03*
%TO.P,U7,3*%
%TO.N,Net-(U7-+)*%
X193729500Y-131745500D03*
%TO.P,U7,4*%
%TO.N,/LASER_GREEN/FB*%
X191454500Y-131745500D03*
%TO.P,U7,5*%
%TO.N,+5V*%
X191454500Y-133645500D03*
%TD*%
D57*
%TO.P,R53,1*%
%TO.N,+3V3*%
X69357500Y-128750000D03*
%TO.P,R53,2*%
%TO.N,/MCU_ESP32-S3/PROG*%
X68162500Y-128750000D03*
%TD*%
D27*
%TO.P,R10,1*%
%TO.N,+5V*%
X156970500Y-136006000D03*
%TO.P,R10,2*%
%TO.N,Net-(D3-K)*%
X156970500Y-134181000D03*
%TD*%
D77*
%TO.P,J6,1*%
%TO.N,N/C*%
X39340000Y-115195000D03*
D78*
%TO.P,J6,2*%
X37560000Y-116211000D03*
%TO.P,J6,3*%
X39340000Y-117227000D03*
%TO.P,J6,4*%
%TO.N,VIN_24V*%
X37560000Y-118243000D03*
%TO.P,J6,5*%
X39340000Y-119259000D03*
%TO.P,J6,6*%
%TO.N,N/C*%
X37560000Y-120275000D03*
%TO.P,J6,7*%
%TO.N,GND*%
X39340000Y-121291000D03*
%TO.P,J6,8*%
X37560000Y-122307000D03*
%TO.P,J6,9*%
X32740000Y-111895000D03*
%TO.P,J6,10*%
%TO.N,Net-(J6-Pad10)*%
X32740000Y-114185000D03*
%TO.P,J6,11*%
%TO.N,GND*%
X32740000Y-123325000D03*
%TO.P,J6,12*%
%TO.N,Net-(J6-Pad12)*%
X32740000Y-125615000D03*
D79*
%TO.P,J6,SH*%
%TO.N,N/C*%
X38450000Y-110625000D03*
X38450000Y-126885000D03*
%TD*%
D18*
%TO.P,C69,1*%
%TO.N,LASER_V+*%
X104700000Y-131925000D03*
%TO.P,C69,2*%
%TO.N,Net-(U16-FB)*%
X103565000Y-131925000D03*
%TD*%
D56*
%TO.P,U6,1*%
%TO.N,/LASER_RED/LOUT*%
X189808500Y-86324000D03*
%TO.P,U6,2*%
%TO.N,GND*%
X189808500Y-87274000D03*
%TO.P,U6,3*%
%TO.N,Net-(U6-+)*%
X189808500Y-88224000D03*
%TO.P,U6,4*%
%TO.N,/LASER_RED/FB*%
X192083500Y-88224000D03*
%TO.P,U6,5*%
%TO.N,+5V*%
X192083500Y-86324000D03*
%TD*%
D13*
%TO.P,R36,1*%
%TO.N,Net-(U8-+)*%
X166324000Y-87715500D03*
%TO.P,R36,2*%
%TO.N,GND*%
X166324000Y-85890500D03*
%TD*%
D72*
%TO.P,R57,1*%
%TO.N,+3V3*%
X54100000Y-93825000D03*
%TO.P,R57,2*%
%TO.N,Net-(U10-~{RST})*%
X55295000Y-93825000D03*
%TD*%
D41*
%TO.P,Q5,1*%
%TO.N,Net-(Q5-B)*%
X50050000Y-94362500D03*
%TO.P,Q5,2*%
%TO.N,/MCU_ESP32-S3/RTS*%
X50050000Y-96262500D03*
%TO.P,Q5,3*%
%TO.N,/MCU_ESP32-S3/EN*%
X51925000Y-95312500D03*
%TD*%
D48*
%TO.P,RV3,1*%
%TO.N,Net-(R12-Pad2)*%
X150596500Y-133203000D03*
D49*
%TO.P,RV3,2*%
%TO.N,Net-(RV3-W)*%
X149346500Y-136103000D03*
D48*
%TO.P,RV3,3*%
%TO.N,GND*%
X148096500Y-133203000D03*
%TD*%
D26*
%TO.P,R4,1*%
%TO.N,+5V*%
X139575000Y-84550000D03*
%TO.P,R4,2*%
%TO.N,Net-(R4-Pad2)*%
X137750000Y-84550000D03*
%TD*%
%TO.P,R31,1*%
%TO.N,Net-(U7-+)*%
X197814000Y-131829000D03*
%TO.P,R31,2*%
%TO.N,GND*%
X197814000Y-133654000D03*
%TD*%
D18*
%TO.P,C57,1*%
%TO.N,Net-(C57-Pad1)*%
X96082500Y-91425000D03*
%TO.P,C57,2*%
%TO.N,GND*%
X94947500Y-91425000D03*
%TD*%
D26*
%TO.P,R27,1*%
%TO.N,/LASER_GREEN/LOUT*%
X191802500Y-135235500D03*
%TO.P,R27,2*%
%TO.N,Net-(Q3-G)*%
X189977500Y-135235500D03*
%TD*%
D73*
%TO.P,SW1,1*%
%TO.N,/MCU_ESP32-S3/EN*%
X54852500Y-130700000D03*
X62812500Y-130700000D03*
%TO.P,SW1,2*%
%TO.N,GND*%
X54852500Y-135200000D03*
X62812500Y-135200000D03*
%TD*%
D80*
%TO.N,+3V3*%
X108000000Y-95500000D03*
D81*
X75825000Y-101425000D03*
X70250000Y-101400000D03*
D80*
X79200000Y-128450000D03*
X84475000Y-126500000D03*
D81*
X56800000Y-83950000D03*
D80*
X85150000Y-87025000D03*
D81*
X108925000Y-100675000D03*
D80*
X106586975Y-90582193D03*
X70475000Y-128675000D03*
D81*
X64525000Y-82950000D03*
D80*
X58475000Y-128950000D03*
X54125000Y-94850000D03*
X106925000Y-134475000D03*
D81*
X65000000Y-110150000D03*
D80*
%TO.N,+5V*%
X191100000Y-85600000D03*
X127900000Y-130800000D03*
X170558689Y-130058689D03*
X139550000Y-83550000D03*
X141300000Y-132375000D03*
X124275000Y-109000000D03*
X157060203Y-137000000D03*
D81*
X128200000Y-100800000D03*
D80*
X149325000Y-91850000D03*
X158218951Y-127311834D03*
X172675000Y-134250000D03*
D81*
X125350000Y-99800000D03*
D80*
X145775000Y-87750000D03*
D81*
X129675000Y-103550000D03*
D80*
X171670516Y-85343961D03*
X118725000Y-92950000D03*
X193050000Y-136225000D03*
X191662869Y-132969483D03*
X155450000Y-131225000D03*
D81*
%TO.N,/MCU_ESP32-S3/D-*%
X50350000Y-93250000D03*
X49625000Y-91150000D03*
%TO.N,/MCU_ESP32-S3/DTR*%
X50450000Y-91250000D03*
X46562654Y-95062346D03*
X47877236Y-93972764D03*
%TO.N,/MCU_ESP32-S3/EN*%
X55579137Y-86226709D03*
X52790992Y-103964026D03*
X53053740Y-100353740D03*
X51950000Y-94450000D03*
%TO.N,/MCU_ESP32-S3/FACT*%
X75544149Y-119230851D03*
X83280851Y-83955851D03*
%TO.N,/MCU_ESP32-S3/IO43*%
X75912144Y-86853848D03*
X50402888Y-89495845D03*
%TO.N,/MCU_ESP32-S3/IO44*%
X50563125Y-90330608D03*
X76681759Y-87130661D03*
%TO.N,/MCU_ESP32-S3/PROG*%
X80187521Y-100498436D03*
X61075000Y-94225000D03*
X74475000Y-119475000D03*
X68634954Y-93682240D03*
%TO.N,/MCU_ESP32-S3/RTS*%
X48796451Y-96481648D03*
X45750000Y-94125000D03*
X46900000Y-90375000D03*
X50275000Y-88500000D03*
%TO.N,/POWER_IO/MPD_AMP3*%
X68650000Y-117325000D03*
X68350000Y-112275000D03*
%TO.N,/POWER_IO/MPD_BIAS*%
X70747757Y-114780311D03*
X70745556Y-111714011D03*
X75000000Y-113500000D03*
X175800000Y-113500000D03*
%TO.N,ADC_BUSY*%
X105550000Y-92125000D03*
X83608781Y-100800000D03*
%TO.N,ADC_CS*%
X107466343Y-92351656D03*
X87322429Y-100326478D03*
%TO.N,ADC_MISO_A*%
X104150000Y-90550000D03*
X85225000Y-99800000D03*
%TO.N,ADC_MISO_B*%
X91525000Y-92400000D03*
X101763298Y-91713298D03*
%TO.N,ADC_RESET*%
X103250000Y-93750000D03*
X82650000Y-101575000D03*
%TO.N,ADC_SCLK*%
X100488356Y-91653107D03*
X79300000Y-92350000D03*
D80*
%TO.N,GND*%
X42150000Y-103150000D03*
X122650000Y-130200000D03*
X70400000Y-86950000D03*
X39875000Y-81550000D03*
X60825000Y-135200000D03*
X83925000Y-135025000D03*
D81*
X99700000Y-91950000D03*
X113425000Y-99375000D03*
X123350000Y-99225000D03*
D80*
X185050000Y-91875000D03*
X102025000Y-124750000D03*
D81*
X168475000Y-129250000D03*
D80*
X135925000Y-89150000D03*
X162125000Y-131275000D03*
X171475000Y-86850000D03*
X159105838Y-137000000D03*
X70435184Y-90825000D03*
D81*
X99725000Y-97800000D03*
D80*
X116125000Y-95150000D03*
X68830585Y-90343148D03*
D81*
X79150000Y-81650000D03*
D80*
X111250000Y-94975000D03*
D81*
X100750000Y-99150000D03*
X108325000Y-96975000D03*
D80*
X114600000Y-127675000D03*
X58400000Y-87000000D03*
X88825000Y-113250000D03*
X42850000Y-82600000D03*
D81*
X106177715Y-99325000D03*
X104750000Y-99225000D03*
D80*
X64975000Y-104450000D03*
D81*
X135700000Y-135750000D03*
D80*
X52650000Y-98700000D03*
X83875000Y-113675000D03*
X179800000Y-128175000D03*
X61725000Y-107826654D03*
X168625000Y-91450000D03*
X64475000Y-128850000D03*
X198675000Y-128100000D03*
X192885557Y-132709596D03*
X72750000Y-135100000D03*
D81*
X128531048Y-103443952D03*
D80*
X79200000Y-135200000D03*
D81*
X99525000Y-94975000D03*
X99525000Y-95950000D03*
D80*
X148275000Y-131700000D03*
X53875000Y-89600000D03*
X34550000Y-94875000D03*
D81*
X69504261Y-104820739D03*
X102225000Y-99150000D03*
D80*
X200525000Y-132850000D03*
X101150000Y-130550000D03*
X155375000Y-136325000D03*
X93500000Y-101012563D03*
X52527500Y-135025000D03*
X194375003Y-136200000D03*
D81*
X108225000Y-97800000D03*
X111900000Y-106375000D03*
D80*
X72600000Y-88793781D03*
D81*
X64675000Y-81675000D03*
X107194323Y-99325000D03*
D80*
X174000000Y-132675000D03*
X144125000Y-84225000D03*
D81*
X64039798Y-116935202D03*
D80*
X129684603Y-126575000D03*
D81*
X70019264Y-114342359D03*
D80*
X93600000Y-125075006D03*
X101675000Y-90600000D03*
D81*
X106625000Y-105275000D03*
D80*
X40050000Y-108150000D03*
X108675000Y-89050000D03*
X41705638Y-89333911D03*
D81*
X126925000Y-100675000D03*
D80*
X175210355Y-85175001D03*
X166325000Y-84525000D03*
X132050000Y-85625000D03*
X190875000Y-87300000D03*
X58675000Y-92825000D03*
X185345031Y-85329969D03*
X150300000Y-89425000D03*
X101375000Y-136325000D03*
X34450000Y-108225000D03*
X46575000Y-88725000D03*
X127325000Y-134575000D03*
X34500000Y-85250000D03*
D81*
X103200000Y-99175000D03*
D80*
X120625000Y-127675000D03*
D81*
X66575000Y-117375000D03*
X128250000Y-95075000D03*
X194125000Y-85525000D03*
X121375000Y-103925000D03*
D80*
X90200000Y-114525000D03*
X142500000Y-91400000D03*
X178150000Y-133725000D03*
X40025000Y-94375000D03*
X152925000Y-132375000D03*
X50150000Y-99875000D03*
X145029345Y-132700000D03*
D81*
X68398838Y-110062976D03*
D80*
X67850000Y-135275000D03*
D81*
X110762316Y-110216312D03*
%TO.N,ISENSE1*%
X164400000Y-133500000D03*
X65614649Y-85925000D03*
X90299998Y-102250000D03*
X82850000Y-94050000D03*
%TO.N,ISENSE2*%
X162000000Y-114550000D03*
X72175000Y-104025000D03*
X167500000Y-113500000D03*
X66625000Y-90150000D03*
%TO.N,ISENSE3*%
X106910202Y-110739798D03*
X133749091Y-113475111D03*
X143675000Y-124900000D03*
X65425000Y-87981169D03*
X114450000Y-110350000D03*
X83332210Y-99500000D03*
%TO.N,ISENSE4*%
X64825000Y-89275000D03*
X68150000Y-84800000D03*
D82*
%TO.N,LASER_N1*%
X168825000Y-131400000D03*
%TO.N,LASER_V+*%
X112425000Y-131350000D03*
X76821662Y-121003338D03*
X77925000Y-106800000D03*
D81*
%TO.N,MPD1*%
X64375000Y-101150000D03*
X70978680Y-92780000D03*
%TO.N,MPD3*%
X61250000Y-101150000D03*
X61675000Y-95825000D03*
%TO.N,MPD_RAW1*%
X67164191Y-110835809D03*
X67550000Y-113400000D03*
%TO.N,MPD_RAW2*%
X65500000Y-113625000D03*
X65534088Y-110811252D03*
%TO.N,MPD_RAW3*%
X174775000Y-115325000D03*
X163200000Y-115325000D03*
%TO.N,Net-(D1-K)*%
X140800000Y-85600000D03*
X140800000Y-92550000D03*
%TO.N,Net-(J6-Pad12)*%
X46675000Y-127550000D03*
%TO.N,Net-(U6-+)*%
X187800000Y-88800000D03*
X189800000Y-88400000D03*
%TO.N,Net-(U10-~{RST})*%
X57250000Y-90525000D03*
X56622500Y-91945168D03*
%TO.N,PWM1*%
X78450000Y-138875000D03*
X73450000Y-127800000D03*
X177000000Y-134300000D03*
X72750000Y-118675000D03*
X71000000Y-107875000D03*
X147125000Y-138325000D03*
%TO.N,PWM2*%
X112825000Y-111575000D03*
X108155833Y-111985429D03*
%TO.N,PWM3*%
X185025000Y-130025000D03*
X195000000Y-132425000D03*
X131425000Y-123475000D03*
X70600000Y-98150000D03*
X73238486Y-93636100D03*
X82550000Y-93125000D03*
X76382088Y-92697461D03*
X91275000Y-103400000D03*
%TO.N,PWM4*%
X78950000Y-83550000D03*
X94050000Y-83650000D03*
D80*
%TO.N,VBUS_5V*%
X48175000Y-85150000D03*
X47875000Y-88750000D03*
X49775000Y-101081903D03*
X69200000Y-102150000D03*
%TO.N,VIN_24V*%
X86050000Y-119400000D03*
X86800000Y-125425000D03*
D81*
%TO.N,VOUT1*%
X114050000Y-102275000D03*
X100525000Y-101850000D03*
%TO.N,VOUT2*%
X103425000Y-102525000D03*
X113650000Y-103325000D03*
%TO.N,VOUT3*%
X104000000Y-103300000D03*
X146850000Y-128150000D03*
%TO.N,VOUT4*%
X105800000Y-104400000D03*
X118306399Y-124775000D03*
%TD*%
D83*
%TO.N,+3V3*%
X60454200Y-82788300D02*
X62988300Y-82788300D01*
X104475264Y-87950000D02*
X104732500Y-88207236D01*
X58275000Y-83950000D02*
X59292500Y-83950000D01*
D84*
X111955000Y-134475000D02*
X106925000Y-134475000D01*
X96067500Y-90150000D02*
X96067500Y-89840000D01*
D83*
X108452500Y-107125000D02*
X108452500Y-106727500D01*
X108452500Y-108982500D02*
X108765000Y-109295000D01*
X109657500Y-95475000D02*
X108025000Y-95475000D01*
X104732500Y-89892764D02*
X105421929Y-90582193D01*
X108925000Y-100675000D02*
X107465000Y-102135000D01*
X96067500Y-90150000D02*
X98267500Y-87950000D01*
D84*
X93252500Y-87025000D02*
X85150000Y-87025000D01*
D83*
X106602500Y-107262500D02*
X108315000Y-107262500D01*
X54100000Y-93825000D02*
X54100000Y-94825000D01*
X64932500Y-110217500D02*
X65000000Y-110150000D01*
D84*
X118800000Y-130170000D02*
X116260000Y-130170000D01*
D83*
X49800000Y-125637500D02*
X56537500Y-125637500D01*
X108452500Y-107125000D02*
X108452500Y-108982500D01*
X62988300Y-82788300D02*
X63125000Y-82925000D01*
D84*
X96067500Y-89840000D02*
X93252500Y-87025000D01*
D83*
X97392500Y-91475000D02*
X96067500Y-90150000D01*
X58275000Y-83950000D02*
X56800000Y-83950000D01*
X71150000Y-101425000D02*
X70275000Y-101425000D01*
X74945000Y-101450000D02*
X75800000Y-101450000D01*
X108452500Y-106727500D02*
X108050000Y-106325000D01*
X54100000Y-94825000D02*
X54125000Y-94850000D01*
D84*
X70400000Y-128750000D02*
X70475000Y-128675000D01*
D83*
X59292500Y-83950000D02*
X60454200Y-82788300D01*
X63837500Y-110217500D02*
X64932500Y-110217500D01*
X58675000Y-128750000D02*
X58475000Y-128950000D01*
X107465000Y-102135000D02*
X107465000Y-105740000D01*
X105421929Y-90582193D02*
X106586975Y-90582193D01*
D84*
X78150000Y-128500000D02*
X79150000Y-128500000D01*
D83*
X98307500Y-91475000D02*
X97392500Y-91475000D01*
X75800000Y-101450000D02*
X75825000Y-101425000D01*
D84*
X79150000Y-128500000D02*
X79200000Y-128450000D01*
D83*
X61732500Y-110217500D02*
X61600000Y-110085000D01*
X70275000Y-101425000D02*
X70250000Y-101400000D01*
X54100000Y-93825000D02*
X54875000Y-93050000D01*
D84*
X69357500Y-128750000D02*
X70400000Y-128750000D01*
D83*
X63837500Y-110217500D02*
X61732500Y-110217500D01*
D84*
X116260000Y-130170000D02*
X111955000Y-134475000D01*
D83*
X104732500Y-88207236D02*
X104732500Y-89050000D01*
X64500000Y-82925000D02*
X64525000Y-82950000D01*
X55375000Y-92050000D02*
X54875000Y-92050000D01*
X56537500Y-125637500D02*
X59650000Y-128750000D01*
X63125000Y-82925000D02*
X64500000Y-82925000D01*
X54875000Y-93050000D02*
X54875000Y-92050000D01*
X108025000Y-95475000D02*
X108000000Y-95500000D01*
X59650000Y-128750000D02*
X58675000Y-128750000D01*
X98267500Y-87950000D02*
X104475264Y-87950000D01*
X104732500Y-89050000D02*
X104732500Y-89892764D01*
X109657500Y-95975000D02*
X109657500Y-95475000D01*
X107465000Y-105740000D02*
X108050000Y-106325000D01*
X108315000Y-107262500D02*
X108452500Y-107125000D01*
D84*
%TO.N,+5V*%
X113202500Y-108907500D02*
X112510000Y-108907500D01*
X110975000Y-111135000D02*
X110975000Y-113331371D01*
X156970500Y-136006000D02*
X156970500Y-136910297D01*
X129003999Y-128940000D02*
X129179000Y-130717999D01*
X129179000Y-130718000D02*
X127982000Y-130718000D01*
D83*
X108439798Y-98560202D02*
X104460202Y-98560202D01*
D84*
X169604500Y-130021000D02*
X170521000Y-130021000D01*
D85*
X147481000Y-87782500D02*
X145807500Y-87782500D01*
D84*
X99287500Y-111575000D02*
X99287500Y-115675000D01*
D83*
X192984500Y-87225000D02*
X192083500Y-86324000D01*
D84*
X193094500Y-135203000D02*
X193094500Y-136180500D01*
X153975000Y-134300000D02*
X153975000Y-134234394D01*
D83*
X96082500Y-92825000D02*
X96257500Y-93000000D01*
D84*
X109600000Y-105525000D02*
X109900000Y-105225000D01*
X110065001Y-107125000D02*
X109600000Y-106659999D01*
D83*
X104460202Y-98560202D02*
X99375000Y-93475000D01*
D85*
X123895000Y-109380000D02*
X124275000Y-109000000D01*
X149289000Y-91814000D02*
X149325000Y-91850000D01*
D84*
X99287500Y-115675000D02*
X99312500Y-115700000D01*
X112282500Y-97125000D02*
X112282500Y-95525000D01*
X139430000Y-133650000D02*
X139400000Y-133620000D01*
X191824000Y-86324000D02*
X191100000Y-85600000D01*
D83*
X174350000Y-86825000D02*
X173609500Y-86825000D01*
X99375000Y-93475000D02*
X98307500Y-93475000D01*
X98307500Y-93475000D02*
X98307500Y-92975000D01*
D84*
X119140000Y-133050000D02*
X118800000Y-132710000D01*
X155292500Y-132916894D02*
X155292500Y-132400000D01*
X156970500Y-136910297D02*
X157060203Y-137000000D01*
D83*
X125349500Y-100769000D02*
X125349500Y-99800500D01*
D84*
X108606371Y-115700000D02*
X99312500Y-115700000D01*
D83*
X109657500Y-98475000D02*
X112232500Y-98475000D01*
D85*
X118800000Y-132710000D02*
X116260000Y-132710000D01*
D84*
X112282500Y-98425000D02*
X112282500Y-97125000D01*
X127900000Y-130800000D02*
X127900000Y-131375000D01*
X112817500Y-105045000D02*
X112817500Y-104735000D01*
D83*
X173609500Y-86825000D02*
X172683500Y-85899000D01*
D85*
X123895000Y-110500000D02*
X123895000Y-109380000D01*
D84*
X112582500Y-95225000D02*
X114857500Y-92950000D01*
D85*
X137797000Y-86328000D02*
X139575000Y-84550000D01*
D84*
X172827500Y-133617500D02*
X172827500Y-134097500D01*
X112637500Y-105225000D02*
X112817500Y-105045000D01*
X141282500Y-132392500D02*
X141300000Y-132375000D01*
X153975000Y-134234394D02*
X155292500Y-132916894D01*
X141282500Y-133650000D02*
X141282500Y-132392500D01*
X112817500Y-104735000D02*
X112282500Y-104200000D01*
X112282500Y-95525000D02*
X112582500Y-95225000D01*
X109600000Y-106659999D02*
X109600000Y-105525000D01*
D83*
X108525000Y-98475000D02*
X108439798Y-98560202D01*
D84*
X158425000Y-126275000D02*
X158425000Y-127105785D01*
D83*
X109657500Y-98475000D02*
X108525000Y-98475000D01*
D84*
X110975000Y-113331371D02*
X108606371Y-115700000D01*
X191454500Y-133645500D02*
X191454500Y-133177852D01*
D83*
X129700000Y-102512500D02*
X129700000Y-103525000D01*
D84*
X129179000Y-130718000D02*
X129226000Y-130718000D01*
D83*
X129700000Y-103525000D02*
X129675000Y-103550000D01*
D84*
X155292500Y-131382500D02*
X155450000Y-131225000D01*
X127982000Y-130718000D02*
X127900000Y-130800000D01*
X110727500Y-107125000D02*
X110065001Y-107125000D01*
X127900000Y-131375000D02*
X126225000Y-133050000D01*
D85*
X137750000Y-86328000D02*
X137797000Y-86328000D01*
D84*
X126225000Y-133050000D02*
X119140000Y-133050000D01*
D83*
X112232500Y-98475000D02*
X112282500Y-98425000D01*
D84*
X141282500Y-133650000D02*
X139430000Y-133650000D01*
D83*
X96257500Y-93000000D02*
X98307500Y-93000000D01*
X96082500Y-94025000D02*
X96082500Y-94207465D01*
D84*
X172225555Y-85899000D02*
X171670516Y-85343961D01*
D83*
X193800000Y-87225000D02*
X192984500Y-87225000D01*
D84*
X113202500Y-108907500D02*
X110975000Y-111135000D01*
X155292500Y-132400000D02*
X155292500Y-131382500D01*
D85*
X149289000Y-90577500D02*
X149289000Y-91814000D01*
D84*
X109900000Y-105225000D02*
X110727500Y-105225000D01*
X191454500Y-133177852D02*
X191662869Y-132969483D01*
D83*
X96082500Y-92825000D02*
X96082500Y-94025000D01*
D84*
X193094500Y-136180500D02*
X193050000Y-136225000D01*
X112282500Y-104200000D02*
X112282500Y-98425000D01*
X172827500Y-134097500D02*
X172675000Y-134250000D01*
D83*
X128200000Y-101682500D02*
X128200000Y-100800000D01*
D84*
X172683500Y-85899000D02*
X172225555Y-85899000D01*
D83*
X125349500Y-99800500D02*
X125350000Y-99800000D01*
D85*
X139575000Y-83575000D02*
X139550000Y-83550000D01*
D84*
X114857500Y-92950000D02*
X118725000Y-92950000D01*
X170521000Y-130021000D02*
X170558689Y-130058689D01*
D85*
X145807500Y-87782500D02*
X145775000Y-87750000D01*
D84*
X158425000Y-127105785D02*
X158218951Y-127311834D01*
X192083500Y-86324000D02*
X191824000Y-86324000D01*
D85*
X139575000Y-84550000D02*
X139575000Y-83575000D01*
D83*
X98307500Y-98475000D02*
X109657500Y-98475000D01*
D84*
X110727500Y-105225000D02*
X112637500Y-105225000D01*
X112510000Y-108907500D02*
X110727500Y-107125000D01*
D86*
%TO.N,/LASER_BLUE/FB*%
X179087500Y-85687500D02*
X175625000Y-82225000D01*
D85*
X173250000Y-91375000D02*
X173250000Y-88365500D01*
X170105500Y-82225000D02*
X175625000Y-82225000D01*
D86*
X178754828Y-87037500D02*
X179087500Y-86704828D01*
D85*
X174416500Y-92541500D02*
X175536000Y-92541500D01*
D86*
X174568040Y-87799000D02*
X175700000Y-86667040D01*
X176025000Y-86312500D02*
X175700000Y-86275000D01*
X175700000Y-86275000D02*
X176462500Y-87037500D01*
X176462500Y-87037500D02*
X178754828Y-87037500D01*
D85*
X168321500Y-84009000D02*
X170105500Y-82225000D01*
D86*
X179087500Y-86704828D02*
X179087500Y-85687500D01*
D85*
X173250000Y-91375000D02*
X174416500Y-92541500D01*
D86*
X172683500Y-87799000D02*
X174568040Y-87799000D01*
D85*
X173250000Y-88365500D02*
X172683500Y-87799000D01*
D86*
X175700000Y-86667040D02*
X175700000Y-86275000D01*
%TO.N,/LASER_BLUE/LOUT*%
X170408500Y-85899000D02*
X170408500Y-84371000D01*
X170408500Y-84371000D02*
X170046500Y-84009000D01*
X172335500Y-84009000D02*
X170046500Y-84009000D01*
D85*
%TO.N,/LASER_GREEN/FB*%
X195100000Y-137850000D02*
X190100000Y-137850000D01*
X197289500Y-135217000D02*
X197289500Y-135660500D01*
X190888000Y-128169500D02*
X190888000Y-131179000D01*
D86*
X189300000Y-133425000D02*
X190900000Y-134500000D01*
D85*
X190979500Y-131745500D02*
X191454500Y-131745500D01*
X197289500Y-135660500D02*
X195100000Y-137850000D01*
D86*
X190900000Y-134500000D02*
X190900000Y-136800000D01*
D85*
X188602000Y-127003000D02*
X189721500Y-127003000D01*
X189721500Y-127003000D02*
X190888000Y-128169500D01*
D86*
X190900000Y-136800000D02*
X190100000Y-137850000D01*
D85*
X189300000Y-133425000D02*
X190979500Y-131745500D01*
X190888000Y-131179000D02*
X191454500Y-131745500D01*
D86*
%TO.N,/LASER_GREEN/LOUT*%
X193392500Y-133645500D02*
X193729500Y-133645500D01*
X195564500Y-135217000D02*
X193993000Y-133645500D01*
X193993000Y-133645500D02*
X193729500Y-133645500D01*
X191802500Y-135235500D02*
X193392500Y-133645500D01*
D85*
%TO.N,/LASER_IR/FB*%
X170633500Y-128141500D02*
X169975000Y-128800000D01*
X178175000Y-137550000D02*
X170525000Y-137550000D01*
X172827500Y-128708000D02*
X172261000Y-128141500D01*
D86*
X172263000Y-137550000D02*
X170525000Y-137550000D01*
D85*
X172261000Y-128141500D02*
X170633500Y-128141500D01*
X170528940Y-133541060D02*
X170528940Y-134168320D01*
X172827500Y-131717500D02*
X172827500Y-128708000D01*
D86*
X170528900Y-134168299D02*
X172263000Y-135000000D01*
D85*
X170673000Y-133397000D02*
X171148000Y-133397000D01*
X170673000Y-133397000D02*
X170528940Y-133541060D01*
D86*
X172263000Y-135000000D02*
X172263000Y-137550000D01*
D85*
X171148000Y-133397000D02*
X172827500Y-131717500D01*
D86*
%TO.N,/LASER_IR/LOUT*%
X173175500Y-135507500D02*
X173212500Y-135507500D01*
X178175000Y-135825000D02*
X177310000Y-135825000D01*
X173212500Y-135507500D02*
X175102500Y-133617500D01*
X177310000Y-135825000D02*
X175102500Y-133617500D01*
%TO.N,/LASER_RED/FB*%
X192650000Y-88790500D02*
X192083500Y-88224000D01*
X188525000Y-85237500D02*
X187721500Y-84434000D01*
X192083500Y-88224000D02*
X191107500Y-89200000D01*
X188600000Y-85575000D02*
X188525000Y-85500000D01*
X194936000Y-92966500D02*
X193816500Y-92966500D01*
X191107500Y-89200000D02*
X188600000Y-89200000D01*
X195325000Y-86899999D02*
X195325000Y-86600000D01*
X192083500Y-88224000D02*
X194000999Y-88224000D01*
X194000999Y-88224000D02*
X195325000Y-86899999D01*
X193816500Y-92966500D02*
X192650000Y-91800000D01*
X192650000Y-91800000D02*
X192650000Y-88790500D01*
X188600000Y-89200000D02*
X188600000Y-85575000D01*
X188525000Y-85500000D02*
X188525000Y-85237500D01*
%TO.N,/LASER_RED/LOUT*%
X189446500Y-85962000D02*
X189808500Y-86324000D01*
X189446500Y-84434000D02*
X189446500Y-85962000D01*
X191735500Y-84434000D02*
X189446500Y-84434000D01*
D83*
%TO.N,/MCU_ESP32-S3/D+*%
X51738900Y-92300000D02*
X52188900Y-92750000D01*
X49950000Y-92550000D02*
X51488900Y-92550000D01*
X43555000Y-87905000D02*
X45229448Y-87905000D01*
X42975000Y-87325000D02*
X43555000Y-87905000D01*
X49025000Y-87580132D02*
X49025000Y-91625000D01*
X45229448Y-87905000D02*
X46234448Y-86900000D01*
X53875000Y-92464386D02*
X53875000Y-92050000D01*
X48995684Y-87580132D02*
X49025000Y-87580132D01*
X49025000Y-91625000D02*
X49950000Y-92550000D01*
X53589386Y-92750000D02*
X53875000Y-92464386D01*
X51488900Y-92550000D02*
X51738900Y-92300000D01*
X39975000Y-87775000D02*
X42525000Y-87775000D01*
X48315552Y-86900000D02*
X48995684Y-87580132D01*
X52188900Y-92750000D02*
X53589386Y-92750000D01*
X46234448Y-86900000D02*
X48315552Y-86900000D01*
X42525000Y-87775000D02*
X42975000Y-87325000D01*
%TO.N,/MCU_ESP32-S3/D-*%
X50800000Y-93000000D02*
X51449200Y-93130000D01*
X44700000Y-87325000D02*
X45505000Y-86520000D01*
X49625000Y-91305800D02*
X49625000Y-91150000D01*
X54375000Y-92501788D02*
X54375000Y-92050000D01*
X44120000Y-86745000D02*
X44700000Y-87325000D01*
X51449239Y-93130000D02*
X53746788Y-93130000D01*
X45505000Y-86520000D02*
X48982151Y-86520000D01*
X53746788Y-93130000D02*
X54375000Y-92501788D01*
X49625000Y-87162849D02*
X49625000Y-91305761D01*
X39975000Y-86975000D02*
X40205000Y-86745000D01*
X40205000Y-86745000D02*
X44120000Y-86745000D01*
X50350000Y-93250000D02*
X50800000Y-93000000D01*
X48982151Y-86520000D02*
X49625000Y-87162849D01*
D86*
%TO.N,/MCU_ESP32-S3/DTR*%
X50450000Y-91250000D02*
X51275000Y-91250000D01*
X47877236Y-93822236D02*
X47877236Y-93972764D01*
X47230000Y-93175000D02*
X47877236Y-93822236D01*
X51275000Y-91250000D02*
X51425000Y-91100000D01*
X46717500Y-95938000D02*
X46717500Y-95217192D01*
X46717500Y-95217192D02*
X46562654Y-95062346D01*
%TO.N,/MCU_ESP32-S3/EN*%
X62812500Y-129385000D02*
X62152500Y-128725000D01*
X51925000Y-95312500D02*
X51925000Y-95925000D01*
X63125000Y-84195000D02*
X62125000Y-84195000D01*
X62125000Y-84195000D02*
X60295598Y-86024402D01*
X51925000Y-94475000D02*
X51950000Y-94450000D01*
X60295598Y-86024402D02*
X55781444Y-86024402D01*
X50797500Y-99125908D02*
X52025332Y-100353740D01*
X54852500Y-130700000D02*
X62812500Y-130700000D01*
X51925000Y-95312500D02*
X51925000Y-94475000D01*
X62812500Y-130700000D02*
X62812500Y-129385000D01*
X52025000Y-119930000D02*
X52025000Y-104730018D01*
X52025332Y-100353740D02*
X53053740Y-100353740D01*
X50797500Y-97052500D02*
X50797500Y-99125908D01*
X60870000Y-128725000D02*
X60845000Y-128750000D01*
X52025000Y-104730018D02*
X52790992Y-103964026D01*
X60845000Y-128750000D02*
X52025000Y-119930000D01*
X62152500Y-128725000D02*
X60870000Y-128725000D01*
X51925000Y-95925000D02*
X50797500Y-97052500D01*
X55781444Y-86024402D02*
X55579137Y-86226709D01*
%TO.N,/MCU_ESP32-S3/FACT*%
X76597501Y-128500000D02*
X75550000Y-127452499D01*
X76955000Y-128500000D02*
X76597501Y-128500000D01*
X75550000Y-119236702D02*
X75544149Y-119230851D01*
X76955000Y-130107500D02*
X77522500Y-130675000D01*
X82250000Y-82925000D02*
X83280851Y-83955851D01*
X76955000Y-128500000D02*
X76955000Y-130107500D01*
X80625000Y-82925000D02*
X82250000Y-82925000D01*
X75550000Y-127452499D02*
X75550000Y-119236702D01*
X77522500Y-130675000D02*
X85482500Y-130675000D01*
%TO.N,/MCU_ESP32-S3/IO13*%
X72345000Y-101425000D02*
X72345000Y-99580000D01*
X72345000Y-99580000D02*
X72510000Y-99415000D01*
%TO.N,/MCU_ESP32-S3/IO14*%
X73750000Y-101450000D02*
X73750000Y-99445000D01*
X73750000Y-99445000D02*
X73780000Y-99415000D01*
D83*
%TO.N,/MCU_ESP32-S3/IO19*%
X56230974Y-102789026D02*
X62125000Y-96895000D01*
X44300000Y-100775000D02*
X45175000Y-101650000D01*
X40000000Y-100775000D02*
X44300000Y-100775000D01*
X48688604Y-103100000D02*
X52059314Y-103100000D01*
X47238604Y-101650000D02*
X48688604Y-103100000D01*
X62125000Y-96895000D02*
X63125000Y-96895000D01*
X45175000Y-101650000D02*
X47238604Y-101650000D01*
X52059314Y-103100000D02*
X52370287Y-102789026D01*
X52370287Y-102789026D02*
X56230974Y-102789026D01*
%TO.N,/MCU_ESP32-S3/IO20*%
X52577394Y-103289026D02*
X57700974Y-103289026D01*
X57700974Y-103289026D02*
X62825000Y-98165000D01*
X52266421Y-103600000D02*
X52577394Y-103289026D01*
X43375000Y-101650000D02*
X44022792Y-102297792D01*
X44022792Y-102297792D02*
X47100000Y-102297792D01*
X48402208Y-103600000D02*
X52266421Y-103600000D01*
X62825000Y-98165000D02*
X63125000Y-98165000D01*
X47100000Y-102297792D02*
X48402208Y-103600000D01*
X43300000Y-101575000D02*
X43375000Y-101650000D01*
X40000000Y-101575000D02*
X43300000Y-101575000D01*
D86*
%TO.N,/MCU_ESP32-S3/IO43*%
X50507043Y-89600000D02*
X50402888Y-89495845D01*
X77300992Y-85465000D02*
X75912144Y-86853848D01*
X80625000Y-85465000D02*
X77300992Y-85465000D01*
X51425000Y-89600000D02*
X50507043Y-89600000D01*
%TO.N,/MCU_ESP32-S3/IO44*%
X80625000Y-86735000D02*
X77077420Y-86735000D01*
X50793733Y-90100000D02*
X50563125Y-90330608D01*
X77077420Y-86735000D02*
X76681759Y-87130661D01*
X51425000Y-90100000D02*
X50793733Y-90100000D01*
%TO.N,/MCU_ESP32-S3/PROG*%
X80625000Y-98165000D02*
X80076396Y-98165000D01*
X44842500Y-97259552D02*
X48075000Y-100492052D01*
X74312500Y-130700000D02*
X74312500Y-119637500D01*
X66352500Y-129215000D02*
X66817500Y-128750000D01*
X76722496Y-94811100D02*
X69763814Y-94811100D01*
X48075000Y-101779290D02*
X48895710Y-102600000D01*
X48895710Y-102600000D02*
X51852207Y-102600000D01*
X66352500Y-130700000D02*
X74312500Y-130700000D01*
X66817500Y-128750000D02*
X68162500Y-128750000D01*
X80625000Y-98165000D02*
X80625000Y-100060957D01*
X66352500Y-130700000D02*
X66352500Y-129215000D01*
X80076396Y-98165000D02*
X76722496Y-94811100D01*
X44842500Y-96888000D02*
X44842500Y-97259552D01*
X52163180Y-102289026D02*
X53010974Y-102289026D01*
X51852207Y-102600000D02*
X52163180Y-102289026D01*
X69763814Y-94811100D02*
X68634954Y-93682240D01*
X80625000Y-100060957D02*
X80187521Y-100498436D01*
X74312500Y-119637500D02*
X74475000Y-119475000D01*
X53010974Y-102289026D02*
X61075000Y-94225000D01*
X48075000Y-100492052D02*
X48075000Y-101779290D01*
%TO.N,/MCU_ESP32-S3/RTS*%
X49830852Y-96481648D02*
X50050000Y-96262500D01*
X45500000Y-93150000D02*
X45500000Y-91775000D01*
X50275000Y-88500000D02*
X50361638Y-88500000D01*
X48796451Y-96481648D02*
X49830852Y-96481648D01*
X45500000Y-93150000D02*
X45500000Y-93875000D01*
X45500000Y-93875000D02*
X45750000Y-94125000D01*
X50361638Y-88500000D02*
X50961638Y-89100000D01*
X45500000Y-91775000D02*
X46900000Y-90375000D01*
X50961638Y-89100000D02*
X51425000Y-89100000D01*
D85*
%TO.N,/POWER_IO/BUCK_5V*%
X88825000Y-116612500D02*
X86200000Y-116612500D01*
X92425000Y-115700000D02*
X91525000Y-116600000D01*
X88837500Y-116600000D02*
X88825000Y-116612500D01*
X95312500Y-115700000D02*
X92425000Y-115700000D01*
X89475000Y-109925000D02*
X95250000Y-115700000D01*
X86200000Y-116612500D02*
X86162500Y-116575000D01*
X95250000Y-115700000D02*
X95312500Y-115700000D01*
X91525000Y-116600000D02*
X88837500Y-116600000D01*
D86*
%TO.N,/POWER_IO/MPD_AMP1*%
X63837500Y-108267500D02*
X63837500Y-106262500D01*
X63837500Y-106262500D02*
X63650000Y-106075000D01*
%TO.N,/POWER_IO/MPD_AMP2*%
X63837500Y-114575000D02*
X63837500Y-112167500D01*
%TO.N,/POWER_IO/MPD_AMP3*%
X69437500Y-118112500D02*
X68650000Y-117325000D01*
X69455000Y-112275000D02*
X69562500Y-112167500D01*
X68350000Y-112275000D02*
X69455000Y-112275000D01*
X69437500Y-118375000D02*
X69437500Y-118112500D01*
%TO.N,/POWER_IO/MPD_AMP4*%
X69837500Y-106225000D02*
X69837500Y-107992500D01*
X69837500Y-107992500D02*
X69562500Y-108267500D01*
%TO.N,/POWER_IO/MPD_BIAS*%
X75110000Y-109175000D02*
X76312500Y-107972500D01*
X69531200Y-108917500D02*
X69562500Y-108917500D01*
X69500000Y-116300000D02*
X70747757Y-115052243D01*
X72850000Y-108225000D02*
X73800000Y-109175000D01*
X76312500Y-109412500D02*
X74550000Y-111175000D01*
X66200478Y-108917500D02*
X63837500Y-108917500D01*
X73800000Y-113500000D02*
X75000000Y-113500000D01*
X69562500Y-108917500D02*
X71232500Y-108917500D01*
X70675000Y-111750000D02*
X70442500Y-111517500D01*
X76312500Y-107972500D02*
X76312500Y-109412500D01*
X74562500Y-111187500D02*
X74550000Y-111175000D01*
X71232500Y-108917500D02*
X72850000Y-107300000D01*
X174775000Y-113500000D02*
X178125000Y-114675000D01*
X73800000Y-109175000D02*
X75110000Y-109175000D01*
X72850000Y-107300000D02*
X72850000Y-108225000D01*
X70442500Y-111517500D02*
X69562500Y-111517500D01*
X63837500Y-108917500D02*
X69562500Y-108917500D01*
X69562500Y-111517500D02*
X68800478Y-111517500D01*
X63837500Y-111517500D02*
X69562500Y-111517500D01*
X69500000Y-116300000D02*
X69531200Y-116300000D01*
X174775000Y-113500000D02*
X175800000Y-113500000D01*
X70745556Y-111714011D02*
X70675000Y-111750000D01*
X73800000Y-113500000D02*
X73800000Y-109175000D01*
X70747757Y-115052243D02*
X70747757Y-114780311D01*
X68800478Y-111517500D02*
X66200478Y-108917500D01*
X165189200Y-115225000D02*
X174775000Y-113500000D01*
%TO.N,ADC_BUSY*%
X83936396Y-101075000D02*
X83786396Y-101075000D01*
X77140000Y-100553604D02*
X78611396Y-102025000D01*
X76320000Y-99415000D02*
X76320000Y-99733604D01*
X108044282Y-91975000D02*
X107745938Y-91676656D01*
X105998344Y-91676656D02*
X105550000Y-92125000D01*
X83811396Y-102275000D02*
X84200000Y-101886396D01*
X76320000Y-99733604D02*
X76576396Y-99990000D01*
X76500000Y-99500000D02*
X76320000Y-99415000D01*
X109657500Y-91975000D02*
X110000000Y-92000000D01*
X78611396Y-102025000D02*
X79086396Y-102025000D01*
X79086396Y-102025000D02*
X79336396Y-102275000D01*
X83786396Y-101075000D02*
X83608781Y-100897385D01*
X79336396Y-102275000D02*
X83811396Y-102275000D01*
X84200000Y-101886396D02*
X84200000Y-101338604D01*
X76865000Y-99990000D02*
X76865000Y-100440000D01*
X77140000Y-100440000D02*
X77140000Y-100553604D01*
X107745938Y-91676656D02*
X105998344Y-91676656D01*
X76865000Y-100440000D02*
X77140000Y-100440000D01*
X83608781Y-100897385D02*
X83608781Y-100800000D01*
X109657500Y-91975000D02*
X108044282Y-91975000D01*
X84200000Y-101338604D02*
X83936396Y-101075000D01*
X76576396Y-99990000D02*
X76865000Y-99990000D01*
%TO.N,ADC_CS*%
X85711702Y-98625000D02*
X87322429Y-100235727D01*
X80588604Y-101125000D02*
X83088604Y-98625000D01*
X63125000Y-94355000D02*
X68600607Y-94355000D01*
X79585000Y-98380711D02*
X79585000Y-100298082D01*
X109657500Y-92475000D02*
X107589687Y-92475000D01*
X87322429Y-100235727D02*
X87322429Y-100326478D01*
X79585000Y-100298082D02*
X79258082Y-100625000D01*
X79258082Y-101125000D02*
X80588604Y-101125000D01*
X107589687Y-92475000D02*
X107466343Y-92351656D01*
X72626318Y-98380711D02*
X79585000Y-98380711D01*
X68600607Y-94355000D02*
X72626318Y-98380711D01*
X79258082Y-100625000D02*
X79258082Y-101125000D01*
X83088604Y-98625000D02*
X85711702Y-98625000D01*
%TO.N,ADC_MISO_A*%
X78425000Y-102475000D02*
X78900000Y-102475000D01*
X75075000Y-100440000D02*
X76228604Y-100440000D01*
X79150000Y-102725000D02*
X84050000Y-102725000D01*
X104150000Y-90550000D02*
X104232500Y-90467500D01*
X76228604Y-100440000D02*
X76678604Y-100890000D01*
X104232500Y-90467500D02*
X104232500Y-89050000D01*
X78900000Y-102475000D02*
X79150000Y-102725000D01*
X85225000Y-101550000D02*
X85225000Y-99800000D01*
X75050000Y-99415000D02*
X75050000Y-100415000D01*
X76678604Y-100890000D02*
X76840000Y-100890000D01*
X75050000Y-100415000D02*
X75075000Y-100440000D01*
X84050000Y-102725000D02*
X85225000Y-101550000D01*
X76840000Y-100890000D02*
X78425000Y-102475000D01*
%TO.N,ADC_MISO_B*%
X91525000Y-92400000D02*
X82310000Y-92400000D01*
X82310000Y-92400000D02*
X81625000Y-93085000D01*
X101844201Y-91713298D02*
X101763298Y-91713298D01*
X81625000Y-93085000D02*
X80625000Y-93085000D01*
X103732500Y-89050000D02*
X103732500Y-89824999D01*
X103732500Y-89824999D02*
X101844201Y-91713298D01*
%TO.N,ADC_RESET*%
X109657500Y-93475000D02*
X103525000Y-93475000D01*
X78797792Y-101575000D02*
X77590000Y-100367208D01*
X77590000Y-100367208D02*
X77590000Y-99415000D01*
X82650000Y-101575000D02*
X78797792Y-101575000D01*
X103525000Y-93475000D02*
X103250000Y-93750000D01*
%TO.N,ADC_SCLK*%
X63202760Y-93007240D02*
X69980032Y-93007240D01*
X103954601Y-92799998D02*
X101635247Y-92799998D01*
X109607500Y-93025000D02*
X104179603Y-93025000D01*
X63125000Y-93085000D02*
X63202760Y-93007240D01*
X109657500Y-92975000D02*
X109607500Y-93025000D01*
X101635247Y-92799998D02*
X100488356Y-91653107D01*
X104179603Y-93025000D02*
X103954601Y-92799998D01*
X69980032Y-93007240D02*
X71283892Y-94311100D01*
X71283892Y-94311100D02*
X77338900Y-94311100D01*
X77338900Y-94311100D02*
X79300000Y-92350000D01*
%TO.N,CONVST*%
X109750000Y-94250000D02*
X109657500Y-93975000D01*
X81553249Y-80925000D02*
X74579595Y-80925000D01*
X110525000Y-94475000D02*
X111203248Y-93796752D01*
X109657500Y-94475000D02*
X110525000Y-94475000D01*
X63530000Y-90950000D02*
X63125000Y-90545000D01*
X106996752Y-86000000D02*
X86628249Y-86000000D01*
X86628249Y-86000000D02*
X81553249Y-80925000D01*
X67475000Y-88029595D02*
X67475000Y-90554595D01*
X107446752Y-85550000D02*
X106996752Y-86000000D01*
X74579595Y-80925000D02*
X67475000Y-88029595D01*
X111203248Y-85550000D02*
X107446752Y-85550000D01*
X109657500Y-94475000D02*
X109750000Y-94250000D01*
X67475000Y-90554595D02*
X67079595Y-90950000D01*
X67079595Y-90950000D02*
X63530000Y-90950000D01*
X111203248Y-93796752D02*
X111203248Y-85550000D01*
D85*
%TO.N,GND*%
X116260000Y-127630000D02*
X114645000Y-127630000D01*
X52625000Y-98725000D02*
X52650000Y-98700000D01*
D84*
X148096500Y-133203000D02*
X148096500Y-131878500D01*
D83*
X113417500Y-98425000D02*
X113417500Y-97125000D01*
D85*
X71775000Y-90775000D02*
X70375000Y-90775000D01*
D83*
X53375000Y-92050000D02*
X53375000Y-90100000D01*
X107232500Y-100400000D02*
X106732500Y-100400000D01*
X99675000Y-91975000D02*
X99700000Y-91950000D01*
D85*
X142531000Y-90322500D02*
X142531000Y-91369000D01*
X194229500Y-136054497D02*
X194375003Y-136200000D01*
D84*
X83887500Y-114675000D02*
X83887500Y-113687500D01*
D85*
X51062500Y-101050000D02*
X51062500Y-100787500D01*
X63785000Y-104400000D02*
X64925000Y-104400000D01*
X54852500Y-135200000D02*
X52702500Y-135200000D01*
D84*
X175102500Y-132667500D02*
X174007500Y-132667500D01*
D83*
X63123300Y-81653300D02*
X63125000Y-81655000D01*
X106232500Y-100400000D02*
X105757500Y-100400000D01*
D85*
X94847500Y-95425000D02*
X94847500Y-96185000D01*
D83*
X109657500Y-90975000D02*
X109657500Y-90032500D01*
X109657500Y-96975000D02*
X108325000Y-96975000D01*
X113952500Y-105045000D02*
X113952500Y-106082500D01*
D84*
X83037500Y-113000000D02*
X83887500Y-114675000D01*
X101000000Y-137012500D02*
X102487500Y-136162500D01*
D85*
X120580000Y-127630000D02*
X120625000Y-127675000D01*
D83*
X107232500Y-100400000D02*
X107732500Y-100400000D01*
X69012500Y-104425000D02*
X69108522Y-104425000D01*
D84*
X185724000Y-86315500D02*
X185724000Y-85708938D01*
D85*
X70375000Y-90775000D02*
X70425000Y-90825000D01*
D84*
X102050000Y-124775000D02*
X102025000Y-124750000D01*
X88825000Y-114537500D02*
X88825000Y-113250000D01*
D83*
X121355000Y-105550000D02*
X121355000Y-103945000D01*
D84*
X103562500Y-124775000D02*
X103562500Y-127575000D01*
D85*
X68975000Y-87975000D02*
X68975000Y-89375000D01*
X51062500Y-100787500D02*
X50150000Y-99875000D01*
D84*
X154157500Y-132400000D02*
X152950000Y-132400000D01*
D85*
X64575000Y-128750000D02*
X64475000Y-128850000D01*
X70425000Y-90825000D02*
X70435184Y-90825000D01*
X58350000Y-88050000D02*
X58350000Y-87050000D01*
D84*
X162075000Y-131225000D02*
X162125000Y-131275000D01*
D83*
X103232500Y-99207500D02*
X103200000Y-99175000D01*
X135700000Y-136160000D02*
X135700000Y-135750000D01*
D85*
X68975000Y-89375000D02*
X70375000Y-89375000D01*
D84*
X102100000Y-130550000D02*
X101150000Y-130550000D01*
D85*
X51422500Y-98725000D02*
X52625000Y-98725000D01*
D84*
X190849000Y-87274000D02*
X190875000Y-87300000D01*
D83*
X103232500Y-89050000D02*
X102732500Y-89050000D01*
X66050000Y-117975000D02*
X66025000Y-118000000D01*
X168469500Y-130021000D02*
X168469500Y-129255500D01*
D84*
X193729500Y-132695500D02*
X192899653Y-132695500D01*
D83*
X113202500Y-106832500D02*
X112357500Y-106832500D01*
D85*
X132130500Y-85705500D02*
X132050000Y-85625000D01*
X137371000Y-88360000D02*
X136715000Y-88360000D01*
X41664549Y-89375000D02*
X41705638Y-89333911D01*
D83*
X126950000Y-100700000D02*
X126925000Y-100675000D01*
D84*
X103462500Y-127675000D02*
X102100000Y-129037500D01*
D83*
X60232500Y-81875000D02*
X60454200Y-81653300D01*
D84*
X155525000Y-136175000D02*
X155375000Y-136325000D01*
D83*
X134450000Y-136160000D02*
X135700000Y-136160000D01*
D85*
X198667000Y-132801000D02*
X197814000Y-133654000D01*
X68975000Y-89375000D02*
X68975000Y-90198733D01*
X71775000Y-89375000D02*
X72018781Y-89375000D01*
D84*
X179187000Y-133626000D02*
X178249000Y-133626000D01*
D83*
X174350000Y-85690000D02*
X174695356Y-85690000D01*
D85*
X42287500Y-138412500D02*
X42000000Y-138700000D01*
D83*
X106232500Y-100400000D02*
X106232500Y-99379785D01*
D85*
X42314549Y-88725000D02*
X41705638Y-89333911D01*
X116260000Y-127630000D02*
X118800000Y-127630000D01*
D83*
X107732500Y-89050000D02*
X108675000Y-89050000D01*
D85*
X70375000Y-87975000D02*
X68975000Y-87975000D01*
D83*
X193800000Y-85850000D02*
X194125000Y-85525000D01*
X110840000Y-109295000D02*
X110840000Y-110138628D01*
D85*
X142531000Y-91369000D02*
X142500000Y-91400000D01*
D83*
X100732500Y-99167500D02*
X100750000Y-99150000D01*
D85*
X42125000Y-103175000D02*
X42150000Y-103150000D01*
X93545000Y-99825000D02*
X93545000Y-100967563D01*
D83*
X109657500Y-97975000D02*
X109657500Y-97475000D01*
D85*
X65682500Y-128750000D02*
X64575000Y-128750000D01*
X58240000Y-92390000D02*
X58675000Y-92825000D01*
D84*
X185724000Y-85708938D02*
X185345031Y-85329969D01*
D85*
X66352500Y-135200000D02*
X67775000Y-135200000D01*
X72018781Y-89375000D02*
X72600000Y-88793781D01*
D84*
X102100000Y-129037500D02*
X102100000Y-130550000D01*
X130032000Y-126922397D02*
X129684603Y-126575000D01*
D85*
X150282500Y-89442500D02*
X150300000Y-89425000D01*
X79175000Y-135175000D02*
X79200000Y-135200000D01*
D83*
X101732500Y-89050000D02*
X101232500Y-89050000D01*
D85*
X34475000Y-83375000D02*
X34475000Y-85225000D01*
D83*
X104732500Y-100400000D02*
X104732500Y-99242500D01*
D85*
X58350000Y-87050000D02*
X58400000Y-87000000D01*
X44700000Y-88725000D02*
X42975000Y-88725000D01*
D83*
X103232500Y-100400000D02*
X103707500Y-100400000D01*
D85*
X198605500Y-128169500D02*
X198675000Y-128100000D01*
D83*
X106602500Y-106127500D02*
X106602500Y-105297500D01*
D85*
X40000000Y-97175000D02*
X40000000Y-94400000D01*
D83*
X109657500Y-97475000D02*
X109657500Y-96975000D01*
D85*
X70375000Y-89375000D02*
X70375000Y-87975000D01*
X71775000Y-87975000D02*
X70375000Y-87975000D01*
D83*
X107732500Y-89050000D02*
X107232500Y-89050000D01*
X110727500Y-106175000D02*
X111700000Y-106175000D01*
D85*
X58240000Y-91797500D02*
X58240000Y-92390000D01*
D83*
X102232500Y-100400000D02*
X102232500Y-99157500D01*
X102232500Y-99157500D02*
X102225000Y-99150000D01*
D84*
X103562500Y-124775000D02*
X102050000Y-124775000D01*
D85*
X34475000Y-92175000D02*
X34475000Y-94800000D01*
D83*
X99500000Y-95975000D02*
X99525000Y-95950000D01*
D85*
X46575000Y-87550000D02*
X46575000Y-88725000D01*
D83*
X113417500Y-97125000D02*
X113417500Y-96465000D01*
D85*
X61600000Y-108950000D02*
X61600000Y-107951654D01*
D83*
X98307500Y-90975000D02*
X101300000Y-90975000D01*
D85*
X39975000Y-83375000D02*
X39975000Y-81650000D01*
D84*
X170408500Y-86849000D02*
X171474000Y-86849000D01*
D85*
X74312500Y-135200000D02*
X72850000Y-135200000D01*
X34500000Y-105975000D02*
X34500000Y-108175000D01*
D83*
X103232500Y-100400000D02*
X103232500Y-99207500D01*
D84*
X165471000Y-86743500D02*
X166324000Y-85890500D01*
D83*
X69108522Y-104425000D02*
X69504261Y-104820739D01*
X106602500Y-105297500D02*
X106625000Y-105275000D01*
X113952500Y-106082500D02*
X113202500Y-106832500D01*
D84*
X180040000Y-132773000D02*
X179187000Y-133626000D01*
D85*
X34475000Y-85225000D02*
X34500000Y-85250000D01*
D83*
X104732500Y-100400000D02*
X104732500Y-99625001D01*
D85*
X70375000Y-89375000D02*
X70375000Y-90775000D01*
D84*
X167150000Y-91375000D02*
X168550000Y-91375000D01*
X171474000Y-86849000D02*
X171475000Y-86850000D01*
D85*
X39975000Y-94325000D02*
X40025000Y-94375000D01*
D83*
X193800000Y-86090000D02*
X193800000Y-85850000D01*
X53375000Y-90100000D02*
X53875000Y-89600000D01*
X79155000Y-81655000D02*
X79150000Y-81650000D01*
D84*
X174007500Y-132667500D02*
X174000000Y-132675000D01*
X159002500Y-136896662D02*
X159105838Y-137000000D01*
D85*
X70375000Y-87975000D02*
X70375000Y-86975000D01*
D84*
X166324000Y-84526000D02*
X166325000Y-84525000D01*
X186550000Y-91800000D02*
X185125000Y-91800000D01*
D83*
X109657500Y-94975000D02*
X111250000Y-94975000D01*
D84*
X164612000Y-86743500D02*
X165471000Y-86743500D01*
X142417500Y-133650000D02*
X144079345Y-133650000D01*
D85*
X200476000Y-132801000D02*
X200525000Y-132850000D01*
D83*
X174695356Y-85690000D02*
X175210355Y-85175001D01*
D85*
X72850000Y-135200000D02*
X72750000Y-135100000D01*
D83*
X63922500Y-116250000D02*
X63922500Y-116817904D01*
D85*
X64925000Y-104400000D02*
X64975000Y-104450000D01*
X68975000Y-90775000D02*
X68975000Y-89375000D01*
X34500000Y-94925000D02*
X34550000Y-94875000D01*
D84*
X127325000Y-134499300D02*
X127325000Y-134575000D01*
X102487500Y-136162500D02*
X101537500Y-136162500D01*
X159002500Y-136037500D02*
X159002500Y-136896700D01*
D85*
X42975000Y-88725000D02*
X42314549Y-88725000D01*
D83*
X101232500Y-89050000D02*
X100732500Y-89050000D01*
X126950000Y-101682500D02*
X126950000Y-100700000D01*
D84*
X155525000Y-135117500D02*
X155525000Y-136175000D01*
X144079345Y-133650000D02*
X145029345Y-132700000D01*
D85*
X34500000Y-97175000D02*
X34500000Y-94925000D01*
D84*
X178361000Y-128141500D02*
X179766500Y-128141500D01*
D83*
X111700000Y-106175000D02*
X111900000Y-106375000D01*
X66135000Y-118075000D02*
X66135000Y-117815000D01*
D85*
X39975000Y-92175000D02*
X39975000Y-94325000D01*
D83*
X69500000Y-114475000D02*
X69632641Y-114342359D01*
D84*
X180899000Y-132773000D02*
X180040000Y-132773000D01*
D83*
X107232500Y-99363177D02*
X107194323Y-99325000D01*
X63922500Y-116817904D02*
X64039798Y-116935202D01*
X113417500Y-99367500D02*
X113425000Y-99375000D01*
D85*
X45175000Y-103050000D02*
X43375000Y-103050000D01*
X39975000Y-81650000D02*
X39875000Y-81550000D01*
X44587500Y-82525000D02*
X42925000Y-82525000D01*
X199526000Y-132801000D02*
X198667000Y-132801000D01*
D84*
X129562500Y-132852700D02*
X127325000Y-134499300D01*
D85*
X199526000Y-132801000D02*
X200476000Y-132801000D01*
X149289000Y-89442500D02*
X150282500Y-89442500D01*
X39975000Y-89375000D02*
X41664549Y-89375000D01*
D83*
X128200000Y-103112904D02*
X128531048Y-103443952D01*
X102232500Y-100400000D02*
X101757500Y-100400000D01*
X68553362Y-110217500D02*
X68398838Y-110062976D01*
X58275000Y-81875000D02*
X60232500Y-81875000D01*
D85*
X144116000Y-84216000D02*
X144125000Y-84225000D01*
D83*
X113417500Y-96465000D02*
X114657500Y-95225000D01*
D84*
X189808500Y-87274000D02*
X190849000Y-87274000D01*
D85*
X132130500Y-87166000D02*
X132130500Y-85705500D01*
D83*
X106232500Y-99379785D02*
X106177715Y-99325000D01*
D85*
X142948000Y-84216000D02*
X144116000Y-84216000D01*
X94947500Y-91425000D02*
X94947500Y-92825000D01*
X93545000Y-100967563D02*
X93500000Y-101012563D01*
D84*
X130032000Y-127162000D02*
X130032000Y-126922397D01*
D83*
X98307500Y-94975000D02*
X98307500Y-94475000D01*
D85*
X62812500Y-135200000D02*
X60825000Y-135200000D01*
D84*
X114657500Y-95225000D02*
X116050000Y-95225000D01*
D83*
X106232500Y-89050000D02*
X106732500Y-89050000D01*
X101300000Y-90975000D02*
X101675000Y-90600000D01*
D85*
X93607500Y-97425000D02*
X93607500Y-99762500D01*
D83*
X123317500Y-99257500D02*
X123350000Y-99225000D01*
X100732500Y-100400000D02*
X100732500Y-99167500D01*
X66135000Y-117815000D02*
X66575000Y-117375000D01*
X168469500Y-129255500D02*
X168475000Y-129250000D01*
D85*
X68975000Y-90198733D02*
X68830585Y-90343148D01*
D84*
X166324000Y-85890500D02*
X166324000Y-84526000D01*
D83*
X102732500Y-89050000D02*
X102232500Y-89050000D01*
X69562500Y-110217500D02*
X68553362Y-110217500D01*
D84*
X148096500Y-131878500D02*
X148275000Y-131700000D01*
X93600000Y-125350000D02*
X93600000Y-125075006D01*
D85*
X196988000Y-128169500D02*
X198605500Y-128169500D01*
D83*
X113417500Y-98425000D02*
X113417500Y-99367500D01*
X98307500Y-97975000D02*
X99550000Y-97975000D01*
D85*
X67775000Y-135200000D02*
X67850000Y-135275000D01*
D83*
X102232500Y-89050000D02*
X101732500Y-89050000D01*
D85*
X93607500Y-99762500D02*
X93545000Y-99825000D01*
D84*
X122675000Y-130225000D02*
X122650000Y-130200000D01*
D85*
X94932500Y-91410000D02*
X94947500Y-91425000D01*
D83*
X104732500Y-99242500D02*
X104750000Y-99225000D01*
D85*
X61600000Y-107951654D02*
X61725000Y-107826654D01*
D83*
X69632641Y-114342359D02*
X70019264Y-114342359D01*
D85*
X118800000Y-127630000D02*
X120580000Y-127630000D01*
D84*
X95625000Y-127375000D02*
X93600000Y-125350000D01*
D83*
X109657500Y-97975000D02*
X108400000Y-97975000D01*
D85*
X85482500Y-135175000D02*
X84075000Y-135175000D01*
X136715000Y-88360000D02*
X135925000Y-89150000D01*
D84*
X103562500Y-127575000D02*
X103462500Y-127675000D01*
D85*
X40000000Y-94400000D02*
X40025000Y-94375000D01*
D83*
X101732500Y-90542500D02*
X101675000Y-90600000D01*
X126975000Y-95075000D02*
X128250000Y-95075000D01*
D84*
X91525000Y-114525000D02*
X90200000Y-114525000D01*
D83*
X107232500Y-100400000D02*
X107232500Y-99363177D01*
D84*
X88837500Y-114525000D02*
X88825000Y-114537500D01*
D85*
X42925000Y-82525000D02*
X42850000Y-82600000D01*
D84*
X83887500Y-113687500D02*
X83875000Y-113675000D01*
D83*
X98307500Y-94975000D02*
X99525000Y-94975000D01*
D85*
X34475000Y-94800000D02*
X34550000Y-94875000D01*
X34500000Y-108175000D02*
X34450000Y-108225000D01*
X70375000Y-86975000D02*
X70400000Y-86950000D01*
D83*
X128200000Y-102817500D02*
X128200000Y-103112904D01*
D85*
X43375000Y-103050000D02*
X42250000Y-103050000D01*
X71775000Y-87975000D02*
X71775000Y-89375000D01*
X40000000Y-105975000D02*
X40000000Y-108100000D01*
D84*
X101537500Y-136162500D02*
X101375000Y-136325000D01*
D85*
X42250000Y-103050000D02*
X42150000Y-103150000D01*
D83*
X60454200Y-81653300D02*
X63123300Y-81653300D01*
X100732500Y-89050000D02*
X100232500Y-89050000D01*
X99550000Y-97975000D02*
X99725000Y-97800000D01*
D84*
X178249000Y-133626000D02*
X178150000Y-133725000D01*
X185125000Y-91800000D02*
X185050000Y-91875000D01*
X160965000Y-131225000D02*
X162075000Y-131225000D01*
D85*
X114645000Y-127630000D02*
X114600000Y-127675000D01*
X44700000Y-88725000D02*
X46575000Y-88725000D01*
D83*
X98307500Y-91975000D02*
X99675000Y-91975000D01*
D85*
X64350000Y-128725000D02*
X64475000Y-128850000D01*
X94947500Y-92825000D02*
X94947500Y-94025000D01*
D84*
X122675000Y-131650000D02*
X122675000Y-130225000D01*
X184865000Y-86315500D02*
X184012000Y-87168500D01*
D83*
X98307500Y-95975000D02*
X99500000Y-95975000D01*
D85*
X59122500Y-93272500D02*
X58675000Y-92825000D01*
D84*
X152950000Y-132400000D02*
X152925000Y-132375000D01*
D83*
X64655000Y-81655000D02*
X64675000Y-81675000D01*
X109657500Y-90032500D02*
X108675000Y-89050000D01*
D85*
X71775000Y-90775000D02*
X71775000Y-89375000D01*
X70375000Y-90775000D02*
X68975000Y-90775000D01*
X84075000Y-135175000D02*
X83925000Y-135025000D01*
X94947500Y-94025000D02*
X94947500Y-95325000D01*
D84*
X185724000Y-86315500D02*
X184865000Y-86315500D01*
D83*
X101732500Y-89050000D02*
X101732500Y-90542500D01*
X105232500Y-89050000D02*
X105732500Y-89050000D01*
D85*
X63287500Y-128725000D02*
X64350000Y-128725000D01*
D84*
X116050000Y-95225000D02*
X116125000Y-95150000D01*
D83*
X106732500Y-100400000D02*
X106232500Y-100400000D01*
X98307500Y-97975000D02*
X98307500Y-97500000D01*
D84*
X192899653Y-132695500D02*
X192885557Y-132709596D01*
D83*
X103232500Y-100400000D02*
X102732500Y-100400000D01*
X109657500Y-96975000D02*
X109657500Y-96475000D01*
X102732500Y-100400000D02*
X102232500Y-100400000D01*
D85*
X94947500Y-95325000D02*
X94847500Y-95425000D01*
D84*
X179766500Y-128141500D02*
X179800000Y-128175000D01*
D85*
X52702500Y-135200000D02*
X52527500Y-135025000D01*
D83*
X108400000Y-97975000D02*
X108225000Y-97800000D01*
D84*
X168550000Y-91375000D02*
X168625000Y-91450000D01*
D85*
X94932500Y-90150000D02*
X94932500Y-91410000D01*
D83*
X63125000Y-81655000D02*
X64655000Y-81655000D01*
X121355000Y-103945000D02*
X121375000Y-103925000D01*
X105732500Y-89050000D02*
X106232500Y-89050000D01*
D85*
X59122500Y-93950000D02*
X59122500Y-93272500D01*
D83*
X123317500Y-100390000D02*
X123317500Y-99257500D01*
X107232500Y-89050000D02*
X106732500Y-89050000D01*
D85*
X40000000Y-103175000D02*
X42125000Y-103175000D01*
X77522500Y-135175000D02*
X79175000Y-135175000D01*
D83*
X80625000Y-81655000D02*
X79155000Y-81655000D01*
D85*
X71775000Y-89375000D02*
X70375000Y-89375000D01*
D83*
X110840000Y-110138628D02*
X110762316Y-110216312D01*
D85*
X40000000Y-108100000D02*
X40050000Y-108150000D01*
X194229500Y-135203000D02*
X194229500Y-136054497D01*
D83*
X112357500Y-106832500D02*
X111900000Y-106375000D01*
D85*
X94847500Y-96185000D02*
X93607500Y-97425000D01*
D86*
%TO.N,ISENSE1*%
X65154649Y-85465000D02*
X65614649Y-85925000D01*
X82850000Y-94050000D02*
X90299998Y-101499998D01*
X63125000Y-85465000D02*
X65154649Y-85465000D01*
X169975000Y-126975000D02*
X164400000Y-126975000D01*
X164400000Y-126975000D02*
X164400000Y-133500000D01*
X90299998Y-101499998D02*
X90299998Y-102250000D01*
%TO.N,ISENSE2*%
X192000000Y-98350000D02*
X182650000Y-98350000D01*
X131274134Y-114700000D02*
X124880134Y-121094000D01*
X66625000Y-88226574D02*
X66625000Y-90150000D01*
X77524569Y-104025000D02*
X72175000Y-104025000D01*
X81719000Y-120544000D02*
X79075000Y-117900000D01*
X195848500Y-94501500D02*
X192000000Y-98350000D01*
X195848500Y-92054000D02*
X195848500Y-94501500D01*
X194936000Y-91141500D02*
X195848500Y-92054000D01*
X79075000Y-105575431D02*
X77524569Y-104025000D01*
X121068865Y-120544000D02*
X81719000Y-120544000D01*
X162000000Y-114550000D02*
X162000000Y-114700000D01*
X65133426Y-86735000D02*
X66625000Y-88226574D01*
X162000000Y-114700000D02*
X131274100Y-114700000D01*
X121618865Y-121094000D02*
X121068865Y-120544000D01*
X79075000Y-117900000D02*
X79075000Y-105575431D01*
X182650000Y-98350000D02*
X167500000Y-113500000D01*
X124880134Y-121094000D02*
X121618865Y-121094000D01*
X63125000Y-86735000D02*
X65133426Y-86735000D01*
%TO.N,ISENSE3*%
X189750000Y-131704828D02*
X189750000Y-131000000D01*
X146100000Y-135406500D02*
X150468500Y-139775000D01*
X124424500Y-119994000D02*
X130943389Y-113475111D01*
X114450000Y-112369500D02*
X122074500Y-119994000D01*
X146100000Y-127325000D02*
X146100000Y-135406500D01*
X143675000Y-124900000D02*
X146100000Y-127325000D01*
X85900000Y-99520405D02*
X85504595Y-99125000D01*
X177430998Y-139775000D02*
X184655998Y-132550000D01*
X189750000Y-131000000D02*
X188602000Y-129852000D01*
X65401169Y-88005000D02*
X65425000Y-87981169D01*
X150468500Y-139775000D02*
X177430998Y-139775000D01*
X63125000Y-88005000D02*
X65401169Y-88005000D01*
X114450000Y-110350000D02*
X114450000Y-112369500D01*
X122074500Y-119994000D02*
X124424500Y-119994000D01*
X104650000Y-109850000D02*
X95857107Y-109850000D01*
X105539798Y-110739798D02*
X104650000Y-109850000D01*
X106910202Y-110739798D02*
X105539798Y-110739798D01*
X188602000Y-129852000D02*
X188602000Y-128828000D01*
X95857107Y-109850000D02*
X85900000Y-99892893D01*
X83707210Y-99125000D02*
X83332210Y-99500000D01*
X130943389Y-113475111D02*
X133749091Y-113475111D01*
X85504595Y-99125000D02*
X83707210Y-99125000D01*
X85900000Y-99892893D02*
X85900000Y-99520405D01*
X188904828Y-132550000D02*
X189750000Y-131704828D01*
X184655998Y-132550000D02*
X188904828Y-132550000D01*
%TO.N,ISENSE4*%
X87075000Y-85250000D02*
X107075000Y-85250000D01*
X175933792Y-93416500D02*
X176056642Y-93416500D01*
X175925000Y-93425292D02*
X175933792Y-93416500D01*
X165710751Y-93639000D02*
X175925000Y-93639000D01*
X108200000Y-84125000D02*
X134171752Y-84125000D01*
X176056642Y-93416500D02*
X176436000Y-93037142D01*
X175536000Y-91145858D02*
X175536000Y-90716500D01*
X72500000Y-80450000D02*
X82275000Y-80450000D01*
X107075000Y-85250000D02*
X108200000Y-84125000D01*
X68150000Y-84800000D02*
X72500000Y-80450000D01*
X154771751Y-82700000D02*
X165710751Y-93639000D01*
X134171752Y-84125000D02*
X135596752Y-82700000D01*
X175925000Y-93639000D02*
X175925000Y-93425292D01*
X135596752Y-82700000D02*
X154771751Y-82700000D01*
X176436000Y-93037142D02*
X176436000Y-92045858D01*
X82275000Y-80450000D02*
X87075000Y-85250000D01*
X63125000Y-89275000D02*
X64825000Y-89275000D01*
X176436000Y-92045858D02*
X175536000Y-91145858D01*
D85*
%TO.N,LASER_N1*%
X168825000Y-131400000D02*
X169601000Y-131400000D01*
X169601000Y-131400000D02*
X169723000Y-131522000D01*
%TO.N,LASER_N2*%
X192300305Y-99075000D02*
X196574999Y-94800305D01*
X196574999Y-88774999D02*
X196275000Y-88475000D01*
X184880000Y-102437500D02*
X188242500Y-99075000D01*
X196574999Y-94800305D02*
X196574999Y-88774999D01*
X188242500Y-99075000D02*
X192300305Y-99075000D01*
%TO.N,LASER_N3*%
X185950000Y-117387500D02*
X187362500Y-117387500D01*
X187950000Y-117975000D02*
X187950000Y-123925000D01*
X187950000Y-123925000D02*
X186625000Y-125250000D01*
X187362500Y-117387500D02*
X187950000Y-117975000D01*
X186625000Y-129825000D02*
X188350000Y-131550000D01*
X184900000Y-118437500D02*
X185950000Y-117387500D01*
X186625000Y-125250000D02*
X186625000Y-129825000D01*
%TO.N,LASER_N4*%
X177336000Y-88836000D02*
X176650000Y-88150000D01*
X177336000Y-96001500D02*
X177336000Y-88836000D01*
X170900000Y-102437500D02*
X177336000Y-96001500D01*
X176650000Y-88150000D02*
X176975000Y-88187500D01*
D87*
%TO.N,LASER_V+*%
X105637500Y-124775000D02*
X105637500Y-123962500D01*
X79418324Y-123600000D02*
X76821662Y-121003338D01*
X76312500Y-106837500D02*
X76825000Y-106325000D01*
X76825000Y-106325000D02*
X77450000Y-106325000D01*
X105537500Y-127675000D02*
X105537500Y-124875000D01*
X105025000Y-123350000D02*
X101727943Y-123350000D01*
X105637500Y-123962500D02*
X105025000Y-123350000D01*
X105612500Y-127750000D02*
X105537500Y-127675000D01*
X104700000Y-131925000D02*
X104700000Y-131012500D01*
X77450000Y-106325000D02*
X77925000Y-106800000D01*
X101727943Y-123350000D02*
X101477943Y-123600000D01*
X185900000Y-119437500D02*
X185400001Y-119937499D01*
X105650000Y-132875000D02*
X104700000Y-131925000D01*
X75212500Y-106837500D02*
X76312500Y-106837500D01*
X185400001Y-119937499D02*
X170379999Y-119937499D01*
X104700000Y-131012500D02*
X105612500Y-130100000D01*
X74750000Y-107300000D02*
X75212500Y-106837500D01*
X105537500Y-124875000D02*
X105637500Y-124775000D01*
X109150000Y-132875000D02*
X105650000Y-132875000D01*
X101477943Y-123600000D02*
X79418324Y-123600000D01*
X105612500Y-130100000D02*
X105612500Y-127750000D01*
X109150000Y-132875000D02*
X110900000Y-132875000D01*
X110900000Y-132875000D02*
X112425000Y-131350000D01*
D86*
%TO.N,MPD1*%
X61825000Y-106075000D02*
X61825000Y-105225000D01*
X62650000Y-104400000D02*
X62650000Y-102875000D01*
X62650000Y-102875000D02*
X64375000Y-101150000D01*
X77646752Y-84200000D02*
X74331003Y-87515749D01*
X74331003Y-87515749D02*
X74331003Y-91090749D01*
X72641752Y-92780000D02*
X70978680Y-92780000D01*
X79224239Y-84195000D02*
X79219239Y-84200000D01*
X61825000Y-105225000D02*
X62650000Y-104400000D01*
X79219239Y-84200000D02*
X77646752Y-84200000D01*
X80625000Y-84195000D02*
X79224239Y-84195000D01*
X74331003Y-91090749D02*
X72641752Y-92780000D01*
%TO.N,MPD2*%
X62012500Y-111905394D02*
X60850000Y-110742894D01*
X62012500Y-115475000D02*
X62787500Y-116250000D01*
X62012500Y-114575000D02*
X62012500Y-115475000D01*
X62012500Y-114575000D02*
X62012500Y-111905394D01*
X60850000Y-110742894D02*
X60850000Y-103455000D01*
X60850000Y-103455000D02*
X64890000Y-99415000D01*
%TO.N,MPD3*%
X65000000Y-118075000D02*
X63491172Y-118075000D01*
X60125000Y-114708828D02*
X60125000Y-102275000D01*
X62925000Y-95825000D02*
X63125000Y-95625000D01*
X61675000Y-95825000D02*
X62925000Y-95825000D01*
X63491172Y-118075000D02*
X60125000Y-114708828D01*
X65000000Y-118075000D02*
X65685000Y-118760000D01*
X65685000Y-118760000D02*
X67227500Y-118760000D01*
X67227500Y-118760000D02*
X67612500Y-118375000D01*
X60125000Y-102275000D02*
X61250000Y-101150000D01*
%TO.N,MPD4*%
X66925000Y-103840000D02*
X66925000Y-99920000D01*
X67877500Y-104425000D02*
X67510000Y-104425000D01*
X67510000Y-104425000D02*
X66925000Y-103840000D01*
X66925000Y-99920000D02*
X67430000Y-99415000D01*
X68012500Y-104560000D02*
X67877500Y-104425000D01*
X68012500Y-106225000D02*
X68012500Y-104560000D01*
%TO.N,MPD_RAW1*%
X131945405Y-121900000D02*
X160339213Y-121900000D01*
X67975000Y-113612500D02*
X70880395Y-113612500D01*
X63837500Y-109567500D02*
X64602905Y-109567500D01*
X120494231Y-122302818D02*
X120891414Y-122700000D01*
X65803382Y-109475000D02*
X67164191Y-110835809D01*
X67550000Y-113400000D02*
X67550000Y-114425000D01*
X120891414Y-122700000D02*
X131145405Y-122700000D01*
X67600000Y-114475000D02*
X67600000Y-113987500D01*
X165189213Y-117050000D02*
X169492500Y-117050000D01*
X64602905Y-109567500D02*
X64695405Y-109475000D01*
X169492500Y-117050000D02*
X170880000Y-118437500D01*
X70880395Y-113612500D02*
X79570713Y-122302818D01*
X160339213Y-121900000D02*
X165189213Y-117050000D01*
X79570713Y-122302818D02*
X120494231Y-122302818D01*
X67600000Y-113987500D02*
X67975000Y-113612500D01*
X64695405Y-109475000D02*
X65803382Y-109475000D01*
X67550000Y-114425000D02*
X67600000Y-114475000D01*
X131145405Y-122700000D02*
X131945405Y-121900000D01*
%TO.N,MPD_RAW2*%
X120722049Y-121752818D02*
X121130018Y-122160787D01*
X65525000Y-114542500D02*
X65525000Y-114050000D01*
X133585788Y-121150000D02*
X160311396Y-121150000D01*
X187480000Y-107145000D02*
X187480000Y-103037500D01*
X133435787Y-121300000D02*
X133585788Y-121150000D01*
X187480000Y-103037500D02*
X186880000Y-102437500D01*
X160311400Y-121150000D02*
X163500000Y-116100000D01*
X65500000Y-113625000D02*
X65500000Y-114517500D01*
X178125000Y-116500000D02*
X187480000Y-107145000D01*
X121130018Y-122160787D02*
X130752512Y-122160787D01*
X65525000Y-114050000D02*
X66850000Y-112725000D01*
X163500000Y-116100000D02*
X166800000Y-116100000D01*
X71108213Y-113062500D02*
X79798530Y-121752818D01*
X65500000Y-114517500D02*
X65525000Y-114542500D01*
X68182905Y-113062500D02*
X71108213Y-113062500D01*
X166800000Y-116100000D02*
X178125000Y-116500000D01*
X79798530Y-121752818D02*
X120722049Y-121752818D01*
X65477840Y-110867500D02*
X65534088Y-110811252D01*
X63837500Y-110867500D02*
X65477840Y-110867500D01*
X67845405Y-112725000D02*
X68182905Y-113062500D01*
X66850000Y-112725000D02*
X67845405Y-112725000D01*
X131613299Y-121300000D02*
X133435787Y-121300000D01*
X130752512Y-122160787D02*
X131613299Y-121300000D01*
%TO.N,MPD_RAW3*%
X72737500Y-112625000D02*
X70980000Y-110867500D01*
X125107951Y-121644000D02*
X131426951Y-115325000D01*
X80840318Y-121202818D02*
X120949867Y-121202818D01*
X72737500Y-113100000D02*
X72737500Y-112625000D01*
X120949867Y-121202818D02*
X121391048Y-121644000D01*
X121391048Y-121644000D02*
X125107951Y-121644000D01*
X131426999Y-115325000D02*
X163200000Y-115325000D01*
X70980000Y-110867500D02*
X69562500Y-110867500D01*
X72737500Y-113100000D02*
X80840318Y-121202818D01*
%TO.N,MPD_RAW4*%
X71117500Y-109567500D02*
X69562500Y-109567500D01*
X72725000Y-111175000D02*
X71117500Y-109567500D01*
%TO.N,Net-(C57-Pad1)*%
X98307500Y-92475000D02*
X97132500Y-92475000D01*
X97132500Y-92475000D02*
X96082500Y-91425000D01*
%TO.N,Net-(C58-Pad1)*%
X97188088Y-94294018D02*
X97188088Y-94917648D01*
X98307500Y-93975000D02*
X97507106Y-93975000D01*
X97507106Y-93975000D02*
X97188088Y-94294018D01*
X97188088Y-94917648D02*
X96680736Y-95425000D01*
X96680736Y-95425000D02*
X95982500Y-95425000D01*
%TO.N,Net-(D1-A)*%
X142531000Y-87782500D02*
X144750000Y-88017500D01*
X150070000Y-86281500D02*
X151909300Y-87203800D01*
X150070000Y-85000000D02*
X150070000Y-86281500D01*
X144750000Y-85000000D02*
X150070000Y-85000000D01*
X144750000Y-88017500D02*
X144750000Y-85000000D01*
%TO.N,Net-(D1-K)*%
X140800000Y-85600000D02*
X141813000Y-85600000D01*
X141813000Y-85600000D02*
X141813000Y-84216000D01*
X141813000Y-84216000D02*
X139575000Y-86328000D01*
X144750000Y-92547500D02*
X140800000Y-92550000D01*
%TO.N,Net-(D2-A)*%
X125815000Y-109338000D02*
X125815000Y-112744000D01*
X123895000Y-105550000D02*
X123895000Y-107418000D01*
X124630000Y-105550000D02*
X123895000Y-105550000D01*
X125815000Y-112744000D02*
X125296500Y-113262000D01*
X123895000Y-107418000D02*
X125815000Y-109338000D01*
X125296500Y-113262000D02*
X124499500Y-115719000D01*
X123935000Y-105550000D02*
X124630000Y-105550000D01*
%TO.N,Net-(D2-K)*%
X126950000Y-102817500D02*
X125349500Y-102594000D01*
X129160000Y-105550000D02*
X126950000Y-102817500D01*
X128465000Y-105550000D02*
X129160000Y-105550000D01*
%TO.N,Net-(D3-A)*%
X153521500Y-129978000D02*
X151161500Y-129249000D01*
X158800000Y-131000000D02*
X158800000Y-129699999D01*
X158800000Y-129699999D02*
X153521500Y-129978000D01*
X158660000Y-131475000D02*
X158800000Y-131000000D01*
%TO.N,Net-(D3-K)*%
X156970500Y-134181000D02*
X155525000Y-133982500D01*
X163190000Y-131475000D02*
X162940000Y-131225000D01*
X162940000Y-131225000D02*
X162940000Y-135000000D01*
X156970500Y-135000000D02*
X156970500Y-134181000D01*
X162940000Y-135000000D02*
X156970500Y-135000000D01*
%TO.N,Net-(D4-A)*%
X134500000Y-125800000D02*
X137488000Y-126581500D01*
X136850000Y-133855000D02*
X134450000Y-133620000D01*
X134450000Y-133620000D02*
X133000000Y-133620000D01*
X133000000Y-133620000D02*
X133000000Y-125800000D01*
X133000000Y-125800000D02*
X134500000Y-125800000D01*
%TO.N,Net-(D4-K)*%
X136850000Y-138385000D02*
X130600000Y-138500000D01*
X130600000Y-138500000D02*
X130600000Y-130717999D01*
X131003999Y-130717999D02*
X131167000Y-127162000D01*
X130600000Y-130717999D02*
X131003999Y-130717999D01*
D84*
%TO.N,Net-(D10-A)*%
X39975000Y-86175000D02*
X42250000Y-86175000D01*
X42250000Y-86175000D02*
X43475000Y-84950000D01*
%TO.N,Net-(D13-A)*%
X44532000Y-98865000D02*
X41110000Y-98865000D01*
X41110000Y-98865000D02*
X40000000Y-99975000D01*
D86*
%TO.N,Net-(J6-Pad10)*%
X33490000Y-113435000D02*
X40081573Y-113435000D01*
X41051573Y-114405000D02*
X44595000Y-114405000D01*
X41051573Y-114405000D02*
X40081573Y-113435000D01*
X32740000Y-114185000D02*
X33490000Y-113435000D01*
X44595000Y-114405000D02*
X49925000Y-109075000D01*
%TO.N,Net-(J6-Pad12)*%
X46762500Y-127462500D02*
X46675000Y-127550000D01*
X49800000Y-127462500D02*
X46762500Y-127462500D01*
%TO.N,Net-(Q1-G)*%
X170146001Y-135507500D02*
X171350500Y-135507500D01*
X168773000Y-134134499D02*
X170146001Y-135507500D01*
X168773000Y-133397000D02*
X168773000Y-134134499D01*
%TO.N,Net-(Q2-G)*%
X193560500Y-84434000D02*
X196084000Y-84434000D01*
X196084000Y-84434000D02*
X197100000Y-85450000D01*
X197100000Y-86475000D02*
X197225000Y-86600000D01*
X197100000Y-85450000D02*
X197100000Y-86475000D01*
%TO.N,Net-(Q3-G)*%
X187400000Y-133425000D02*
X187400000Y-135000000D01*
X187400000Y-135000000D02*
X189977500Y-135000000D01*
X189977500Y-135000000D02*
X189977500Y-135235500D01*
%TO.N,Net-(Q4-G)*%
X175504306Y-84009000D02*
X174160500Y-84009000D01*
X177225000Y-85729694D02*
X175504306Y-84009000D01*
X177342194Y-85729694D02*
X177925000Y-86312500D01*
X177225000Y-85729694D02*
X177342194Y-85729694D01*
%TO.N,Net-(Q5-B)*%
X48425000Y-93175000D02*
X48862500Y-93175000D01*
X48862500Y-93175000D02*
X50050000Y-94362500D01*
%TO.N,Net-(Q6-B)*%
X44305000Y-94450500D02*
X44842500Y-94988000D01*
X44305000Y-93150000D02*
X44305000Y-94450500D01*
%TO.N,Net-(R4-Pad2)*%
X134630500Y-87166000D02*
X137246500Y-84550000D01*
X137246500Y-84550000D02*
X137750000Y-84550000D01*
%TO.N,Net-(R8-Pad2)*%
X126975000Y-97575000D02*
X129700000Y-100300000D01*
X129700000Y-100300000D02*
X129700000Y-100687500D01*
%TO.N,Net-(R12-Pad2)*%
X153975000Y-136125000D02*
X153518500Y-136125000D01*
X153518500Y-136125000D02*
X150596500Y-133203000D01*
%TO.N,Net-(R16-Pad2)*%
X125175000Y-131650000D02*
X127179000Y-128940000D01*
%TO.N,Net-(RV1-W)*%
X137453500Y-90066000D02*
X137853500Y-90466000D01*
X133380500Y-90066000D02*
X137453500Y-90066000D01*
%TO.N,Net-(RV2-W)*%
X121211500Y-99188500D02*
X121211500Y-100872500D01*
X124075000Y-96325000D02*
X121211500Y-99188500D01*
%TO.N,Net-(RV3-W)*%
X161108500Y-137516500D02*
X159725000Y-138900000D01*
X152143500Y-138900000D02*
X149346500Y-136103000D01*
X161108500Y-135902500D02*
X161108500Y-137516500D01*
X159725000Y-138900000D02*
X152143500Y-138900000D01*
%TO.N,Net-(RV4-W)*%
X129000000Y-135575000D02*
X129687500Y-134856000D01*
X124950000Y-135575000D02*
X129000000Y-135575000D01*
X123925000Y-134550000D02*
X124950000Y-135575000D01*
%TO.N,Net-(U1-+)*%
X139446000Y-90233500D02*
X139678500Y-90466000D01*
X140138500Y-89052500D02*
X142531000Y-89052500D01*
X139446000Y-88360000D02*
X139446000Y-90233500D01*
X139446000Y-88360000D02*
X140138500Y-89052500D01*
%TO.N,Net-(U2-+)*%
X122625000Y-103157500D02*
X122625000Y-105550000D01*
X123085000Y-102697500D02*
X123317500Y-102465000D01*
X123317500Y-102465000D02*
X122625000Y-103157500D01*
X121211500Y-102697500D02*
X123085000Y-102697500D01*
%TO.N,Net-(U3-+)*%
X159002500Y-133962500D02*
X159235000Y-134077499D01*
X159695000Y-133617500D02*
X159695000Y-131225000D01*
X159002500Y-133962500D02*
X159695000Y-133617500D01*
X161108500Y-134077500D02*
X159235000Y-134077500D01*
%TO.N,Net-(U4-+)*%
X131546500Y-134890000D02*
X131512499Y-134856000D01*
X134450000Y-134890000D02*
X131546500Y-134890000D01*
X131512499Y-134856000D02*
X131637499Y-132852700D01*
%TO.N,Net-(U5-+)*%
X180736000Y-131801000D02*
X180899000Y-131638000D01*
X176962400Y-131476800D02*
X178862800Y-131476800D01*
X175102500Y-131717500D02*
X176721700Y-131717500D01*
X179187000Y-131801000D02*
X180736000Y-131801000D01*
X178862800Y-131476800D02*
X179187000Y-131801000D01*
X176721700Y-131717500D02*
X176962400Y-131476800D01*
%TO.N,Net-(U6-+)*%
X189800000Y-88400000D02*
X189808500Y-88224000D01*
X184012000Y-88303500D02*
X185561000Y-88303500D01*
X187568000Y-88140500D02*
X187800000Y-88800000D01*
X185724000Y-88140500D02*
X187568000Y-88140500D01*
X185561000Y-88303500D02*
X185724000Y-88140500D01*
%TO.N,Net-(U7-+)*%
X197814000Y-131829000D02*
X195913600Y-131829000D01*
X199526000Y-131666000D02*
X197977000Y-131666000D01*
X195913600Y-131829000D02*
X195589400Y-131504800D01*
X195348700Y-131745500D02*
X195589400Y-131504800D01*
X197977000Y-131666000D02*
X197814000Y-131829000D01*
X193729500Y-131745500D02*
X195348700Y-131745500D01*
%TO.N,Net-(U8-+)*%
X170325000Y-87715500D02*
X170408500Y-87799000D01*
X166324000Y-87715500D02*
X168168000Y-87715500D01*
X166161000Y-87878500D02*
X166324000Y-87715500D01*
X168168000Y-87715500D02*
X170325000Y-87715500D01*
X164612000Y-87878500D02*
X166161000Y-87878500D01*
%TO.N,Net-(U10-VBUS)*%
X58270000Y-90632500D02*
X58240000Y-90662500D01*
X59615000Y-90632500D02*
X58270000Y-90632500D01*
X57297500Y-93950000D02*
X57297500Y-91605000D01*
X57297500Y-91605000D02*
X58240000Y-90662500D01*
X57677501Y-91224999D02*
X56449999Y-91224999D01*
X58240000Y-90662500D02*
X57677501Y-91224999D01*
X56449999Y-91224999D02*
X56325000Y-91100000D01*
%TO.N,Net-(U10-~{RST})*%
X57250000Y-90525000D02*
X57175000Y-90600000D01*
X55295000Y-93272668D02*
X56622500Y-91945168D01*
X55295000Y-93825000D02*
X55295000Y-93272668D01*
X57175000Y-90600000D02*
X56325000Y-90600000D01*
%TO.N,Net-(U10-~{SUSPEND})*%
X58350000Y-89245000D02*
X57995000Y-89600000D01*
X57995000Y-89600000D02*
X56325000Y-89600000D01*
%TO.N,Net-(U14-REFCAPA)*%
X95620000Y-99825000D02*
X97257500Y-98187500D01*
X97257500Y-98187500D02*
X97257500Y-97250001D01*
X97532501Y-96975000D02*
X98307500Y-96975000D01*
X98250000Y-96750000D02*
X98307500Y-96975000D01*
X95750000Y-99750000D02*
X95620000Y-99825000D01*
X97257500Y-97250001D02*
X97532501Y-96975000D01*
X98307500Y-96475000D02*
X98000000Y-96500000D01*
X98307500Y-96475000D02*
X98250000Y-96750000D01*
%TO.N,Net-(U14-REFIN{slash}REFOUT)*%
X96307501Y-96700000D02*
X97532501Y-95475000D01*
X95682500Y-97425000D02*
X95682500Y-96700000D01*
X95682500Y-96700000D02*
X96307501Y-96700000D01*
X97532501Y-95475000D02*
X98307500Y-95475000D01*
%TO.N,Net-(U15-BST)*%
X83887500Y-116575000D02*
X82192500Y-116575000D01*
X82192500Y-116575000D02*
X82025000Y-116742500D01*
D88*
%TO.N,Net-(U15-SW)*%
X80000000Y-109925000D02*
X80000000Y-115607500D01*
X83887500Y-115625000D02*
X82042500Y-115625000D01*
X80000000Y-115607500D02*
X82025000Y-115607500D01*
X82042500Y-115625000D02*
X82025000Y-115607500D01*
X85275000Y-109925000D02*
X80000000Y-109925000D01*
D86*
%TO.N,Net-(U16-BST)*%
X104617500Y-136392500D02*
X104387500Y-136162500D01*
X104617500Y-137875000D02*
X104617500Y-136392500D01*
%TO.N,Net-(U16-FB)*%
X103565000Y-131925000D02*
X103565000Y-130322500D01*
X103565000Y-132402501D02*
X103565000Y-131925000D01*
X103385000Y-131745000D02*
X103565000Y-131925000D01*
X103565000Y-130322500D02*
X103787500Y-130100000D01*
X104387500Y-133887500D02*
X104387500Y-133225001D01*
X102100000Y-131745000D02*
X103385000Y-131745000D01*
X104387500Y-133225001D02*
X103565000Y-132402501D01*
D88*
%TO.N,Net-(U16-SW)*%
X103482500Y-137875000D02*
X103482500Y-138185000D01*
X103482500Y-138185000D02*
X103932500Y-138635000D01*
X103482500Y-137875000D02*
X103482500Y-136207500D01*
X106400000Y-138635000D02*
X109160000Y-135875000D01*
X103932500Y-138635000D02*
X106400000Y-138635000D01*
X103482500Y-136207500D02*
X103437500Y-136162500D01*
D86*
%TO.N,PWM1*%
X145440000Y-140450000D02*
X79585000Y-140450000D01*
X72750000Y-127100000D02*
X73450000Y-127800000D01*
X71000000Y-105361882D02*
X71000000Y-107875000D01*
X67775000Y-101340000D02*
X67775000Y-103361396D01*
X67775000Y-103361396D02*
X68038604Y-103625000D01*
X177000000Y-134300000D02*
X177000000Y-133339400D01*
X68700000Y-100415000D02*
X67775000Y-101340000D01*
X69263118Y-103625000D02*
X71000000Y-105361882D01*
X72750000Y-118675000D02*
X72750000Y-127100000D01*
X68700000Y-99415000D02*
X68700000Y-100415000D01*
X147125000Y-138325000D02*
X145440000Y-140450000D01*
X177000000Y-133339400D02*
X176962400Y-133301800D01*
X79585000Y-140450000D02*
X78450000Y-138875000D01*
X68038604Y-103625000D02*
X69263118Y-103625000D01*
%TO.N,PWM2*%
X68700000Y-103175000D02*
X77498655Y-103175000D01*
X121846683Y-120544000D02*
X112877683Y-111575000D01*
X68325000Y-102800000D02*
X68700000Y-103175000D01*
X142379595Y-105850000D02*
X134079595Y-114150000D01*
X124652317Y-120544000D02*
X121846683Y-120544000D01*
X96862500Y-111287500D02*
X97800000Y-110350000D01*
X183950000Y-84275000D02*
X182100000Y-86125000D01*
X131046317Y-114150000D02*
X124652317Y-120544000D01*
X96482600Y-112850000D02*
X96862500Y-112470100D01*
X69970000Y-99895000D02*
X68325000Y-101540000D01*
X182100000Y-86125000D02*
X182100000Y-96800000D01*
X187568000Y-86315500D02*
X185527500Y-84275000D01*
X92350000Y-110200000D02*
X92350000Y-111107600D01*
X104442894Y-110350000D02*
X106078323Y-111985429D01*
X106078323Y-111985429D02*
X108155833Y-111985429D01*
X182100000Y-96800000D02*
X173050000Y-105850000D01*
X173050000Y-105850000D02*
X142379595Y-105850000D01*
X134079595Y-114150000D02*
X131046317Y-114150000D01*
X96862500Y-112470100D02*
X96862500Y-111287500D01*
X77498655Y-103175000D02*
X78698655Y-104375000D01*
X68325000Y-101540000D02*
X68325000Y-102800000D01*
X92350000Y-111107600D02*
X94092400Y-112850000D01*
X78698655Y-104375000D02*
X86525000Y-104375000D01*
X112877683Y-111575000D02*
X112825000Y-111575000D01*
X97800000Y-110350000D02*
X104442894Y-110350000D01*
X185527500Y-84275000D02*
X183950000Y-84275000D01*
X94092400Y-112850000D02*
X96482600Y-112850000D01*
X86525000Y-104375000D02*
X92350000Y-110200000D01*
X69970000Y-99415000D02*
X69970000Y-99895000D01*
%TO.N,PWM3*%
X76382088Y-92697461D02*
X75443449Y-93636100D01*
X195589400Y-133014400D02*
X195000000Y-132425000D01*
X195589400Y-133329800D02*
X195589400Y-133014400D01*
X177400000Y-122400000D02*
X132500000Y-122400000D01*
X75443449Y-93636100D02*
X73238486Y-93636100D01*
X91275000Y-101075000D02*
X91275000Y-103400000D01*
X82550000Y-93125000D02*
X83325000Y-93125000D01*
X70600000Y-98150000D02*
X71240000Y-98790000D01*
X132500000Y-122400000D02*
X131425000Y-123475000D01*
X71240000Y-98790000D02*
X71240000Y-99415000D01*
X83325000Y-93125000D02*
X91275000Y-101075000D01*
X185025000Y-130025000D02*
X177400000Y-122400000D01*
%TO.N,PWM4*%
X135400001Y-82225000D02*
X165350000Y-82225000D01*
X73475000Y-90400000D02*
X73475000Y-87700000D01*
X73475000Y-87700000D02*
X77500000Y-83675000D01*
X167359000Y-84234000D02*
X167359000Y-85081500D01*
X63125000Y-91815000D02*
X65125000Y-91815000D01*
X65240000Y-91700000D02*
X72175000Y-91700000D01*
X77625000Y-83550000D02*
X78950000Y-83550000D01*
X65125000Y-91815000D02*
X65240000Y-91700000D01*
X167359000Y-85081500D02*
X168168000Y-85890500D01*
X94050000Y-83650000D02*
X133975000Y-83650000D01*
X77500000Y-83675000D02*
X77625000Y-83550000D01*
X165350000Y-82225000D02*
X167359000Y-84234000D01*
X133975000Y-83650000D02*
X135400001Y-82225000D01*
X72175000Y-91700000D02*
X73475000Y-90400000D01*
D83*
%TO.N,VBUS_5V*%
X52573050Y-101789026D02*
X51956074Y-101789026D01*
D84*
X47975000Y-84950000D02*
X48175000Y-85150000D01*
X47875000Y-88750000D02*
X47875000Y-91194684D01*
X47972000Y-98725000D02*
X47832000Y-98865000D01*
X46775000Y-84950000D02*
X47975000Y-84950000D01*
X87487500Y-103775000D02*
X81499569Y-103775000D01*
D83*
X59935000Y-92147500D02*
X59935000Y-94427076D01*
D84*
X47975000Y-87550000D02*
X47875000Y-87650000D01*
X81499569Y-103775000D02*
X81474568Y-103800000D01*
X80300432Y-103800000D02*
X79800432Y-103300000D01*
D83*
X49775000Y-101081903D02*
X49019403Y-101081903D01*
X51645100Y-102100000D02*
X49312500Y-102100000D01*
D84*
X95287500Y-111575000D02*
X87487500Y-103775000D01*
X77661828Y-102525000D02*
X69575000Y-102525000D01*
X69575000Y-102525000D02*
X69200000Y-102150000D01*
D83*
X49019403Y-101081903D02*
X48987500Y-101050000D01*
D84*
X79800432Y-103300000D02*
X78911827Y-103300000D01*
D83*
X49312500Y-102100000D02*
X48987500Y-101775000D01*
D84*
X78661828Y-103050000D02*
X78186827Y-103050000D01*
X46372500Y-92697184D02*
X46372500Y-93612816D01*
X46662500Y-82525000D02*
X46662500Y-84837500D01*
X46372500Y-93612816D02*
X47955000Y-95195316D01*
X47955000Y-95195316D02*
X47955000Y-98742000D01*
D83*
X59935000Y-94427076D02*
X52573050Y-101789026D01*
D84*
X47955000Y-98742000D02*
X47832000Y-98865000D01*
X78911827Y-103300000D02*
X78661828Y-103050000D01*
D83*
X51956074Y-101789026D02*
X51645100Y-102100000D01*
D84*
X50022500Y-98725000D02*
X47972000Y-98725000D01*
X81474568Y-103800000D02*
X80300432Y-103800000D01*
X46662500Y-84837500D02*
X46775000Y-84950000D01*
D83*
X48987500Y-101775000D02*
X48987500Y-101050000D01*
D84*
X78186827Y-103050000D02*
X77661828Y-102525000D01*
D83*
X48987500Y-101050000D02*
X48987500Y-100020500D01*
D84*
X47875000Y-91194684D02*
X46372500Y-92697184D01*
X47875000Y-87650000D02*
X47875000Y-88750000D01*
X48987500Y-100020500D02*
X47832000Y-98865000D01*
D83*
X59615000Y-91827500D02*
X59935000Y-92147500D01*
D89*
%TO.N,VIN_24V*%
X49925000Y-117037500D02*
X50400000Y-117512500D01*
D85*
X95625000Y-134575000D02*
X86800000Y-125750000D01*
D89*
X86162500Y-113000000D02*
X86162500Y-114675000D01*
X101000000Y-133887500D02*
X102487500Y-133887500D01*
D85*
X85000000Y-118350000D02*
X86050000Y-119400000D01*
X116260000Y-135250000D02*
X112125000Y-139385000D01*
X52375000Y-137400000D02*
X92800000Y-137400000D01*
X92800000Y-137400000D02*
X95625000Y-134575000D01*
X86162500Y-115625000D02*
X85500001Y-115625000D01*
D89*
X48653500Y-119259000D02*
X50400000Y-117512500D01*
X38324000Y-118243000D02*
X39340000Y-119259000D01*
X37560000Y-118243000D02*
X38324000Y-118243000D01*
D85*
X86800000Y-125750000D02*
X86800000Y-125425000D01*
X112125000Y-139385000D02*
X100435000Y-139385000D01*
X101800000Y-134575000D02*
X95625000Y-134575000D01*
X103437500Y-133887500D02*
X102487500Y-133887500D01*
X85500001Y-115625000D02*
X85000000Y-116125001D01*
X50262500Y-135287500D02*
X52375000Y-137400000D01*
X47762500Y-133900000D02*
X49150000Y-135287500D01*
X86162500Y-115625000D02*
X86162500Y-114675000D01*
X45100000Y-133900000D02*
X47762500Y-133900000D01*
X118800000Y-135250000D02*
X116260000Y-135250000D01*
X45100000Y-122812500D02*
X50400000Y-117512500D01*
D89*
X39340000Y-119259000D02*
X48653500Y-119259000D01*
D85*
X45100000Y-133900000D02*
X45100000Y-122812500D01*
D89*
X49925000Y-110900000D02*
X49925000Y-117037500D01*
D85*
X85000000Y-116125001D02*
X85000000Y-118350000D01*
X49150000Y-135287500D02*
X50262500Y-135287500D01*
X100435000Y-139385000D02*
X95625000Y-134575000D01*
X102487500Y-133887500D02*
X101800000Y-134575000D01*
D86*
%TO.N,VOUT1*%
X124000000Y-92325000D02*
X114050000Y-102275000D01*
X100525000Y-101850000D02*
X100232500Y-101557500D01*
X147481000Y-89052500D02*
X146506001Y-89052500D01*
X100232500Y-101557500D02*
X100232500Y-100400000D01*
X148549000Y-89052500D02*
X147481000Y-89052500D01*
X140000000Y-92325000D02*
X124000000Y-92325000D01*
X150212000Y-88006500D02*
X151909300Y-89703800D01*
X145950000Y-90850000D02*
X145950000Y-94500000D01*
X153559300Y-89703800D02*
X154809300Y-88453800D01*
X140000000Y-94500000D02*
X140000000Y-92325000D01*
X145950000Y-94500000D02*
X140000000Y-94500000D01*
X149595000Y-88006500D02*
X148549000Y-89052500D01*
X150070000Y-88006500D02*
X150212000Y-88006500D01*
X146506000Y-89052500D02*
X145950000Y-90850000D01*
X150070000Y-88006500D02*
X149595000Y-88006500D01*
X151909300Y-89703800D02*
X153559300Y-89703800D01*
%TO.N,VOUT2*%
X123249500Y-116969000D02*
X121999500Y-115719000D01*
X123571500Y-113262000D02*
X122625000Y-112315500D01*
X121999500Y-114834000D02*
X123571500Y-113262000D01*
X101232500Y-100400000D02*
X101232500Y-101174999D01*
X113650000Y-103325000D02*
X115901618Y-103325000D01*
X121999500Y-115719000D02*
X121999500Y-114834000D01*
X122625000Y-110048382D02*
X122625000Y-110500000D01*
X115901618Y-103325000D02*
X122625000Y-110048382D01*
X122625000Y-112315500D02*
X122625000Y-110500000D01*
X102582501Y-102525000D02*
X103425000Y-102525000D01*
X101232500Y-101174999D02*
X102582501Y-102525000D01*
X123249500Y-118619000D02*
X123249500Y-116969000D01*
%TO.N,VOUT3*%
X148261500Y-127999000D02*
X149911500Y-127999000D01*
X154072818Y-128804318D02*
X158140681Y-128804318D01*
X149911500Y-127999000D02*
X151161500Y-126749000D01*
X158140681Y-128804318D02*
X159695000Y-127249999D01*
X153521500Y-128253000D02*
X152665500Y-128253000D01*
X104232500Y-100400000D02*
X104000000Y-103300000D01*
X152665500Y-128253000D02*
X151161500Y-126749000D01*
X146850000Y-128150000D02*
X148110500Y-128150000D01*
X153521500Y-128253000D02*
X154072818Y-128804318D01*
X148110500Y-128150000D02*
X148261500Y-127999000D01*
X159695000Y-127249999D02*
X159695000Y-126275000D01*
%TO.N,VOUT4*%
X139400000Y-134890000D02*
X138425001Y-134890000D01*
X126750000Y-124775000D02*
X118306399Y-124775000D01*
X137488000Y-129081500D02*
X136056500Y-129081500D01*
X105232500Y-102398700D02*
X105800000Y-104400000D01*
X140388000Y-126831500D02*
X138181500Y-124625000D01*
X136056500Y-129081500D02*
X134500000Y-127525000D01*
X138425001Y-134890000D02*
X137488000Y-133952999D01*
X139138000Y-129081500D02*
X140388000Y-127831500D01*
X127700000Y-125725000D02*
X126750000Y-124775000D01*
X132228428Y-125725000D02*
X127700000Y-125725000D01*
X137488000Y-129081500D02*
X139138000Y-129081500D01*
X137488000Y-133952999D02*
X137488000Y-129081500D01*
X140388000Y-127831500D02*
X140388000Y-126831500D01*
X105232500Y-100400000D02*
X105232500Y-102398683D01*
X138181500Y-124625000D02*
X133328430Y-124625000D01*
X133328430Y-124625000D02*
X132228428Y-125725000D01*
%TD*%
M02*
